# Blender 4.5.10 LTS
# www.blender.org
o L7-courtfacing-S
v 11.100000 7.120000 10.950000
v 11.100000 7.540000 10.950000
v 11.100000 7.540000 8.150000
v 11.100000 7.291900 8.150000
v 11.100000 7.291900 8.400000
v 11.100000 7.120000 8.400000
v 20.520000 7.120000 8.400000
v 20.520000 7.291900 8.400000
v 20.520000 7.291900 8.150000
v 20.520000 7.540000 8.150000
v 20.520000 7.540000 10.950000
v 20.520000 7.120000 10.950000
s 0
f 1 2 3 4 5 6
f 7 8 9 10 11 12
f 7 12 1 6
f 9 8 5 4
f 3 2 11 10
f 3 10 9 4
f 5 8 7 6
f 1 12 11 2
o L7-alleyback-W
v 20.520000 0.000000 10.950000
v 20.520000 7.540000 10.950000
v 20.520000 7.540000 8.150000
v 20.520000 7.291900 8.150000
v 20.520000 7.291900 8.400000
v 20.520000 0.188100 8.400000
v 20.520000 0.188100 8.150000
v 20.520000 0.000000 8.150000
v 20.691900 0.188100 8.400000
v 20.691900 7.291900 8.400000
v 20.691900 7.291900 8.150000
v 20.691900 0.188100 8.150000
v 20.900000 0.000000 8.150000
v 20.900000 7.540000 8.150000
v 20.900000 7.540000 10.950000
v 20.900000 0.000000 10.950000
s 0
f 13 14 15 16 17 18 19 20
f 21 22 23 24
f 25 26 27 28
f 25 28 13 20
f 23 22 17 16
f 19 18 21 24
f 15 14 27 26
f 19 24 23 16 15 26 25 20
f 17 22 21 18
f 13 28 27 14
o L7-mitoyen-N
v 8.920000 0.000000 10.950000
v 8.920000 0.360000 10.950000
v 8.920000 0.360000 8.400000
v 8.920000 0.188100 8.400000
v 8.920000 0.188100 8.150000
v 8.920000 0.000000 8.150000
v 20.520000 0.000000 8.150000
v 20.520000 0.188100 8.150000
v 20.520000 0.188100 8.400000
v 20.520000 0.360000 8.400000
v 20.520000 0.360000 10.950000
v 20.520000 0.000000 10.950000
s 0
f 29 30 31 32 33 34
f 35 36 37 38 39 40
f 35 40 29 34
f 33 32 37 36
f 31 30 39 38
f 33 36 35 34
f 31 38 37 32
f 29 40 39 30
o L7-courtfacing-E
v 8.500000 0.000000 10.950000
v 8.500000 2.850000 10.950000
v 8.500000 2.850000 8.150000
v 8.500000 0.000000 8.150000
v 8.748100 0.188100 8.150000
v 8.748100 2.850000 8.150000
v 8.748100 2.850000 8.400000
v 8.748100 0.188100 8.400000
v 8.920000 0.000000 8.150000
v 8.920000 0.188100 8.150000
v 8.920000 0.188100 8.400000
v 8.920000 2.850000 8.400000
v 8.920000 2.850000 10.950000
v 8.920000 0.000000 10.950000
s 0
f 41 42 43 44
f 45 46 47 48
f 49 50 51 52 53 54
f 49 54 41 44
f 45 48 51 50
f 43 42 53 52 47 46
f 43 46 45 50 49 44
f 47 52 51 48
f 41 54 53 42
o Roof_Deck9_CLT
v 11.100000 2.850000 10.950000
v 8.500000 2.850000 10.950000
v 8.500000 2.430000 10.950000
v 8.748100 2.430000 10.950000
v 8.748100 0.188100 10.950000
v 20.691900 0.188100 10.950000
v 20.691900 7.291900 10.950000
v 11.100000 7.291900 10.950000
v 11.100000 2.850000 11.195000
v 8.500000 2.850000 11.195000
v 8.500000 2.430000 11.195000
v 8.748100 2.430000 11.195000
v 8.748100 0.188100 11.195000
v 20.691900 0.188100 11.195000
v 20.691900 7.291900 11.195000
v 11.100000 7.291900 11.195000
s 0
f 62 61 60 59 58 57 56 55
f 63 64 65 66 67 68 69 70
f 55 56 64 63
f 56 57 65 64
f 57 58 66 65
f 58 59 67 66
f 59 60 68 67
f 60 61 69 68
f 61 62 70 69
f 62 55 63 70
o Roof_Deck9_InsulationFlat
v 8.920000 0.360000 11.195000
v 20.520000 0.360000 11.195000
v 20.520000 7.120000 11.195000
v 13.520000 7.120000 11.195000
v 13.520000 2.430000 11.195000
v 8.920000 2.430000 11.195000
v 8.920000 0.360000 11.395000
v 20.520000 0.360000 11.395000
v 20.520000 7.120000 11.395000
v 13.520000 7.120000 11.395000
v 13.520000 2.430000 11.395000
v 8.920000 2.430000 11.395000
s 0
f 76 75 74 73 72 71
f 77 78 79 80 81 82
f 71 72 78 77
f 72 73 79 78
f 73 74 80 79
f 74 75 81 80
f 75 76 82 81
f 76 71 77 82
o Roof_Deck9_InsulationTaper
v 8.920000 0.360000 11.395000
v 20.520000 0.360000 11.395000
v 20.520000 0.360000 11.395000
v 14.800000 2.965000 11.395000
v 8.920000 0.360000 11.395000
v 8.920000 0.360000 11.534400
v 20.520000 0.360000 11.534400
v 20.520000 0.360000 11.534400
v 14.800000 2.965000 11.420000
v 8.920000 0.360000 11.534400
v 20.520000 0.360000 11.395000
v 20.520000 0.360000 11.395000
v 20.520000 7.120000 11.395000
v 20.520000 7.120000 11.395000
v 14.800000 2.965000 11.395000
v 20.520000 0.360000 11.534400
v 20.520000 0.360000 11.534400
v 20.520000 7.120000 11.534400
v 20.520000 7.120000 11.534400
v 14.800000 2.965000 11.420000
v 14.800000 2.965000 11.395000
v 20.520000 7.120000 11.395000
v 20.520000 7.120000 11.395000
v 13.520000 7.120000 11.395000
v 13.520000 7.120000 11.395000
v 14.800000 2.965000 11.420000
v 20.520000 7.120000 11.534400
v 20.520000 7.120000 11.534400
v 13.520000 7.120000 11.534400
v 13.520000 7.120000 11.534400
v 14.800000 2.965000 11.395000
v 13.520000 7.120000 11.395000
v 13.520000 7.120000 11.395000
v 13.520000 2.430000 11.395000
v 13.520000 2.430000 11.395000
v 13.520000 2.430000 11.395000
v 14.800000 2.965000 11.420000
v 13.520000 7.120000 11.534400
v 13.520000 7.120000 11.534400
v 13.520000 2.430000 11.442400
v 13.520000 2.430000 11.442400
v 13.520000 2.430000 11.442400
v 8.920000 0.360000 11.395000
v 8.920000 0.360000 11.395000
v 14.800000 2.965000 11.395000
v 13.520000 2.430000 11.395000
v 13.520000 2.430000 11.395000
v 13.520000 2.430000 11.395000
v 13.520000 2.430000 11.395000
v 8.920000 0.360000 11.395000
v 8.920000 0.360000 11.534400
v 8.920000 0.360000 11.534400
v 14.800000 2.965000 11.420000
v 13.520000 2.430000 11.442400
v 13.520000 2.430000 11.442400
v 13.520000 2.430000 11.442400
v 13.520000 2.430000 11.442400
v 8.920000 0.360000 11.534400
v 8.920000 0.360000 11.395000
v 8.920000 0.360000 11.395000
v 13.520000 2.430000 11.395000
v 13.520000 2.430000 11.395000
v 13.520000 2.430000 11.395000
v 8.920000 2.430000 11.395000
v 8.920000 0.360000 11.534400
v 8.920000 0.360000 11.534400
v 13.520000 2.430000 11.442400
v 13.520000 2.430000 11.442400
v 13.520000 2.430000 11.442400
v 8.920000 2.430000 11.534400
s 0
f 87 86 85 84 83
f 88 89 90 91 92
f 83 84 89 88
f 84 85 90 89
f 85 86 91 90
f 86 87 92 91
f 87 83 88 92
f 97 96 95 94 93
f 98 99 100 101 102
f 93 94 99 98
f 94 95 100 99
f 95 96 101 100
f 96 97 102 101
f 97 93 98 102
f 107 106 105 104 103
f 108 109 110 111 112
f 103 104 109 108
f 104 105 110 109
f 105 106 111 110
f 106 107 112 111
f 107 103 108 112
f 118 117 116 115 114 113
f 119 120 121 122 123 124
f 113 114 120 119
f 114 115 121 120
f 115 116 122 121
f 116 117 123 122
f 117 118 124 123
f 118 113 119 124
f 132 131 130 129 128 127 126 125
f 133 134 135 136 137 138 139 140
f 125 126 134 133
f 126 127 135 134
f 127 128 136 135
f 128 129 137 136
f 129 130 138 137
f 130 131 139 138
f 131 132 140 139
f 132 125 133 140
f 146 145 144 143 142 141
f 147 148 149 150 151 152
f 141 142 148 147
f 142 143 149 148
f 143 144 150 149
f 144 145 151 150
f 145 146 152 151
f 146 141 147 152
o CapPlate-Deck9-S
v 13.520000 7.291900 12.806000
v 15.190000 7.291900 12.806000
v 15.190000 7.540000 12.806000
v 13.520000 7.540000 12.806000
v 13.520000 7.291900 12.825000
v 15.190000 7.291900 12.825000
v 15.190000 7.540000 12.833000
v 13.520000 7.540000 12.833000
s 0
f 156 155 154 153
f 157 158 159 160
f 153 154 158 157
f 154 155 159 158
f 155 156 160 159
f 156 153 157 160
o CapPlate-Deck9-S2
v 16.389999 7.540000 12.806000
v 16.389999 7.291900 12.806000
v 20.691900 7.291900 12.806000
v 20.900000 7.540000 12.806000
v 16.389999 7.540000 12.833000
v 16.389999 7.291900 12.825000
v 20.691900 7.291900 12.825000
v 20.900000 7.540000 12.833000
s 0
f 164 163 162 161
f 165 166 167 168
f 161 162 166 165
f 162 163 167 166
f 163 164 168 167
f 164 161 165 168
o CapPlate-Deck9-W
v 20.900000 7.540000 12.806000
v 20.691900 7.291900 12.806000
v 20.691900 0.188100 12.806000
v 20.900000 -0.160000 12.806000
v 20.900000 7.540000 12.833000
v 20.691900 7.291900 12.825000
v 20.691900 0.188100 12.825000
v 20.900000 -0.160000 12.833000
s 0
f 172 171 170 169
f 173 174 175 176
f 169 170 174 173
f 170 171 175 174
f 171 172 176 175
f 172 169 173 176
o CapPlate-Deck9-N
v 20.900000 -0.160000 12.806000
v 20.691900 0.188100 12.806000
v 8.748100 0.188100 12.806000
v 8.500000 -0.160000 12.806000
v 20.900000 -0.160000 12.833000
v 20.691900 0.188100 12.825000
v 8.748100 0.188100 12.825000
v 8.500000 -0.160000 12.833000
s 0
f 180 179 178 177
f 181 182 183 184
f 177 178 182 181
f 178 179 183 182
f 179 180 184 183
f 180 177 181 184
o CapPlate-Deck9-E
v 8.748100 0.188100 12.806000
v 8.748100 2.430000 12.806000
v 8.500000 2.430000 12.806000
v 8.500000 -0.160000 12.806000
v 8.748100 0.188100 12.825000
v 8.748100 2.430000 12.825000
v 8.500000 2.430000 12.833000
v 8.500000 -0.160000 12.833000
s 0
f 188 187 186 185
f 189 190 191 192
f 185 186 190 189
f 186 187 191 190
f 187 188 192 191
f 188 185 189 192
o Cornice-Deck9-S
v 15.090000 7.540000 11.464400
v 16.490000 7.540000 11.464400
v 16.490000 7.640000 11.464400
v 15.090000 7.640000 11.464400
v 15.090000 7.540000 11.534400
v 16.490000 7.540000 11.534400
v 16.490000 7.640000 11.534400
v 15.090000 7.640000 11.534400
s 0
f 196 195 194 193
f 197 198 199 200
f 193 194 198 197
f 194 195 199 198
f 195 196 200 199
f 196 193 197 200
o Cornice-Deck9-N
v 8.500000 -0.160000 12.736000
v 20.900000 -0.160000 12.736000
v 20.900000 0.000000 12.736000
v 8.500000 0.000000 12.736000
v 8.500000 -0.160000 12.806000
v 20.900000 -0.160000 12.806000
v 20.900000 0.000000 12.806000
v 8.500000 0.000000 12.806000
s 0
f 204 203 202 201
f 205 206 207 208
f 201 202 206 205
f 202 203 207 206
f 203 204 208 207
f 204 201 205 208
o Parapet-Deck9-S
v 13.520000 7.120000 11.534400
v 13.520000 7.291900 11.534400
v 13.520000 7.291900 12.806000
v 13.520000 7.540000 12.806000
v 13.520000 7.540000 10.950000
v 13.520000 7.291900 10.950000
v 13.520000 7.291900 11.195000
v 13.520000 7.120000 11.195000
v 16.389999 7.291900 12.806000
v 16.389999 7.540000 12.806000
v 16.389999 7.540000 11.534400
v 16.389999 7.291900 11.534400
v 15.190000 7.291900 11.534400
v 15.190000 7.540000 11.534400
v 15.190000 7.540000 12.806000
v 15.190000 7.291900 12.806000
v 20.520000 7.120000 11.195000
v 20.520000 7.291900 11.195000
v 20.520000 7.291900 10.950000
v 20.520000 7.540000 10.950000
v 20.520000 7.540000 12.806000
v 20.520000 7.291900 12.806000
v 20.520000 7.291900 11.534400
v 20.520000 7.120000 11.534400
s 0
f 209 210 211 212 213 214 215 216
f 217 218 219 220
f 221 222 223 224
f 225 226 227 228 229 230 231 232
f 225 232 209 216
f 227 226 215 214
f 221 224 211 210
f 231 230 217 220
f 213 212 223 222 219 218 229 228
f 213 228 227 214
f 215 226 225 216
f 209 232 231 220 219 222 221 210
f 211 224 223 212
f 217 230 229 218
o Parapet-Deck9-W
v 20.520000 0.000000 12.806000
v 20.520000 0.188100 12.806000
v 20.520000 0.188100 11.534400
v 20.520000 7.291900 11.534400
v 20.520000 7.291900 12.806000
v 20.520000 7.540000 12.806000
v 20.520000 7.540000 10.950000
v 20.520000 7.291900 10.950000
v 20.520000 7.291900 11.195000
v 20.520000 0.188100 11.195000
v 20.520000 0.188100 10.950000
v 20.520000 0.000000 10.950000
v 20.691900 0.188100 11.195000
v 20.691900 7.291900 11.195000
v 20.691900 7.291900 10.950000
v 20.691900 0.188100 10.950000
v 20.691900 0.188100 12.806000
v 20.691900 7.291900 12.806000
v 20.691900 7.291900 11.534400
v 20.691900 0.188100 11.534400
v 20.900000 0.000000 10.950000
v 20.900000 7.540000 10.950000
v 20.900000 7.540000 12.806000
v 20.900000 0.000000 12.806000
s 0
f 233 234 235 236 237 238 239 240 241 242 243 244
f 245 246 247 248
f 249 250 251 252
f 253 254 255 256
f 253 256 233 244
f 247 246 241 240
f 251 250 237 236
f 243 242 245 248
f 235 234 249 252
f 239 238 255 254
f 243 248 247 240 239 254 253 244
f 241 246 245 242
f 235 252 251 236
f 233 256 255 238 237 250 249 234
o Parapet-Deck9-N
v 8.920000 0.000000 12.806000
v 8.920000 0.188100 12.806000
v 8.920000 0.188100 11.534400
v 8.920000 0.360000 11.534400
v 8.920000 0.360000 11.195000
v 8.920000 0.188100 11.195000
v 8.920000 0.188100 10.950000
v 8.920000 0.000000 10.950000
v 20.520000 0.000000 10.950000
v 20.520000 0.188100 10.950000
v 20.520000 0.188100 11.195000
v 20.520000 0.360000 11.195000
v 20.520000 0.360000 11.534400
v 20.520000 0.188100 11.534400
v 20.520000 0.188100 12.806000
v 20.520000 0.000000 12.806000
s 0
f 257 258 259 260 261 262 263 264
f 265 266 267 268 269 270 271 272
f 265 272 257 264
f 263 262 267 266
f 259 258 271 270
f 261 260 269 268
f 263 266 265 264
f 261 268 267 262
f 259 270 269 260
f 257 272 271 258
o Parapet-Deck9-E
v 8.500000 0.000000 12.806000
v 8.500000 2.430000 12.806000
v 8.500000 2.430000 10.950000
v 8.500000 0.000000 10.950000
v 8.748100 0.188100 10.950000
v 8.748100 2.430000 10.950000
v 8.748100 2.430000 11.195000
v 8.748100 0.188100 11.195000
v 8.748100 0.188100 11.534400
v 8.748100 2.430000 11.534400
v 8.748100 2.430000 12.806000
v 8.748100 0.188100 12.806000
v 8.920000 0.000000 10.950000
v 8.920000 0.188100 10.950000
v 8.920000 0.188100 11.195000
v 8.920000 2.430000 11.195000
v 8.920000 2.430000 11.534400
v 8.920000 0.188100 11.534400
v 8.920000 0.188100 12.806000
v 8.920000 0.000000 12.806000
s 0
f 273 274 275 276
f 277 278 279 280
f 281 282 283 284
f 285 286 287 288 289 290 291 292
f 285 292 273 276
f 277 280 287 286
f 281 284 291 290
f 275 274 283 282 289 288 279 278
f 275 278 277 286 285 276
f 279 288 287 280
f 281 290 289 282
f 273 292 291 284 283 274
