# Blender 4.5.10 LTS
# www.blender.org
o L7-courtfacing-S
v 11.100000 7.120000 10.950000
v 11.100000 7.540000 10.950000
v 11.100000 7.540000 8.150000
v 11.100000 7.291900 8.150000
v 11.100000 7.291900 8.400000
v 11.100000 7.120000 8.400000
v 20.520000 7.120000 8.400000
v 20.520000 7.291900 8.400000
v 20.520000 7.291900 8.150000
v 20.520000 7.540000 8.150000
v 20.520000 7.540000 10.950000
v 20.520000 7.120000 10.950000
s 0
f 1 2 3 4 5 6
f 7 8 9 10 11 12
f 7 12 1 6
f 9 8 5 4
f 3 2 11 10
f 3 10 9 4
f 5 8 7 6
f 1 12 11 2
o L7-alleyback-W
v 20.520000 0.000000 10.950000
v 20.520000 7.540000 10.950000
v 20.520000 7.540000 8.150000
v 20.520000 7.291900 8.150000
v 20.520000 7.291900 8.400000
v 20.520000 0.188100 8.400000
v 20.520000 0.188100 8.150000
v 20.520000 0.000000 8.150000
v 20.691900 0.188100 8.400000
v 20.691900 7.291900 8.400000
v 20.691900 7.291900 8.150000
v 20.691900 0.188100 8.150000
v 20.900000 0.000000 8.150000
v 20.900000 7.540000 8.150000
v 20.900000 7.540000 10.950000
v 20.900000 0.000000 10.950000
s 0
f 13 14 15 16 17 18 19 20
f 21 22 23 24
f 25 26 27 28
f 25 28 13 20
f 23 22 17 16
f 19 18 21 24
f 15 14 27 26
f 19 24 23 16 15 26 25 20
f 17 22 21 18
f 13 28 27 14
o L7-mitoyen-N
v 8.920000 0.000000 10.950000
v 8.920000 0.360000 10.950000
v 8.920000 0.360000 8.400000
v 8.920000 0.188100 8.400000
v 8.920000 0.188100 8.150000
v 8.920000 0.000000 8.150000
v 20.520000 0.000000 8.150000
v 20.520000 0.188100 8.150000
v 20.520000 0.188100 8.400000
v 20.520000 0.360000 8.400000
v 20.520000 0.360000 10.950000
v 20.520000 0.000000 10.950000
s 0
f 29 30 31 32 33 34
f 35 36 37 38 39 40
f 35 40 29 34
f 33 32 37 36
f 31 30 39 38
f 33 36 35 34
f 31 38 37 32
f 29 40 39 30
o L7-courtfacing-E
v 8.500000 0.000000 10.950000
v 8.500000 2.850000 10.950000
v 8.500000 2.850000 8.150000
v 8.500000 0.000000 8.150000
v 8.748100 0.188100 8.150000
v 8.748100 2.850000 8.150000
v 8.748100 2.850000 8.400000
v 8.748100 0.188100 8.400000
v 8.920000 0.000000 8.150000
v 8.920000 0.188100 8.150000
v 8.920000 0.188100 8.400000
v 8.920000 2.850000 8.400000
v 8.920000 2.850000 10.950000
v 8.920000 0.000000 10.950000
s 0
f 41 42 43 44
f 45 46 47 48
f 49 50 51 52 53 54
f 49 54 41 44
f 45 48 51 50
f 43 42 53 52 47 46
f 43 46 45 50 49 44
f 47 52 51 48
f 41 54 53 42
o Roof_Deck9_CLT
v 11.100000 2.850000 10.950000
v 8.500000 2.850000 10.950000
v 8.500000 2.430000 10.950000
v 8.748100 2.430000 10.950000
v 8.748100 0.188100 10.950000
v 20.691900 0.188100 10.950000
v 20.691900 7.291900 10.950000
v 11.100000 7.291900 10.950000
v 11.100000 2.850000 11.195000
v 8.500000 2.850000 11.195000
v 8.500000 2.430000 11.195000
v 8.748100 2.430000 11.195000
v 8.748100 0.188100 11.195000
v 20.691900 0.188100 11.195000
v 20.691900 7.291900 11.195000
v 11.100000 7.291900 11.195000
s 0
f 62 61 60 59 58 57 56 55
f 63 64 65 66 67 68 69 70
f 55 56 64 63
f 56 57 65 64
f 57 58 66 65
f 58 59 67 66
f 59 60 68 67
f 60 61 69 68
f 61 62 70 69
f 62 55 63 70
o Roof_Deck9_InsulationFlat
v 8.920000 0.360000 11.195000
v 20.520000 0.360000 11.195000
v 20.520000 7.120000 11.195000
v 13.520000 7.120000 11.195000
v 13.520000 2.430000 11.195000
v 8.920000 2.430000 11.195000
v 8.920000 0.360000 11.395000
v 20.520000 0.360000 11.395000
v 20.520000 7.120000 11.395000
v 13.520000 7.120000 11.395000
v 13.520000 2.430000 11.395000
v 8.920000 2.430000 11.395000
s 0
f 76 75 74 73 72 71
f 77 78 79 80 81 82
f 71 72 78 77
f 72 73 79 78
f 73 74 80 79
f 74 75 81 80
f 75 76 82 81
f 76 71 77 82
o Roof_Deck9_InsulationTaper
v 8.920000 0.360000 11.395000
v 20.520000 0.360000 11.395000
v 20.520000 0.360000 11.395000
v 14.800000 2.965000 11.395000
v 8.920000 0.360000 11.395000
v 8.920000 0.360000 11.534400
v 20.520000 0.360000 11.534400
v 20.520000 0.360000 11.534400
v 14.800000 2.965000 11.420000
v 8.920000 0.360000 11.534400
v 20.520000 0.360000 11.395000
v 20.520000 0.360000 11.395000
v 20.520000 7.120000 11.395000
v 20.520000 7.120000 11.395000
v 14.800000 2.965000 11.395000
v 20.520000 0.360000 11.534400
v 20.520000 0.360000 11.534400
v 20.520000 7.120000 11.534400
v 20.520000 7.120000 11.534400
v 14.800000 2.965000 11.420000
v 14.800000 2.965000 11.395000
v 20.520000 7.120000 11.395000
v 20.520000 7.120000 11.395000
v 13.520000 7.120000 11.395000
v 13.520000 7.120000 11.395000
v 14.800000 2.965000 11.420000
v 20.520000 7.120000 11.534400
v 20.520000 7.120000 11.534400
v 13.520000 7.120000 11.534400
v 13.520000 7.120000 11.534400
v 14.800000 2.965000 11.395000
v 13.520000 7.120000 11.395000
v 13.520000 7.120000 11.395000
v 13.520000 2.430000 11.395000
v 13.520000 2.430000 11.395000
v 13.520000 2.430000 11.395000
v 14.800000 2.965000 11.420000
v 13.520000 7.120000 11.534400
v 13.520000 7.120000 11.534400
v 13.520000 2.430000 11.442400
v 13.520000 2.430000 11.442400
v 13.520000 2.430000 11.442400
v 8.920000 0.360000 11.395000
v 8.920000 0.360000 11.395000
v 14.800000 2.965000 11.395000
v 13.520000 2.430000 11.395000
v 13.520000 2.430000 11.395000
v 13.520000 2.430000 11.395000
v 13.520000 2.430000 11.395000
v 8.920000 0.360000 11.395000
v 8.920000 0.360000 11.534400
v 8.920000 0.360000 11.534400
v 14.800000 2.965000 11.420000
v 13.520000 2.430000 11.442400
v 13.520000 2.430000 11.442400
v 13.520000 2.430000 11.442400
v 13.520000 2.430000 11.442400
v 8.920000 0.360000 11.534400
v 8.920000 0.360000 11.395000
v 8.920000 0.360000 11.395000
v 13.520000 2.430000 11.395000
v 13.520000 2.430000 11.395000
v 13.520000 2.430000 11.395000
v 8.920000 2.430000 11.395000
v 8.920000 0.360000 11.534400
v 8.920000 0.360000 11.534400
v 13.520000 2.430000 11.442400
v 13.520000 2.430000 11.442400
v 13.520000 2.430000 11.442400
v 8.920000 2.430000 11.534400
s 0
f 87 86 85 84 83
f 88 89 90 91 92
f 83 84 89 88
f 84 85 90 89
f 85 86 91 90
f 86 87 92 91
f 87 83 88 92
f 97 96 95 94 93
f 98 99 100 101 102
f 93 94 99 98
f 94 95 100 99
f 95 96 101 100
f 96 97 102 101
f 97 93 98 102
f 107 106 105 104 103
f 108 109 110 111 112
f 103 104 109 108
f 104 105 110 109
f 105 106 111 110
f 106 107 112 111
f 107 103 108 112
f 118 117 116 115 114 113
f 119 120 121 122 123 124
f 113 114 120 119
f 114 115 121 120
f 115 116 122 121
f 116 117 123 122
f 117 118 124 123
f 118 113 119 124
f 132 131 130 129 128 127 126 125
f 133 134 135 136 137 138 139 140
f 125 126 134 133
f 126 127 135 134
f 127 128 136 135
f 128 129 137 136
f 129 130 138 137
f 130 131 139 138
f 131 132 140 139
f 132 125 133 140
f 146 145 144 143 142 141
f 147 148 149 150 151 152
f 141 142 148 147
f 142 143 149 148
f 143 144 150 149
f 144 145 151 150
f 145 146 152 151
f 146 141 147 152
o Headhouse-E
v 8.500000 2.850000 12.595000
v 8.500000 7.120000 12.595000
v 8.080000 7.120000 12.595000
v 8.080000 2.850000 12.595000
v 8.500000 2.850000 14.025000
v 8.500000 7.120000 14.025000
v 8.080000 7.120000 14.025000
v 8.080000 2.850000 14.025000
s 0
f 156 155 154 153
f 157 158 159 160
f 153 154 158 157
f 154 155 159 158
f 155 156 160 159
f 156 153 157 160
o Headhouse-W
v 13.100000 7.120000 11.195000
v 13.100000 2.850000 11.195000
v 13.520000 2.850000 11.195000
v 13.520000 7.120000 11.195000
v 13.100000 7.120000 14.025000
v 13.100000 2.850000 14.025000
v 13.520000 2.850000 14.025000
v 13.520000 7.120000 14.025000
s 0
f 164 163 162 161
f 165 166 167 168
f 161 162 166 165
f 162 163 167 166
f 163 164 168 167
f 164 161 165 168
o Headhouse-S
v 8.080000 7.120000 14.025000
v 8.080000 7.540000 14.025000
v 8.080000 7.540000 12.595000
v 8.080000 7.120000 12.595000
v 11.100000 7.120000 12.595000
v 11.100000 7.540000 12.595000
v 11.100000 7.540000 10.950000
v 11.100000 7.291900 10.950000
v 11.100000 7.291900 11.195000
v 11.100000 7.120000 11.195000
v 13.520000 7.120000 11.195000
v 13.520000 7.291900 11.195000
v 13.520000 7.291900 10.950000
v 13.520000 7.540000 10.950000
v 13.520000 7.540000 14.025000
v 13.520000 7.120000 14.025000
s 0
f 169 170 171 172
f 173 174 175 176 177 178
f 179 180 181 182 183 184
f 173 178 179 184 169 172
f 181 180 177 176
f 171 170 183 182 175 174
f 175 182 181 176
f 177 180 179 178
f 171 174 173 172
f 169 184 183 170
o Headhouse-N
v 8.080000 2.430000 14.025000
v 8.080000 2.850000 14.025000
v 8.080000 2.850000 12.595000
v 8.080000 2.678100 12.595000
v 8.080000 2.678100 12.350000
v 8.080000 2.430000 12.350000
v 8.500000 2.430000 12.350000
v 8.500000 2.678100 12.350000
v 8.500000 2.678100 12.595000
v 8.500000 2.850000 12.595000
v 8.500000 2.850000 11.195000
v 8.500000 2.430000 11.195000
v 13.520000 2.430000 11.195000
v 13.520000 2.850000 11.195000
v 13.520000 2.850000 14.025000
v 13.520000 2.430000 14.025000
s 0
f 185 186 187 188 189 190
f 191 192 193 194 195 196
f 197 198 199 200
f 191 196 197 200 185 190
f 189 188 193 192
f 187 186 199 198 195 194
f 195 198 197 196
f 189 192 191 190
f 187 194 193 188
f 185 200 199 186
o Roof_Headhouse_CLT
v 8.328100 2.678100 14.025000
v 13.271900 2.678100 14.025000
v 13.271900 7.291900 14.025000
v 8.328100 7.291900 14.025000
v 8.328100 2.678100 14.270000
v 13.271900 2.678100 14.270000
v 13.271900 7.291900 14.270000
v 8.328100 7.291900 14.270000
s 0
f 204 203 202 201
f 205 206 207 208
f 201 202 206 205
f 202 203 207 206
f 203 204 208 207
f 204 201 205 208
o Roof_Headhouse_InsulationFlat
v 8.500000 2.850000 14.270000
v 13.100000 2.850000 14.270000
v 13.100000 7.120000 14.270000
v 8.500000 7.120000 14.270000
v 8.500000 2.850000 14.470000
v 13.100000 2.850000 14.470000
v 13.100000 7.120000 14.470000
v 8.500000 7.120000 14.470000
s 0
f 212 211 210 209
f 213 214 215 216
f 209 210 214 213
f 210 211 215 214
f 211 212 216 215
f 212 209 213 216
o Roof_Headhouse_InsulationTaper
v 8.500000 2.850000 14.470000
v 13.100000 2.850000 14.470000
v 13.100000 2.850000 14.470000
v 8.500000 4.985000 14.470000
v 8.500000 2.850000 14.587000
v 13.100000 2.850000 14.587000
v 13.100000 2.850000 14.587000
v 8.500000 4.985000 14.495000
v 13.100000 2.850000 14.470000
v 13.100000 2.850000 14.470000
v 13.100000 7.120000 14.470000
v 13.100000 7.120000 14.470000
v 8.500000 4.985000 14.470000
v 8.500000 4.985000 14.470000
v 13.100000 2.850000 14.587000
v 13.100000 2.850000 14.587000
v 13.100000 7.120000 14.587000
v 13.100000 7.120000 14.587000
v 8.500000 4.985000 14.495000
v 8.500000 4.985000 14.495000
v 13.100000 7.120000 14.470000
v 13.100000 7.120000 14.470000
v 8.500000 7.120000 14.470000
v 8.500000 4.985000 14.470000
v 13.100000 7.120000 14.587000
v 13.100000 7.120000 14.587000
v 8.500000 7.120000 14.587000
v 8.500000 4.985000 14.495000
s 0
f 220 219 218 217
f 221 222 223 224
f 217 218 222 221
f 218 219 223 222
f 219 220 224 223
f 220 217 221 224
f 230 229 228 227 226 225
f 231 232 233 234 235 236
f 225 226 232 231
f 226 227 233 232
f 227 228 234 233
f 228 229 235 234
f 229 230 236 235
f 230 225 231 236
f 240 239 238 237
f 241 242 243 244
f 237 238 242 241
f 238 239 243 242
f 239 240 244 243
f 240 237 241 244
o CapPlate-Deck9-S
v 13.520000 7.291900 12.806000
v 15.190000 7.291900 12.806000
v 15.190000 7.540000 12.806000
v 13.520000 7.540000 12.806000
v 13.520000 7.291900 12.825000
v 15.190000 7.291900 12.825000
v 15.190000 7.540000 12.833000
v 13.520000 7.540000 12.833000
s 0
f 248 247 246 245
f 249 250 251 252
f 245 246 250 249
f 246 247 251 250
f 247 248 252 251
f 248 245 249 252
o CapPlate-Deck9-S2
v 16.389999 7.540000 12.806000
v 16.389999 7.291900 12.806000
v 20.691900 7.291900 12.806000
v 20.900000 7.540000 12.806000
v 16.389999 7.540000 12.833000
v 16.389999 7.291900 12.825000
v 20.691900 7.291900 12.825000
v 20.900000 7.540000 12.833000
s 0
f 256 255 254 253
f 257 258 259 260
f 253 254 258 257
f 254 255 259 258
f 255 256 260 259
f 256 253 257 260
o CapPlate-Deck9-W
v 20.900000 7.540000 12.806000
v 20.691900 7.291900 12.806000
v 20.691900 0.188100 12.806000
v 20.900000 -0.160000 12.806000
v 20.900000 7.540000 12.833000
v 20.691900 7.291900 12.825000
v 20.691900 0.188100 12.825000
v 20.900000 -0.160000 12.833000
s 0
f 264 263 262 261
f 265 266 267 268
f 261 262 266 265
f 262 263 267 266
f 263 264 268 267
f 264 261 265 268
o CapPlate-Deck9-N
v 20.900000 -0.160000 12.806000
v 20.691900 0.188100 12.806000
v 8.748100 0.188100 12.806000
v 8.500000 -0.160000 12.806000
v 20.900000 -0.160000 12.833000
v 20.691900 0.188100 12.825000
v 8.748100 0.188100 12.825000
v 8.500000 -0.160000 12.833000
s 0
f 272 271 270 269
f 273 274 275 276
f 269 270 274 273
f 270 271 275 274
f 271 272 276 275
f 272 269 273 276
o CapPlate-Deck9-E
v 8.748100 0.188100 12.806000
v 8.748100 2.430000 12.806000
v 8.500000 2.430000 12.806000
v 8.500000 -0.160000 12.806000
v 8.748100 0.188100 12.825000
v 8.748100 2.430000 12.825000
v 8.500000 2.430000 12.833000
v 8.500000 -0.160000 12.833000
s 0
f 280 279 278 277
f 281 282 283 284
f 277 278 282 281
f 278 279 283 282
f 279 280 284 283
f 280 277 281 284
o Cornice-Deck9-S
v 15.090000 7.540000 11.464400
v 16.490000 7.540000 11.464400
v 16.490000 7.640000 11.464400
v 15.090000 7.640000 11.464400
v 15.090000 7.540000 11.534400
v 16.490000 7.540000 11.534400
v 16.490000 7.640000 11.534400
v 15.090000 7.640000 11.534400
s 0
f 288 287 286 285
f 289 290 291 292
f 285 286 290 289
f 286 287 291 290
f 287 288 292 291
f 288 285 289 292
o Cornice-Deck9-N
v 8.500000 -0.160000 12.736000
v 20.900000 -0.160000 12.736000
v 20.900000 0.000000 12.736000
v 8.500000 0.000000 12.736000
v 8.500000 -0.160000 12.806000
v 20.900000 -0.160000 12.806000
v 20.900000 0.000000 12.806000
v 8.500000 0.000000 12.806000
s 0
f 296 295 294 293
f 297 298 299 300
f 293 294 298 297
f 294 295 299 298
f 295 296 300 299
f 296 293 297 300
o Parapet-Deck9-S
v 13.520000 7.120000 11.534400
v 13.520000 7.291900 11.534400
v 13.520000 7.291900 12.806000
v 13.520000 7.540000 12.806000
v 13.520000 7.540000 10.950000
v 13.520000 7.291900 10.950000
v 13.520000 7.291900 11.195000
v 13.520000 7.120000 11.195000
v 16.389999 7.291900 12.806000
v 16.389999 7.540000 12.806000
v 16.389999 7.540000 11.534400
v 16.389999 7.291900 11.534400
v 15.190000 7.291900 11.534400
v 15.190000 7.540000 11.534400
v 15.190000 7.540000 12.806000
v 15.190000 7.291900 12.806000
v 20.520000 7.120000 11.195000
v 20.520000 7.291900 11.195000
v 20.520000 7.291900 10.950000
v 20.520000 7.540000 10.950000
v 20.520000 7.540000 12.806000
v 20.520000 7.291900 12.806000
v 20.520000 7.291900 11.534400
v 20.520000 7.120000 11.534400
s 0
f 301 302 303 304 305 306 307 308
f 309 310 311 312
f 313 314 315 316
f 317 318 319 320 321 322 323 324
f 317 324 301 308
f 319 318 307 306
f 313 316 303 302
f 323 322 309 312
f 305 304 315 314 311 310 321 320
f 305 320 319 306
f 307 318 317 308
f 301 324 323 312 311 314 313 302
f 303 316 315 304
f 309 322 321 310
o Parapet-Deck9-W
v 20.520000 0.000000 12.806000
v 20.520000 0.188100 12.806000
v 20.520000 0.188100 11.534400
v 20.520000 7.291900 11.534400
v 20.520000 7.291900 12.806000
v 20.520000 7.540000 12.806000
v 20.520000 7.540000 10.950000
v 20.520000 7.291900 10.950000
v 20.520000 7.291900 11.195000
v 20.520000 0.188100 11.195000
v 20.520000 0.188100 10.950000
v 20.520000 0.000000 10.950000
v 20.691900 0.188100 11.195000
v 20.691900 7.291900 11.195000
v 20.691900 7.291900 10.950000
v 20.691900 0.188100 10.950000
v 20.691900 0.188100 12.806000
v 20.691900 7.291900 12.806000
v 20.691900 7.291900 11.534400
v 20.691900 0.188100 11.534400
v 20.900000 0.000000 10.950000
v 20.900000 7.540000 10.950000
v 20.900000 7.540000 12.806000
v 20.900000 0.000000 12.806000
s 0
f 325 326 327 328 329 330 331 332 333 334 335 336
f 337 338 339 340
f 341 342 343 344
f 345 346 347 348
f 345 348 325 336
f 339 338 333 332
f 343 342 329 328
f 335 334 337 340
f 327 326 341 344
f 331 330 347 346
f 335 340 339 332 331 346 345 336
f 333 338 337 334
f 327 344 343 328
f 325 348 347 330 329 342 341 326
o Parapet-Deck9-N
v 8.920000 0.000000 12.806000
v 8.920000 0.188100 12.806000
v 8.920000 0.188100 11.534400
v 8.920000 0.360000 11.534400
v 8.920000 0.360000 11.195000
v 8.920000 0.188100 11.195000
v 8.920000 0.188100 10.950000
v 8.920000 0.000000 10.950000
v 20.520000 0.000000 10.950000
v 20.520000 0.188100 10.950000
v 20.520000 0.188100 11.195000
v 20.520000 0.360000 11.195000
v 20.520000 0.360000 11.534400
v 20.520000 0.188100 11.534400
v 20.520000 0.188100 12.806000
v 20.520000 0.000000 12.806000
s 0
f 349 350 351 352 353 354 355 356
f 357 358 359 360 361 362 363 364
f 357 364 349 356
f 355 354 359 358
f 351 350 363 362
f 353 352 361 360
f 355 358 357 356
f 353 360 359 354
f 351 362 361 352
f 349 364 363 350
o Parapet-Deck9-E
v 8.500000 0.000000 12.806000
v 8.500000 2.430000 12.806000
v 8.500000 2.430000 10.950000
v 8.500000 0.000000 10.950000
v 8.748100 0.188100 10.950000
v 8.748100 2.430000 10.950000
v 8.748100 2.430000 11.195000
v 8.748100 0.188100 11.195000
v 8.748100 0.188100 11.534400
v 8.748100 2.430000 11.534400
v 8.748100 2.430000 12.806000
v 8.748100 0.188100 12.806000
v 8.920000 0.000000 10.950000
v 8.920000 0.188100 10.950000
v 8.920000 0.188100 11.195000
v 8.920000 2.430000 11.195000
v 8.920000 2.430000 11.534400
v 8.920000 0.188100 11.534400
v 8.920000 0.188100 12.806000
v 8.920000 0.000000 12.806000
s 0
f 365 366 367 368
f 369 370 371 372
f 373 374 375 376
f 377 378 379 380 381 382 383 384
f 377 384 365 368
f 369 372 379 378
f 373 376 383 382
f 367 366 375 374 381 380 371 370
f 367 370 369 378 377 368
f 371 380 379 372
f 373 382 381 374
f 365 384 383 376 375 366
o CapPlate-Headhouse-N
v 8.080000 2.430000 14.718000
v 13.520000 2.430000 14.718000
v 13.100000 2.850000 14.718000
v 8.500000 2.850000 14.718000
v 8.080000 2.430000 14.752000
v 13.520000 2.430000 14.752000
v 13.100000 2.850000 14.737000
v 8.500000 2.850000 14.737000
s 0
f 388 387 386 385
f 389 390 391 392
f 385 386 390 389
f 386 387 391 390
f 387 388 392 391
f 388 385 389 392
o CapPlate-Headhouse-W
v 13.100000 7.120000 14.718000
v 13.100000 2.850000 14.718000
v 13.520000 2.430000 14.718000
v 13.520000 7.540000 14.718000
v 13.100000 7.120000 14.737000
v 13.100000 2.850000 14.737000
v 13.520000 2.430000 14.752000
v 13.520000 7.540000 14.752000
s 0
f 396 395 394 393
f 397 398 399 400
f 393 394 398 397
f 394 395 399 398
f 395 396 400 399
f 396 393 397 400
o CapPlate-Headhouse-S
v 8.500000 7.120000 14.718000
v 13.100000 7.120000 14.718000
v 13.520000 7.540000 14.718000
v 8.080000 7.540000 14.718000
v 8.500000 7.120000 14.737000
v 13.100000 7.120000 14.737000
v 13.520000 7.540000 14.752000
v 8.080000 7.540000 14.752000
s 0
f 404 403 402 401
f 405 406 407 408
f 401 402 406 405
f 402 403 407 406
f 403 404 408 407
f 404 401 405 408
o CapPlate-Headhouse-E
v 8.500000 2.850000 14.718000
v 8.500000 4.785000 14.718000
v 8.080000 4.785000 14.718000
v 8.080000 2.430000 14.718000
v 8.500000 2.850000 14.737000
v 8.500000 4.785000 14.737000
v 8.080000 4.785000 14.752000
v 8.080000 2.430000 14.752000
s 0
f 412 411 410 409
f 413 414 415 416
f 409 410 414 413
f 410 411 415 414
f 411 412 416 415
f 412 409 413 416
o CapPlate-Headhouse-E2
v 8.080000 5.185000 14.718000
v 8.500000 5.185000 14.718000
v 8.500000 7.120000 14.718000
v 8.080000 7.540000 14.718000
v 8.080000 5.185000 14.752000
v 8.500000 5.185000 14.737000
v 8.500000 7.120000 14.737000
v 8.080000 7.540000 14.752000
s 0
f 420 419 418 417
f 421 422 423 424
f 417 418 422 421
f 418 419 423 422
f 419 420 424 423
f 420 417 421 424
o Cornice-Headhouse-E
v 7.980000 4.685000 14.425000
v 8.080000 4.685000 14.425000
v 8.080000 5.285000 14.425000
v 7.980000 5.285000 14.425000
v 7.980000 4.685000 14.495000
v 8.080000 4.685000 14.495000
v 8.080000 5.285000 14.495000
v 7.980000 5.285000 14.495000
s 0
f 428 427 426 425
f 429 430 431 432
f 425 426 430 429
f 426 427 431 430
f 427 428 432 431
f 428 425 429 432
o Parapet-Headhouse-N
v 8.080000 2.430000 14.718000
v 8.080000 2.850000 14.718000
v 8.080000 2.850000 14.025000
v 8.080000 2.430000 14.025000
v 13.271900 2.678100 14.270000
v 13.271900 2.850000 14.270000
v 13.271900 2.850000 14.025000
v 13.271900 2.678100 14.025000
v 8.328100 2.678100 14.025000
v 8.328100 2.850000 14.025000
v 8.328100 2.850000 14.270000
v 8.328100 2.678100 14.270000
v 13.520000 2.430000 14.025000
v 13.520000 2.850000 14.025000
v 13.520000 2.850000 14.718000
v 13.520000 2.430000 14.718000
s 0
f 433 434 435 436
f 437 438 439 440
f 441 442 443 444
f 445 446 447 448
f 445 448 433 436
f 441 444 437 440
f 435 434 447 446 439 438 443 442
f 435 442 441 440 439 446 445 436
f 443 438 437 444
f 433 448 447 434
o Parapet-Headhouse-W
v 13.100000 2.850000 14.718000
v 13.100000 7.120000 14.718000
v 13.100000 7.120000 14.270000
v 13.100000 2.850000 14.270000
v 13.271900 2.850000 14.270000
v 13.271900 7.120000 14.270000
v 13.271900 7.120000 14.025000
v 13.271900 2.850000 14.025000
v 13.520000 2.850000 14.025000
v 13.520000 7.120000 14.025000
v 13.520000 7.120000 14.718000
v 13.520000 2.850000 14.718000
s 0
f 449 450 451 452
f 453 454 455 456
f 457 458 459 460
f 453 456 457 460 449 452
f 451 450 459 458 455 454
f 455 458 457 456
f 451 454 453 452
f 449 460 459 450
o Parapet-Headhouse-S
v 8.080000 7.120000 14.718000
v 8.080000 7.540000 14.718000
v 8.080000 7.540000 14.025000
v 8.080000 7.120000 14.025000
v 13.271900 7.120000 14.270000
v 13.271900 7.291900 14.270000
v 13.271900 7.291900 14.025000
v 13.271900 7.120000 14.025000
v 8.328100 7.120000 14.025000
v 8.328100 7.291900 14.025000
v 8.328100 7.291900 14.270000
v 8.328100 7.120000 14.270000
v 13.520000 7.120000 14.025000
v 13.520000 7.540000 14.025000
v 13.520000 7.540000 14.718000
v 13.520000 7.120000 14.718000
s 0
f 461 462 463 464
f 465 466 467 468
f 469 470 471 472
f 473 474 475 476
f 469 472 465 468 473 476 461 464
f 467 466 471 470
f 463 462 475 474
f 463 474 473 468 467 470 469 464
f 471 466 465 472
f 461 476 475 462
o Parapet-Headhouse-E
v 8.080000 2.850000 14.718000
v 8.080000 4.785000 14.718000
v 8.080000 4.785000 14.495000
v 8.080000 5.185000 14.495000
v 8.080000 5.185000 14.718000
v 8.080000 7.120000 14.718000
v 8.080000 7.120000 14.025000
v 8.080000 2.850000 14.025000
v 8.328100 2.850000 14.025000
v 8.328100 7.120000 14.025000
v 8.328100 7.120000 14.270000
v 8.328100 2.850000 14.270000
v 8.500000 2.850000 14.270000
v 8.500000 7.120000 14.270000
v 8.500000 7.120000 14.718000
v 8.500000 5.185000 14.718000
v 8.500000 5.185000 14.495000
v 8.500000 4.785000 14.495000
v 8.500000 4.785000 14.718000
v 8.500000 2.850000 14.718000
s 0
f 477 478 479 480 481 482 483 484
f 485 486 487 488
f 489 490 491 492 493 494 495 496
f 485 488 489 496 477 484
f 493 492 481 480
f 479 478 495 494
f 483 482 491 490 487 486
f 483 486 485 484
f 487 490 489 488
f 479 494 493 480
f 477 496 495 478
f 481 492 491 482
