# Blender 4.5.10 LTS
# www.blender.org
o Roof_Headhouse_CLT
v 8.328100 2.678100 14.025000
v 13.271900 2.678100 14.025000
v 13.271900 7.291900 14.025000
v 8.328100 7.291900 14.025000
v 8.328100 2.678100 14.270000
v 13.271900 2.678100 14.270000
v 13.271900 7.291900 14.270000
v 8.328100 7.291900 14.270000
vn -0.0000 -0.0000 -1.0000
vn -0.0000 -0.0000 1.0000
vn -0.0000 -1.0000 -0.0000
vn 1.0000 -0.0000 -0.0000
vn -0.0000 1.0000 -0.0000
vn -1.0000 -0.0000 -0.0000
s 0
f 4//1 3//1 2//1 1//1
f 5//2 6//2 7//2 8//2
f 1//3 2//3 6//3 5//3
f 2//4 3//4 7//4 6//4
f 3//5 4//5 8//5 7//5
f 4//6 1//6 5//6 8//6
o Roof_Headhouse_InsulationFlat
v 8.500000 2.850000 14.270000
v 13.100000 2.850000 14.270000
v 13.100000 7.120000 14.270000
v 8.500000 7.120000 14.270000
v 8.500000 2.850000 14.470000
v 13.100000 2.850000 14.470000
v 13.100000 7.120000 14.470000
v 8.500000 7.120000 14.470000
vn -0.0000 -0.0000 -1.0000
vn -0.0000 -0.0000 1.0000
vn -0.0000 -1.0000 -0.0000
vn 1.0000 -0.0000 -0.0000
vn -0.0000 1.0000 -0.0000
vn -1.0000 -0.0000 -0.0000
s 0
f 12//7 11//7 10//7 9//7
f 13//8 14//8 15//8 16//8
f 9//9 10//9 14//9 13//9
f 10//10 11//10 15//10 14//10
f 11//11 12//11 16//11 15//11
f 12//12 9//12 13//12 16//12
o Roof_Headhouse_InsulationTaper
v 8.500000 2.850000 14.470000
v 13.100000 2.850000 14.470000
v 13.100000 2.850000 14.470000
v 8.500000 4.985000 14.470000
v 8.500000 2.850000 14.587000
v 13.100000 2.850000 14.587000
v 13.100000 2.850000 14.587000
v 8.500000 4.985000 14.495000
v 13.100000 2.850000 14.470000
v 13.100000 2.850000 14.470000
v 13.100000 7.120000 14.470000
v 13.100000 7.120000 14.470000
v 8.500000 4.985000 14.470000
v 8.500000 4.985000 14.470000
v 13.100000 2.850000 14.587000
v 13.100000 2.850000 14.587000
v 13.100000 7.120000 14.587000
v 13.100000 7.120000 14.587000
v 8.500000 4.985000 14.495000
v 8.500000 4.985000 14.495000
v 13.100000 7.120000 14.470000
v 13.100000 7.120000 14.470000
v 8.500000 7.120000 14.470000
v 8.500000 4.985000 14.470000
v 13.100000 7.120000 14.587000
v 13.100000 7.120000 14.587000
v 8.500000 7.120000 14.587000
v 8.500000 4.985000 14.495000
vn -0.0000 -0.0000 -1.0000
vn -0.0000 0.0431 0.9991
vn -0.0000 -1.0000 -0.0000
vn -0.0000 -0.0000 1.0000
vn 0.4210 0.9071 -0.0000
vn -1.0000 -0.0000 -0.0000
vn -0.0200 -0.0000 0.9998
vn 1.0000 -0.0000 -0.0000
vn -0.4210 0.9071 -0.0000
vn -0.4210 -0.9071 -0.0000
vn -0.0000 -0.0431 0.9991
vn -0.0000 1.0000 -0.0000
vn 0.4210 -0.9071 -0.0000
s 0
f 20//13 19//13 18//13 17//13
f 21//14 22//14 23//14 24//14
f 17//15 18//15 22//15 21//15
f 18//16 19//16 23//16 22//16
f 19//17 20//17 24//17 23//17
f 20//18 17//18 21//18 24//18
f 30//13 29//13 28//13 27//13 26//13 25//13
f 31//19 32//19 33//19 34//19 35//19 36//19
f 25//16 26//16 32//16 31//16
f 26//20 27//20 33//20 32//20
f 27//16 28//16 34//16 33//16
f 28//21 29//21 35//21 34//21
f 29//16 30//16 36//16 35//16
f 30//22 25//22 31//22 36//22
f 40//13 39//13 38//13 37//13
f 41//23 42//23 43//23 44//23
f 37//16 38//16 42//16 41//16
f 38//24 39//24 43//24 42//24
f 39//18 40//18 44//18 43//18
f 40//25 37//25 41//25 44//25
o Parapet-Headhouse-N
v 8.080000 2.430000 14.025000
v 13.520000 2.430000 14.025000
v 13.520000 2.678100 14.025000
v 8.080000 2.678100 14.025000
v 8.080000 2.430000 14.718000
v 13.520000 2.430000 14.718000
v 13.520000 2.678100 14.718000
v 8.080000 2.678100 14.718000
v 8.080000 2.678100 14.270000
v 13.520000 2.678100 14.270000
v 13.520000 2.850000 14.270000
v 8.080000 2.850000 14.270000
v 8.080000 2.678100 14.718000
v 13.520000 2.678100 14.718000
v 13.520000 2.850000 14.718000
v 8.080000 2.850000 14.718000
v 8.080000 2.678100 14.025000
v 8.328100 2.678100 14.025000
v 8.328100 2.850000 14.025000
v 8.080000 2.850000 14.025000
v 8.080000 2.678100 14.270000
v 8.328100 2.678100 14.270000
v 8.328100 2.850000 14.270000
v 8.080000 2.850000 14.270000
v 13.271900 2.678100 14.025000
v 13.520000 2.678100 14.025000
v 13.520000 2.850000 14.025000
v 13.271900 2.850000 14.025000
v 13.271900 2.678100 14.270000
v 13.520000 2.678100 14.270000
v 13.520000 2.850000 14.270000
v 13.271900 2.850000 14.270000
v 8.080000 2.430000 14.718000
v 13.520000 2.430000 14.718000
v 13.100000 2.850000 14.718000
v 8.500000 2.850000 14.718000
v 8.080000 2.430000 14.747000
v 13.520000 2.430000 14.747000
v 13.100000 2.850000 14.737000
v 8.500000 2.850000 14.737000
v 8.080000 2.430000 14.718000
v 8.500000 2.850000 14.718000
v 8.080000 2.850000 14.718000
v 8.080000 2.430000 14.747000
v 8.500000 2.850000 14.737000
v 8.080000 2.850000 14.747000
v 13.520000 2.430000 14.718000
v 13.520000 2.850000 14.718000
v 13.100000 2.850000 14.718000
v 13.520000 2.430000 14.747000
v 13.520000 2.850000 14.747000
v 13.100000 2.850000 14.737000
vn -0.0000 -0.0000 -1.0000
vn -0.0000 -0.0000 1.0000
vn -0.0000 -1.0000 -0.0000
vn 1.0000 -0.0000 -0.0000
vn -0.0000 1.0000 -0.0000
vn -1.0000 -0.0000 -0.0000
vn -0.0000 0.0238 0.9997
vn 0.7071 0.7071 -0.0000
vn -0.7071 0.7071 -0.0000
vn 0.0238 -0.0000 0.9997
vn 0.7071 -0.7071 -0.0000
vn -0.0238 -0.0000 0.9997
vn -0.7071 -0.7071 -0.0000
s 0
f 48//26 47//26 46//26 45//26
f 49//27 50//27 51//27 52//27
f 45//28 46//28 50//28 49//28
f 46//29 47//29 51//29 50//29
f 47//30 48//30 52//30 51//30
f 48//31 45//31 49//31 52//31
f 56//26 55//26 54//26 53//26
f 57//27 58//27 59//27 60//27
f 53//28 54//28 58//28 57//28
f 54//29 55//29 59//29 58//29
f 55//30 56//30 60//30 59//30
f 56//31 53//31 57//31 60//31
f 64//26 63//26 62//26 61//26
f 65//27 66//27 67//27 68//27
f 61//28 62//28 66//28 65//28
f 62//29 63//29 67//29 66//29
f 63//30 64//30 68//30 67//30
f 64//31 61//31 65//31 68//31
f 72//26 71//26 70//26 69//26
f 73//27 74//27 75//27 76//27
f 69//28 70//28 74//28 73//28
f 70//29 71//29 75//29 74//29
f 71//30 72//30 76//30 75//30
f 72//31 69//31 73//31 76//31
f 80//26 79//26 78//26 77//26
f 81//32 82//32 83//32 84//32
f 77//28 78//28 82//28 81//28
f 78//33 79//33 83//33 82//33
f 79//30 80//30 84//30 83//30
f 80//34 77//34 81//34 84//34
f 87//26 86//26 85//26
f 88//35 89//35 90//35
f 85//36 86//36 89//36 88//36
f 86//30 87//30 90//30 89//30
f 87//31 85//31 88//31 90//31
f 93//26 92//26 91//26
f 94//37 95//37 96//37
f 91//29 92//29 95//29 94//29
f 92//30 93//30 96//30 95//30
f 93//38 91//38 94//38 96//38
o Parapet-Headhouse-W
v 13.271900 2.850000 14.025000
v 13.520000 2.850000 14.025000
v 13.520000 7.120000 14.025000
v 13.271900 7.120000 14.025000
v 13.271900 2.850000 14.718000
v 13.520000 2.850000 14.718000
v 13.520000 7.120000 14.718000
v 13.271900 7.120000 14.718000
v 13.100000 2.850000 14.270000
v 13.271900 2.850000 14.270000
v 13.271900 7.120000 14.270000
v 13.100000 7.120000 14.270000
v 13.100000 2.850000 14.718000
v 13.271900 2.850000 14.718000
v 13.271900 7.120000 14.718000
v 13.100000 7.120000 14.718000
v 13.100000 2.850000 14.718000
v 13.520000 2.850000 14.718000
v 13.520000 7.120000 14.718000
v 13.100000 7.120000 14.718000
v 13.100000 2.850000 14.737000
v 13.520000 2.850000 14.747000
v 13.520000 7.120000 14.747000
v 13.100000 7.120000 14.737000
vn -0.0000 -0.0000 -1.0000
vn -0.0000 -0.0000 1.0000
vn -0.0000 -1.0000 -0.0000
vn 1.0000 -0.0000 -0.0000
vn -0.0000 1.0000 -0.0000
vn -1.0000 -0.0000 -0.0000
vn -0.0238 -0.0000 0.9997
s 0
f 100//39 99//39 98//39 97//39
f 101//40 102//40 103//40 104//40
f 97//41 98//41 102//41 101//41
f 98//42 99//42 103//42 102//42
f 99//43 100//43 104//43 103//43
f 100//44 97//44 101//44 104//44
f 108//39 107//39 106//39 105//39
f 109//40 110//40 111//40 112//40
f 105//41 106//41 110//41 109//41
f 106//42 107//42 111//42 110//42
f 107//43 108//43 112//43 111//43
f 108//44 105//44 109//44 112//44
f 116//39 115//39 114//39 113//39
f 117//45 118//45 119//45 120//45
f 113//41 114//41 118//41 117//41
f 114//42 115//42 119//42 118//42
f 115//43 116//43 120//43 119//43
f 116//44 113//44 117//44 120//44
o Parapet-Headhouse-S
v 8.080000 7.291900 14.025000
v 13.520000 7.291900 14.025000
v 13.520000 7.540000 14.025000
v 8.080000 7.540000 14.025000
v 8.080000 7.291900 14.718000
v 13.520000 7.291900 14.718000
v 13.520000 7.540000 14.718000
v 8.080000 7.540000 14.718000
v 8.080000 7.120000 14.270000
v 13.520000 7.120000 14.270000
v 13.520000 7.291900 14.270000
v 8.080000 7.291900 14.270000
v 8.080000 7.120000 14.718000
v 13.520000 7.120000 14.718000
v 13.520000 7.291900 14.718000
v 8.080000 7.291900 14.718000
v 13.271900 7.120000 14.025000
v 13.520000 7.120000 14.025000
v 13.520000 7.291900 14.025000
v 13.271900 7.291900 14.025000
v 13.271900 7.120000 14.270000
v 13.520000 7.120000 14.270000
v 13.520000 7.291900 14.270000
v 13.271900 7.291900 14.270000
v 8.080000 7.120000 14.025000
v 8.328100 7.120000 14.025000
v 8.328100 7.291900 14.025000
v 8.080000 7.291900 14.025000
v 8.080000 7.120000 14.270000
v 8.328100 7.120000 14.270000
v 8.328100 7.291900 14.270000
v 8.080000 7.291900 14.270000
v 8.500000 7.120000 14.718000
v 13.100000 7.120000 14.718000
v 13.520000 7.540000 14.718000
v 8.080000 7.540000 14.718000
v 8.500000 7.120000 14.737000
v 13.100000 7.120000 14.737000
v 13.520000 7.540000 14.747000
v 8.080000 7.540000 14.747000
v 13.100000 7.120000 14.718000
v 13.520000 7.120000 14.718000
v 13.520000 7.540000 14.718000
v 13.100000 7.120000 14.737000
v 13.520000 7.120000 14.747000
v 13.520000 7.540000 14.747000
v 8.080000 7.120000 14.718000
v 8.500000 7.120000 14.718000
v 8.080000 7.540000 14.718000
v 8.080000 7.120000 14.747000
v 8.500000 7.120000 14.737000
v 8.080000 7.540000 14.747000
vn -0.0000 -0.0000 -1.0000
vn -0.0000 -0.0000 1.0000
vn -0.0000 -1.0000 -0.0000
vn 1.0000 -0.0000 -0.0000
vn -0.0000 1.0000 -0.0000
vn -1.0000 -0.0000 -0.0000
vn -0.0000 -0.0238 0.9997
vn 0.7071 -0.7071 -0.0000
vn -0.7071 -0.7071 -0.0000
vn -0.0238 -0.0000 0.9997
vn -0.7071 0.7071 -0.0000
vn 0.0238 -0.0000 0.9997
vn 0.7071 0.7071 -0.0000
s 0
f 124//46 123//46 122//46 121//46
f 125//47 126//47 127//47 128//47
f 121//48 122//48 126//48 125//48
f 122//49 123//49 127//49 126//49
f 123//50 124//50 128//50 127//50
f 124//51 121//51 125//51 128//51
f 132//46 131//46 130//46 129//46
f 133//47 134//47 135//47 136//47
f 129//48 130//48 134//48 133//48
f 130//49 131//49 135//49 134//49
f 131//50 132//50 136//50 135//50
f 132//51 129//51 133//51 136//51
f 140//46 139//46 138//46 137//46
f 141//47 142//47 143//47 144//47
f 137//48 138//48 142//48 141//48
f 138//49 139//49 143//49 142//49
f 139//50 140//50 144//50 143//50
f 140//51 137//51 141//51 144//51
f 148//46 147//46 146//46 145//46
f 149//47 150//47 151//47 152//47
f 145//48 146//48 150//48 149//48
f 146//49 147//49 151//49 150//49
f 147//50 148//50 152//50 151//50
f 148//51 145//51 149//51 152//51
f 156//46 155//46 154//46 153//46
f 157//52 158//52 159//52 160//52
f 153//48 154//48 158//48 157//48
f 154//53 155//53 159//53 158//53
f 155//50 156//50 160//50 159//50
f 156//54 153//54 157//54 160//54
f 163//46 162//46 161//46
f 164//55 165//55 166//55
f 161//48 162//48 165//48 164//48
f 162//49 163//49 166//49 165//49
f 163//56 161//56 164//56 166//56
f 169//46 168//46 167//46
f 170//57 171//57 172//57
f 167//48 168//48 171//48 170//48
f 168//58 169//58 172//58 171//58
f 169//51 167//51 170//51 172//51
o Parapet-Headhouse-E
v 8.080000 2.850000 14.025000
v 8.328100 2.850000 14.025000
v 8.328100 7.120000 14.025000
v 8.080000 7.120000 14.025000
v 8.080000 2.850000 14.718000
v 8.328100 2.850000 14.718000
v 8.328100 7.120000 14.718000
v 8.080000 7.120000 14.718000
v 8.328100 2.850000 14.270000
v 8.500000 2.850000 14.270000
v 8.500000 7.120000 14.270000
v 8.328100 7.120000 14.270000
v 8.328100 2.850000 14.718000
v 8.500000 2.850000 14.718000
v 8.500000 7.120000 14.718000
v 8.328100 7.120000 14.718000
v 8.080000 2.850000 14.718000
v 8.500000 2.850000 14.718000
v 8.500000 7.120000 14.718000
v 8.080000 7.120000 14.718000
v 8.080000 2.850000 14.747000
v 8.500000 2.850000 14.737000
v 8.500000 7.120000 14.737000
v 8.080000 7.120000 14.747000
vn -0.0000 -0.0000 -1.0000
vn -0.0000 -0.0000 1.0000
vn -0.0000 -1.0000 -0.0000
vn 1.0000 -0.0000 -0.0000
vn -0.0000 1.0000 -0.0000
vn -1.0000 -0.0000 -0.0000
vn 0.0238 -0.0000 0.9997
s 0
f 176//59 175//59 174//59 173//59
f 177//60 178//60 179//60 180//60
f 173//61 174//61 178//61 177//61
f 174//62 175//62 179//62 178//62
f 175//63 176//63 180//63 179//63
f 176//64 173//64 177//64 180//64
f 184//59 183//59 182//59 181//59
f 185//60 186//60 187//60 188//60
f 181//61 182//61 186//61 185//61
f 182//62 183//62 187//62 186//62
f 183//63 184//63 188//63 187//63
f 184//64 181//64 185//64 188//64
f 192//59 191//59 190//59 189//59
f 193//65 194//65 195//65 196//65
f 189//61 190//61 194//61 193//61
f 190//62 191//62 195//62 194//62
f 191//63 192//63 196//63 195//63
f 192//64 189//64 193//64 196//64
