# Blender 4.5.10 LTS
# www.blender.org
o Parapet-Headhouse-E
v 8.080000 2.850000 14.025000
v 8.328100 2.850000 14.025000
v 8.328100 4.885000 14.025000
v 8.080000 4.885000 14.025000
v 8.080000 2.850000 14.718000
v 8.328100 2.850000 14.718000
v 8.328100 4.885000 14.718000
v 8.080000 4.885000 14.718000
v 8.080000 5.085000 14.025000
v 8.328100 5.085000 14.025000
v 8.328100 7.120000 14.025000
v 8.080000 7.120000 14.025000
v 8.080000 5.085000 14.718000
v 8.328100 5.085000 14.718000
v 8.328100 7.120000 14.718000
v 8.080000 7.120000 14.718000
v 8.080000 4.885000 14.025000
v 8.328100 4.885000 14.025000
v 8.328100 5.085000 14.025000
v 8.080000 5.085000 14.025000
v 8.080000 4.885000 14.495000
v 8.328100 4.885000 14.495000
v 8.328100 5.085000 14.495000
v 8.080000 5.085000 14.495000
v 8.080000 4.885000 14.570000
v 8.328100 4.885000 14.570000
v 8.328100 5.085000 14.570000
v 8.080000 5.085000 14.570000
v 8.080000 4.885000 14.718000
v 8.328100 4.885000 14.718000
v 8.328100 5.085000 14.718000
v 8.080000 5.085000 14.718000
v 8.328100 2.850000 14.270000
v 8.500000 2.850000 14.270000
v 8.500000 4.885000 14.270000
v 8.328100 4.885000 14.270000
v 8.328100 2.850000 14.718000
v 8.500000 2.850000 14.718000
v 8.500000 4.885000 14.718000
v 8.328100 4.885000 14.718000
v 8.328100 5.085000 14.270000
v 8.500000 5.085000 14.270000
v 8.500000 7.120000 14.270000
v 8.328100 7.120000 14.270000
v 8.328100 5.085000 14.718000
v 8.500000 5.085000 14.718000
v 8.500000 7.120000 14.718000
v 8.328100 7.120000 14.718000
v 8.328100 4.885000 14.270000
v 8.500000 4.885000 14.270000
v 8.500000 5.085000 14.270000
v 8.328100 5.085000 14.270000
v 8.328100 4.885000 14.495000
v 8.500000 4.885000 14.495000
v 8.500000 5.085000 14.495000
v 8.328100 5.085000 14.495000
v 8.328100 4.885000 14.570000
v 8.500000 4.885000 14.570000
v 8.500000 5.085000 14.570000
v 8.328100 5.085000 14.570000
v 8.328100 4.885000 14.718000
v 8.500000 4.885000 14.718000
v 8.500000 5.085000 14.718000
v 8.328100 5.085000 14.718000
v 8.080000 2.850000 14.718000
v 8.500000 2.850000 14.718000
v 8.500000 7.120000 14.718000
v 8.080000 7.120000 14.718000
v 8.080000 2.850000 14.747000
v 8.500000 2.850000 14.737000
v 8.500000 7.120000 14.737000
v 8.080000 7.120000 14.747000
vn -0.0000 -0.0000 -1.0000
vn -0.0000 -0.0000 1.0000
vn -0.0000 -1.0000 -0.0000
vn 1.0000 -0.0000 -0.0000
vn -0.0000 1.0000 -0.0000
vn -1.0000 -0.0000 -0.0000
vn 0.0238 -0.0000 0.9997
s 0
f 4//1 3//1 2//1 1//1
f 5//2 6//2 7//2 8//2
f 1//3 2//3 6//3 5//3
f 2//4 3//4 7//4 6//4
f 3//5 4//5 8//5 7//5
f 4//6 1//6 5//6 8//6
f 12//1 11//1 10//1 9//1
f 13//2 14//2 15//2 16//2
f 9//3 10//3 14//3 13//3
f 10//4 11//4 15//4 14//4
f 11//5 12//5 16//5 15//5
f 12//6 9//6 13//6 16//6
f 20//1 19//1 18//1 17//1
f 21//2 22//2 23//2 24//2
f 17//3 18//3 22//3 21//3
f 18//4 19//4 23//4 22//4
f 19//5 20//5 24//5 23//5
f 20//6 17//6 21//6 24//6
f 28//1 27//1 26//1 25//1
f 29//2 30//2 31//2 32//2
f 25//3 26//3 30//3 29//3
f 26//4 27//4 31//4 30//4
f 27//5 28//5 32//5 31//5
f 28//6 25//6 29//6 32//6
f 36//1 35//1 34//1 33//1
f 37//2 38//2 39//2 40//2
f 33//3 34//3 38//3 37//3
f 34//4 35//4 39//4 38//4
f 35//5 36//5 40//5 39//5
f 36//6 33//6 37//6 40//6
f 44//1 43//1 42//1 41//1
f 45//2 46//2 47//2 48//2
f 41//3 42//3 46//3 45//3
f 42//4 43//4 47//4 46//4
f 43//5 44//5 48//5 47//5
f 44//6 41//6 45//6 48//6
f 52//1 51//1 50//1 49//1
f 53//2 54//2 55//2 56//2
f 49//3 50//3 54//3 53//3
f 50//4 51//4 55//4 54//4
f 51//5 52//5 56//5 55//5
f 52//6 49//6 53//6 56//6
f 60//1 59//1 58//1 57//1
f 61//2 62//2 63//2 64//2
f 57//3 58//3 62//3 61//3
f 58//4 59//4 63//4 62//4
f 59//5 60//5 64//5 63//5
f 60//6 57//6 61//6 64//6
f 68//1 67//1 66//1 65//1
f 69//7 70//7 71//7 72//7
f 65//3 66//3 70//3 69//3
f 66//4 67//4 71//4 70//4
f 67//5 68//5 72//5 71//5
f 68//6 65//6 69//6 72//6
o Parapet-Headhouse-N
v 8.080000 2.430000 14.025000
v 13.520000 2.430000 14.025000
v 13.520000 2.678100 14.025000
v 8.080000 2.678100 14.025000
v 8.080000 2.430000 14.718000
v 13.520000 2.430000 14.718000
v 13.520000 2.678100 14.718000
v 8.080000 2.678100 14.718000
v 8.080000 2.678100 14.270000
v 13.520000 2.678100 14.270000
v 13.520000 2.850000 14.270000
v 8.080000 2.850000 14.270000
v 8.080000 2.678100 14.718000
v 13.520000 2.678100 14.718000
v 13.520000 2.850000 14.718000
v 8.080000 2.850000 14.718000
v 8.080000 2.678100 14.025000
v 8.328100 2.678100 14.025000
v 8.328100 2.850000 14.025000
v 8.080000 2.850000 14.025000
v 8.080000 2.678100 14.270000
v 8.328100 2.678100 14.270000
v 8.328100 2.850000 14.270000
v 8.080000 2.850000 14.270000
v 13.271900 2.678100 14.025000
v 13.520000 2.678100 14.025000
v 13.520000 2.850000 14.025000
v 13.271900 2.850000 14.025000
v 13.271900 2.678100 14.270000
v 13.520000 2.678100 14.270000
v 13.520000 2.850000 14.270000
v 13.271900 2.850000 14.270000
v 8.080000 2.430000 14.718000
v 13.520000 2.430000 14.718000
v 13.100000 2.850000 14.718000
v 8.500000 2.850000 14.718000
v 8.080000 2.430000 14.747000
v 13.520000 2.430000 14.747000
v 13.100000 2.850000 14.737000
v 8.500000 2.850000 14.737000
v 8.080000 2.430000 14.718000
v 8.500000 2.850000 14.718000
v 8.080000 2.850000 14.718000
v 8.080000 2.430000 14.747000
v 8.500000 2.850000 14.737000
v 8.080000 2.850000 14.747000
v 13.520000 2.430000 14.718000
v 13.520000 2.850000 14.718000
v 13.100000 2.850000 14.718000
v 13.520000 2.430000 14.747000
v 13.520000 2.850000 14.747000
v 13.100000 2.850000 14.737000
vn -0.0000 -0.0000 -1.0000
vn -0.0000 -0.0000 1.0000
vn -0.0000 -1.0000 -0.0000
vn 1.0000 -0.0000 -0.0000
vn -0.0000 1.0000 -0.0000
vn -1.0000 -0.0000 -0.0000
vn -0.0000 0.0238 0.9997
vn 0.7071 0.7071 -0.0000
vn -0.7071 0.7071 -0.0000
vn 0.0238 -0.0000 0.9997
vn 0.7071 -0.7071 -0.0000
vn -0.0238 -0.0000 0.9997
vn -0.7071 -0.7071 -0.0000
s 0
f 76//8 75//8 74//8 73//8
f 77//9 78//9 79//9 80//9
f 73//10 74//10 78//10 77//10
f 74//11 75//11 79//11 78//11
f 75//12 76//12 80//12 79//12
f 76//13 73//13 77//13 80//13
f 84//8 83//8 82//8 81//8
f 85//9 86//9 87//9 88//9
f 81//10 82//10 86//10 85//10
f 82//11 83//11 87//11 86//11
f 83//12 84//12 88//12 87//12
f 84//13 81//13 85//13 88//13
f 92//8 91//8 90//8 89//8
f 93//9 94//9 95//9 96//9
f 89//10 90//10 94//10 93//10
f 90//11 91//11 95//11 94//11
f 91//12 92//12 96//12 95//12
f 92//13 89//13 93//13 96//13
f 100//8 99//8 98//8 97//8
f 101//9 102//9 103//9 104//9
f 97//10 98//10 102//10 101//10
f 98//11 99//11 103//11 102//11
f 99//12 100//12 104//12 103//12
f 100//13 97//13 101//13 104//13
f 108//8 107//8 106//8 105//8
f 109//14 110//14 111//14 112//14
f 105//10 106//10 110//10 109//10
f 106//15 107//15 111//15 110//15
f 107//12 108//12 112//12 111//12
f 108//16 105//16 109//16 112//16
f 115//8 114//8 113//8
f 116//17 117//17 118//17
f 113//18 114//18 117//18 116//18
f 114//12 115//12 118//12 117//12
f 115//13 113//13 116//13 118//13
f 121//8 120//8 119//8
f 122//19 123//19 124//19
f 119//11 120//11 123//11 122//11
f 120//12 121//12 124//12 123//12
f 121//20 119//20 122//20 124//20
o Parapet-Headhouse-S
v 8.080000 7.291900 14.025000
v 13.520000 7.291900 14.025000
v 13.520000 7.540000 14.025000
v 8.080000 7.540000 14.025000
v 8.080000 7.291900 14.718000
v 13.520000 7.291900 14.718000
v 13.520000 7.540000 14.718000
v 8.080000 7.540000 14.718000
v 8.080000 7.120000 14.270000
v 13.520000 7.120000 14.270000
v 13.520000 7.291900 14.270000
v 8.080000 7.291900 14.270000
v 8.080000 7.120000 14.718000
v 13.520000 7.120000 14.718000
v 13.520000 7.291900 14.718000
v 8.080000 7.291900 14.718000
v 13.271900 7.120000 14.025000
v 13.520000 7.120000 14.025000
v 13.520000 7.291900 14.025000
v 13.271900 7.291900 14.025000
v 13.271900 7.120000 14.270000
v 13.520000 7.120000 14.270000
v 13.520000 7.291900 14.270000
v 13.271900 7.291900 14.270000
v 8.080000 7.120000 14.025000
v 8.328100 7.120000 14.025000
v 8.328100 7.291900 14.025000
v 8.080000 7.291900 14.025000
v 8.080000 7.120000 14.270000
v 8.328100 7.120000 14.270000
v 8.328100 7.291900 14.270000
v 8.080000 7.291900 14.270000
v 8.500000 7.120000 14.718000
v 13.100000 7.120000 14.718000
v 13.520000 7.540000 14.718000
v 8.080000 7.540000 14.718000
v 8.500000 7.120000 14.737000
v 13.100000 7.120000 14.737000
v 13.520000 7.540000 14.747000
v 8.080000 7.540000 14.747000
v 13.100000 7.120000 14.718000
v 13.520000 7.120000 14.718000
v 13.520000 7.540000 14.718000
v 13.100000 7.120000 14.737000
v 13.520000 7.120000 14.747000
v 13.520000 7.540000 14.747000
v 8.080000 7.120000 14.718000
v 8.500000 7.120000 14.718000
v 8.080000 7.540000 14.718000
v 8.080000 7.120000 14.747000
v 8.500000 7.120000 14.737000
v 8.080000 7.540000 14.747000
vn -0.0000 -0.0000 -1.0000
vn -0.0000 -0.0000 1.0000
vn -0.0000 -1.0000 -0.0000
vn 1.0000 -0.0000 -0.0000
vn -0.0000 1.0000 -0.0000
vn -1.0000 -0.0000 -0.0000
vn -0.0000 -0.0238 0.9997
vn 0.7071 -0.7071 -0.0000
vn -0.7071 -0.7071 -0.0000
vn -0.0238 -0.0000 0.9997
vn -0.7071 0.7071 -0.0000
vn 0.0238 -0.0000 0.9997
vn 0.7071 0.7071 -0.0000
s 0
f 128//21 127//21 126//21 125//21
f 129//22 130//22 131//22 132//22
f 125//23 126//23 130//23 129//23
f 126//24 127//24 131//24 130//24
f 127//25 128//25 132//25 131//25
f 128//26 125//26 129//26 132//26
f 136//21 135//21 134//21 133//21
f 137//22 138//22 139//22 140//22
f 133//23 134//23 138//23 137//23
f 134//24 135//24 139//24 138//24
f 135//25 136//25 140//25 139//25
f 136//26 133//26 137//26 140//26
f 144//21 143//21 142//21 141//21
f 145//22 146//22 147//22 148//22
f 141//23 142//23 146//23 145//23
f 142//24 143//24 147//24 146//24
f 143//25 144//25 148//25 147//25
f 144//26 141//26 145//26 148//26
f 152//21 151//21 150//21 149//21
f 153//22 154//22 155//22 156//22
f 149//23 150//23 154//23 153//23
f 150//24 151//24 155//24 154//24
f 151//25 152//25 156//25 155//25
f 152//26 149//26 153//26 156//26
f 160//21 159//21 158//21 157//21
f 161//27 162//27 163//27 164//27
f 157//23 158//23 162//23 161//23
f 158//28 159//28 163//28 162//28
f 159//25 160//25 164//25 163//25
f 160//29 157//29 161//29 164//29
f 167//21 166//21 165//21
f 168//30 169//30 170//30
f 165//23 166//23 169//23 168//23
f 166//24 167//24 170//24 169//24
f 167//31 165//31 168//31 170//31
f 173//21 172//21 171//21
f 174//32 175//32 176//32
f 171//23 172//23 175//23 174//23
f 172//33 173//33 176//33 175//33
f 173//26 171//26 174//26 176//26
o Parapet-Headhouse-W
v 13.271900 2.850000 14.025000
v 13.520000 2.850000 14.025000
v 13.520000 7.120000 14.025000
v 13.271900 7.120000 14.025000
v 13.271900 2.850000 14.718000
v 13.520000 2.850000 14.718000
v 13.520000 7.120000 14.718000
v 13.271900 7.120000 14.718000
v 13.100000 2.850000 14.270000
v 13.271900 2.850000 14.270000
v 13.271900 7.120000 14.270000
v 13.100000 7.120000 14.270000
v 13.100000 2.850000 14.718000
v 13.271900 2.850000 14.718000
v 13.271900 7.120000 14.718000
v 13.100000 7.120000 14.718000
v 13.100000 2.850000 14.718000
v 13.520000 2.850000 14.718000
v 13.520000 7.120000 14.718000
v 13.100000 7.120000 14.718000
v 13.100000 2.850000 14.737000
v 13.520000 2.850000 14.747000
v 13.520000 7.120000 14.747000
v 13.100000 7.120000 14.737000
vn -0.0000 -0.0000 -1.0000
vn -0.0000 -0.0000 1.0000
vn -0.0000 -1.0000 -0.0000
vn 1.0000 -0.0000 -0.0000
vn -0.0000 1.0000 -0.0000
vn -1.0000 -0.0000 -0.0000
vn -0.0238 -0.0000 0.9997
s 0
f 180//34 179//34 178//34 177//34
f 181//35 182//35 183//35 184//35
f 177//36 178//36 182//36 181//36
f 178//37 179//37 183//37 182//37
f 179//38 180//38 184//38 183//38
f 180//39 177//39 181//39 184//39
f 188//34 187//34 186//34 185//34
f 189//35 190//35 191//35 192//35
f 185//36 186//36 190//36 189//36
f 186//37 187//37 191//37 190//37
f 187//38 188//38 192//38 191//38
f 188//39 185//39 189//39 192//39
f 196//34 195//34 194//34 193//34
f 197//40 198//40 199//40 200//40
f 193//36 194//36 198//36 197//36
f 194//37 195//37 199//37 198//37
f 195//38 196//38 200//38 199//38
f 196//39 193//39 197//39 200//39
o Roof_Headhouse_CLT
v 8.328100 2.678100 14.025000
v 13.271900 2.678100 14.025000
v 13.271900 7.291900 14.025000
v 8.328100 7.291900 14.025000
v 8.328100 2.678100 14.270000
v 13.271900 2.678100 14.270000
v 13.271900 7.291900 14.270000
v 8.328100 7.291900 14.270000
vn -0.0000 -0.0000 -1.0000
vn -0.0000 -0.0000 1.0000
vn -0.0000 -1.0000 -0.0000
vn 1.0000 -0.0000 -0.0000
vn -0.0000 1.0000 -0.0000
vn -1.0000 -0.0000 -0.0000
s 0
f 204//41 203//41 202//41 201//41
f 205//42 206//42 207//42 208//42
f 201//43 202//43 206//43 205//43
f 202//44 203//44 207//44 206//44
f 203//45 204//45 208//45 207//45
f 204//46 201//46 205//46 208//46
o Roof_Headhouse_InsulationFlat
v 8.500000 2.850000 14.270000
v 13.100000 2.850000 14.270000
v 13.100000 7.120000 14.270000
v 8.500000 7.120000 14.270000
v 8.500000 2.850000 14.470000
v 13.100000 2.850000 14.470000
v 13.100000 7.120000 14.470000
v 8.500000 7.120000 14.470000
vn -0.0000 -0.0000 -1.0000
vn -0.0000 -0.0000 1.0000
vn -0.0000 -1.0000 -0.0000
vn 1.0000 -0.0000 -0.0000
vn -0.0000 1.0000 -0.0000
vn -1.0000 -0.0000 -0.0000
s 0
f 212//47 211//47 210//47 209//47
f 213//48 214//48 215//48 216//48
f 209//49 210//49 214//49 213//49
f 210//50 211//50 215//50 214//50
f 211//51 212//51 216//51 215//51
f 212//52 209//52 213//52 216//52
o Roof_Headhouse_InsulationTaper
v 8.500000 2.850000 14.470000
v 13.100000 2.850000 14.470000
v 13.100000 2.850000 14.470000
v 8.500000 4.985000 14.470000
v 8.500000 2.850000 14.587000
v 13.100000 2.850000 14.587000
v 13.100000 2.850000 14.587000
v 8.500000 4.985000 14.495000
v 13.100000 2.850000 14.470000
v 13.100000 2.850000 14.470000
v 13.100000 7.120000 14.470000
v 13.100000 7.120000 14.470000
v 8.500000 4.985000 14.470000
v 8.500000 4.985000 14.470000
v 13.100000 2.850000 14.587000
v 13.100000 2.850000 14.587000
v 13.100000 7.120000 14.587000
v 13.100000 7.120000 14.587000
v 8.500000 4.985000 14.495000
v 8.500000 4.985000 14.495000
v 13.100000 7.120000 14.470000
v 13.100000 7.120000 14.470000
v 8.500000 7.120000 14.470000
v 8.500000 4.985000 14.470000
v 13.100000 7.120000 14.587000
v 13.100000 7.120000 14.587000
v 8.500000 7.120000 14.587000
v 8.500000 4.985000 14.495000
vn -0.0000 -0.0000 -1.0000
vn -0.0000 0.0431 0.9991
vn -0.0000 -1.0000 -0.0000
vn -0.0000 -0.0000 1.0000
vn 0.4210 0.9071 -0.0000
vn -1.0000 -0.0000 -0.0000
vn -0.0200 -0.0000 0.9998
vn 1.0000 -0.0000 -0.0000
vn -0.4210 0.9071 -0.0000
vn -0.4210 -0.9071 -0.0000
vn -0.0000 -0.0431 0.9991
vn -0.0000 1.0000 -0.0000
vn 0.4210 -0.9071 -0.0000
s 0
f 220//53 219//53 218//53 217//53
f 221//54 222//54 223//54 224//54
f 217//55 218//55 222//55 221//55
f 218//56 219//56 223//56 222//56
f 219//57 220//57 224//57 223//57
f 220//58 217//58 221//58 224//58
f 230//53 229//53 228//53 227//53 226//53 225//53
f 231//59 232//59 233//59 234//59 235//59 236//59
f 225//56 226//56 232//56 231//56
f 226//60 227//60 233//60 232//60
f 227//56 228//56 234//56 233//56
f 228//61 229//61 235//61 234//61
f 229//56 230//56 236//56 235//56
f 230//62 225//62 231//62 236//62
f 240//53 239//53 238//53 237//53
f 241//63 242//63 243//63 244//63
f 237//56 238//56 242//56 241//56
f 238//64 239//64 243//64 242//64
f 239//58 240//58 244//58 243//58
f 240//65 237//65 241//65 244//65
