# Blender 4.5.10 LTS
# www.blender.org
o Headhouse-E
v 8.500000 2.850000 12.595000
v 8.500000 7.120000 12.595000
v 8.080000 7.120000 12.595000
v 8.080000 2.850000 12.595000
v 8.500000 2.850000 14.025000
v 8.500000 7.120000 14.025000
v 8.080000 7.120000 14.025000
v 8.080000 2.850000 14.025000
vn -0.0000 -0.0000 -1.0000
vn -0.0000 -0.0000 1.0000
vn 1.0000 -0.0000 -0.0000
vn -0.0000 1.0000 -0.0000
vn -1.0000 -0.0000 -0.0000
vn -0.0000 -1.0000 -0.0000
s 0
f 4//1 3//1 2//1 1//1
f 5//2 6//2 7//2 8//2
f 1//3 2//3 6//3 5//3
f 2//4 3//4 7//4 6//4
f 3//5 4//5 8//5 7//5
f 4//6 1//6 5//6 8//6
o Headhouse-W
v 13.100000 7.120000 11.195000
v 13.100000 2.850000 11.195000
v 13.520000 2.850000 11.195000
v 13.520000 7.120000 11.195000
v 13.100000 7.120000 14.025000
v 13.100000 2.850000 14.025000
v 13.520000 2.850000 14.025000
v 13.520000 7.120000 14.025000
vn -0.0000 -0.0000 -1.0000
vn -0.0000 -0.0000 1.0000
vn -1.0000 -0.0000 -0.0000
vn -0.0000 -1.0000 -0.0000
vn 1.0000 -0.0000 -0.0000
vn -0.0000 1.0000 -0.0000
s 0
f 12//7 11//7 10//7 9//7
f 13//8 14//8 15//8 16//8
f 9//9 10//9 14//9 13//9
f 10//10 11//10 15//10 14//10
f 11//11 12//11 16//11 15//11
f 12//12 9//12 13//12 16//12
o Headhouse-S
v 8.080000 7.120000 14.025000
v 8.080000 7.540000 14.025000
v 8.080000 7.540000 12.595000
v 8.080000 7.120000 12.595000
v 11.100000 7.120000 12.595000
v 11.100000 7.540000 12.595000
v 11.100000 7.540000 10.950000
v 11.100000 7.291900 10.950000
v 11.100000 7.291900 11.195000
v 11.100000 7.120000 11.195000
v 13.520000 7.120000 11.195000
v 13.520000 7.291900 11.195000
v 13.520000 7.291900 10.950000
v 13.520000 7.540000 10.950000
v 13.520000 7.540000 14.025000
v 13.520000 7.120000 14.025000
vn -1.0000 -0.0000 -0.0000
vn 1.0000 -0.0000 -0.0000
vn -0.0000 -1.0000 -0.0000
vn -0.0000 1.0000 -0.0000
vn -0.0000 -0.0000 -1.0000
vn -0.0000 -0.0000 1.0000
s 0
f 17//13 18//13 19//13 20//13
f 21//13 22//13 23//13 24//13 25//13 26//13
f 27//14 28//14 29//14 30//14 31//14 32//14
f 21//15 26//15 27//15 32//15 17//15 20//15
f 29//15 28//15 25//15 24//15
f 19//16 18//16 31//16 30//16 23//16 22//16
f 23//17 30//17 29//17 24//17
f 25//17 28//17 27//17 26//17
f 19//17 22//17 21//17 20//17
f 17//18 32//18 31//18 18//18
o Headhouse-N
v 8.080000 2.430000 14.025000
v 8.080000 2.850000 14.025000
v 8.080000 2.850000 12.595000
v 8.080000 2.678100 12.595000
v 8.080000 2.678100 12.350000
v 8.080000 2.430000 12.350000
v 8.500000 2.430000 12.350000
v 8.500000 2.678100 12.350000
v 8.500000 2.678100 12.595000
v 8.500000 2.850000 12.595000
v 8.500000 2.850000 11.195000
v 8.500000 2.430000 11.195000
v 13.520000 2.430000 11.195000
v 13.520000 2.850000 11.195000
v 13.520000 2.850000 14.025000
v 13.520000 2.430000 14.025000
vn -1.0000 -0.0000 -0.0000
vn 1.0000 -0.0000 -0.0000
vn -0.0000 -1.0000 -0.0000
vn -0.0000 1.0000 -0.0000
vn -0.0000 -0.0000 -1.0000
vn -0.0000 -0.0000 1.0000
s 0
f 33//19 34//19 35//19 36//19 37//19 38//19
f 39//19 40//19 41//19 42//19 43//19 44//19
f 45//20 46//20 47//20 48//20
f 39//21 44//21 45//21 48//21 33//21 38//21
f 37//22 36//22 41//22 40//22
f 35//22 34//22 47//22 46//22 43//22 42//22
f 43//23 46//23 45//23 44//23
f 37//23 40//23 39//23 38//23
f 35//23 42//23 41//23 36//23
f 33//24 48//24 47//24 34//24
o Roof_Headhouse_CLT
v 8.328100 2.678100 14.025000
v 13.271900 2.678100 14.025000
v 13.271900 7.291900 14.025000
v 8.328100 7.291900 14.025000
v 8.328100 2.678100 14.270000
v 13.271900 2.678100 14.270000
v 13.271900 7.291900 14.270000
v 8.328100 7.291900 14.270000
vn -0.0000 -0.0000 -1.0000
vn -0.0000 -0.0000 1.0000
vn -0.0000 -1.0000 -0.0000
vn 1.0000 -0.0000 -0.0000
vn -0.0000 1.0000 -0.0000
vn -1.0000 -0.0000 -0.0000
s 0
f 52//25 51//25 50//25 49//25
f 53//26 54//26 55//26 56//26
f 49//27 50//27 54//27 53//27
f 50//28 51//28 55//28 54//28
f 51//29 52//29 56//29 55//29
f 52//30 49//30 53//30 56//30
o Roof_Headhouse_InsulationFlat
v 8.500000 2.850000 14.270000
v 13.100000 2.850000 14.270000
v 13.100000 7.120000 14.270000
v 8.500000 7.120000 14.270000
v 8.500000 2.850000 14.470000
v 13.100000 2.850000 14.470000
v 13.100000 7.120000 14.470000
v 8.500000 7.120000 14.470000
vn -0.0000 -0.0000 -1.0000
vn -0.0000 -0.0000 1.0000
vn -0.0000 -1.0000 -0.0000
vn 1.0000 -0.0000 -0.0000
vn -0.0000 1.0000 -0.0000
vn -1.0000 -0.0000 -0.0000
s 0
f 60//31 59//31 58//31 57//31
f 61//32 62//32 63//32 64//32
f 57//33 58//33 62//33 61//33
f 58//34 59//34 63//34 62//34
f 59//35 60//35 64//35 63//35
f 60//36 57//36 61//36 64//36
o Roof_Headhouse_InsulationTaper
v 8.500000 2.850000 14.470000
v 13.100000 2.850000 14.470000
v 13.100000 2.850000 14.470000
v 8.500000 4.985000 14.470000
v 8.500000 2.850000 14.587000
v 13.100000 2.850000 14.587000
v 13.100000 2.850000 14.587000
v 8.500000 4.985000 14.495000
v 13.100000 2.850000 14.470000
v 13.100000 2.850000 14.470000
v 13.100000 7.120000 14.470000
v 13.100000 7.120000 14.470000
v 8.500000 4.985000 14.470000
v 8.500000 4.985000 14.470000
v 13.100000 2.850000 14.587000
v 13.100000 2.850000 14.587000
v 13.100000 7.120000 14.587000
v 13.100000 7.120000 14.587000
v 8.500000 4.985000 14.495000
v 8.500000 4.985000 14.495000
v 13.100000 7.120000 14.470000
v 13.100000 7.120000 14.470000
v 8.500000 7.120000 14.470000
v 8.500000 4.985000 14.470000
v 13.100000 7.120000 14.587000
v 13.100000 7.120000 14.587000
v 8.500000 7.120000 14.587000
v 8.500000 4.985000 14.495000
vn -0.0000 -0.0000 -1.0000
vn -0.0000 0.0431 0.9991
vn -0.0000 -1.0000 -0.0000
vn -0.0000 -0.0000 1.0000
vn 0.4210 0.9071 -0.0000
vn -1.0000 -0.0000 -0.0000
vn -0.0200 -0.0000 0.9998
vn 1.0000 -0.0000 -0.0000
vn -0.4210 0.9071 -0.0000
vn -0.4210 -0.9071 -0.0000
vn -0.0000 -0.0431 0.9991
vn -0.0000 1.0000 -0.0000
vn 0.4210 -0.9071 -0.0000
s 0
f 68//37 67//37 66//37 65//37
f 69//38 70//38 71//38 72//38
f 65//39 66//39 70//39 69//39
f 66//40 67//40 71//40 70//40
f 67//41 68//41 72//41 71//41
f 68//42 65//42 69//42 72//42
f 78//37 77//37 76//37 75//37 74//37 73//37
f 79//43 80//43 81//43 82//43 83//43 84//43
f 73//40 74//40 80//40 79//40
f 74//44 75//44 81//44 80//44
f 75//40 76//40 82//40 81//40
f 76//45 77//45 83//45 82//45
f 77//40 78//40 84//40 83//40
f 78//46 73//46 79//46 84//46
f 88//37 87//37 86//37 85//37
f 89//47 90//47 91//47 92//47
f 85//40 86//40 90//40 89//40
f 86//48 87//48 91//48 90//48
f 87//42 88//42 92//42 91//42
f 88//49 85//49 89//49 92//49
o CapPlate-Headhouse-N
v 8.080000 2.430000 14.718000
v 13.520000 2.430000 14.718000
v 13.100000 2.850000 14.718000
v 8.500000 2.850000 14.718000
v 8.080000 2.430000 14.747000
v 13.520000 2.430000 14.747000
v 13.100000 2.850000 14.737000
v 8.500000 2.850000 14.737000
vn -0.0000 -0.0000 -1.0000
vn -0.0000 0.0238 0.9997
vn -0.0000 -1.0000 -0.0000
vn 0.7071 0.7071 -0.0000
vn -0.0000 1.0000 -0.0000
vn -0.7071 0.7071 -0.0000
s 0
f 96//50 95//50 94//50 93//50
f 97//51 98//51 99//51 100//51
f 93//52 94//52 98//52 97//52
f 94//53 95//53 99//53 98//53
f 95//54 96//54 100//54 99//54
f 96//55 93//55 97//55 100//55
o CapPlate-Headhouse-W
v 13.100000 7.120000 14.718000
v 13.100000 2.850000 14.718000
v 13.520000 2.430000 14.718000
v 13.520000 7.540000 14.718000
v 13.100000 7.120000 14.737000
v 13.100000 2.850000 14.737000
v 13.520000 2.430000 14.747000
v 13.520000 7.540000 14.747000
vn -0.0000 -0.0000 -1.0000
vn -0.0238 -0.0000 0.9997
vn -1.0000 -0.0000 -0.0000
vn -0.7071 -0.7071 -0.0000
vn 1.0000 -0.0000 -0.0000
vn -0.7071 0.7071 -0.0000
s 0
f 104//56 103//56 102//56 101//56
f 105//57 106//57 107//57 108//57
f 101//58 102//58 106//58 105//58
f 102//59 103//59 107//59 106//59
f 103//60 104//60 108//60 107//60
f 104//61 101//61 105//61 108//61
o CapPlate-Headhouse-S
v 8.500000 7.120000 14.718000
v 13.100000 7.120000 14.718000
v 13.520000 7.540000 14.718000
v 8.080000 7.540000 14.718000
v 8.500000 7.120000 14.737000
v 13.100000 7.120000 14.737000
v 13.520000 7.540000 14.747000
v 8.080000 7.540000 14.747000
vn -0.0000 -0.0000 -1.0000
vn -0.0000 -0.0238 0.9997
vn -0.0000 -1.0000 -0.0000
vn 0.7071 -0.7071 -0.0000
vn -0.0000 1.0000 -0.0000
vn -0.7071 -0.7071 -0.0000
s 0
f 112//62 111//62 110//62 109//62
f 113//63 114//63 115//63 116//63
f 109//64 110//64 114//64 113//64
f 110//65 111//65 115//65 114//65
f 111//66 112//66 116//66 115//66
f 112//67 109//67 113//67 116//67
o CapPlate-Headhouse-E
v 8.500000 2.850000 14.718000
v 8.500000 4.785000 14.718000
v 8.080000 4.785000 14.718000
v 8.080000 2.430000 14.718000
v 8.500000 2.850000 14.737000
v 8.500000 4.785000 14.737000
v 8.080000 4.785000 14.747000
v 8.080000 2.430000 14.747000
vn -0.0000 -0.0000 -1.0000
vn 0.0238 -0.0000 0.9997
vn 1.0000 -0.0000 -0.0000
vn -0.0000 1.0000 -0.0000
vn -1.0000 -0.0000 -0.0000
vn 0.7071 -0.7071 -0.0000
s 0
f 120//68 119//68 118//68 117//68
f 121//69 122//69 123//69 124//69
f 117//70 118//70 122//70 121//70
f 118//71 119//71 123//71 122//71
f 119//72 120//72 124//72 123//72
f 120//73 117//73 121//73 124//73
o CapPlate-Headhouse-E2
v 8.080000 5.185000 14.718000
v 8.500000 5.185000 14.718000
v 8.500000 7.120000 14.718000
v 8.080000 7.540000 14.718000
v 8.080000 5.185000 14.747000
v 8.500000 5.185000 14.737000
v 8.500000 7.120000 14.737000
v 8.080000 7.540000 14.747000
vn -0.0000 -0.0000 -1.0000
vn 0.0238 -0.0000 0.9997
vn -0.0000 -1.0000 -0.0000
vn 1.0000 -0.0000 -0.0000
vn 0.7071 0.7071 -0.0000
vn -1.0000 -0.0000 -0.0000
s 0
f 128//74 127//74 126//74 125//74
f 129//75 130//75 131//75 132//75
f 125//76 126//76 130//76 129//76
f 126//77 127//77 131//77 130//77
f 127//78 128//78 132//78 131//78
f 128//79 125//79 129//79 132//79
o Parapet-Headhouse-N
v 8.080000 2.430000 14.718000
v 8.080000 2.850000 14.718000
v 8.080000 2.850000 14.025000
v 8.080000 2.430000 14.025000
v 13.271900 2.678100 14.270000
v 13.271900 2.850000 14.270000
v 13.271900 2.850000 14.025000
v 13.271900 2.678100 14.025000
v 8.328100 2.678100 14.025000
v 8.328100 2.850000 14.025000
v 8.328100 2.850000 14.270000
v 8.328100 2.678100 14.270000
v 13.520000 2.430000 14.025000
v 13.520000 2.850000 14.025000
v 13.520000 2.850000 14.718000
v 13.520000 2.430000 14.718000
vn -1.0000 -0.0000 -0.0000
vn 1.0000 -0.0000 -0.0000
vn -0.0000 -1.0000 -0.0000
vn -0.0000 1.0000 -0.0000
vn -0.0000 -0.0000 -1.0000
vn -0.0000 -0.0000 1.0000
s 0
f 133//80 134//80 135//80 136//80
f 137//80 138//80 139//80 140//80
f 141//81 142//81 143//81 144//81
f 145//81 146//81 147//81 148//81
f 145//82 148//82 133//82 136//82
f 141//83 144//83 137//83 140//83
f 135//83 134//83 147//83 146//83 139//83 138//83 143//83 142//83
f 135//84 142//84 141//84 140//84 139//84 146//84 145//84 136//84
f 143//84 138//84 137//84 144//84
f 133//85 148//85 147//85 134//85
o Parapet-Headhouse-W
v 13.100000 2.850000 14.718000
v 13.100000 7.120000 14.718000
v 13.100000 7.120000 14.270000
v 13.100000 2.850000 14.270000
v 13.271900 2.850000 14.270000
v 13.271900 7.120000 14.270000
v 13.271900 7.120000 14.025000
v 13.271900 2.850000 14.025000
v 13.520000 2.850000 14.025000
v 13.520000 7.120000 14.025000
v 13.520000 7.120000 14.718000
v 13.520000 2.850000 14.718000
vn -1.0000 -0.0000 -0.0000
vn 1.0000 -0.0000 -0.0000
vn -0.0000 -1.0000 -0.0000
vn -0.0000 1.0000 -0.0000
vn -0.0000 -0.0000 -1.0000
vn -0.0000 -0.0000 1.0000
s 0
f 149//86 150//86 151//86 152//86
f 153//86 154//86 155//86 156//86
f 157//87 158//87 159//87 160//87
f 153//88 156//88 157//88 160//88 149//88 152//88
f 151//89 150//89 159//89 158//89 155//89 154//89
f 155//90 158//90 157//90 156//90
f 151//90 154//90 153//90 152//90
f 149//91 160//91 159//91 150//91
o Parapet-Headhouse-S
v 8.080000 7.120000 14.718000
v 8.080000 7.540000 14.718000
v 8.080000 7.540000 14.025000
v 8.080000 7.120000 14.025000
v 13.271900 7.120000 14.270000
v 13.271900 7.291900 14.270000
v 13.271900 7.291900 14.025000
v 13.271900 7.120000 14.025000
v 8.328100 7.120000 14.025000
v 8.328100 7.291900 14.025000
v 8.328100 7.291900 14.270000
v 8.328100 7.120000 14.270000
v 13.520000 7.120000 14.025000
v 13.520000 7.540000 14.025000
v 13.520000 7.540000 14.718000
v 13.520000 7.120000 14.718000
vn -1.0000 -0.0000 -0.0000
vn 1.0000 -0.0000 -0.0000
vn -0.0000 -1.0000 -0.0000
vn -0.0000 1.0000 -0.0000
vn -0.0000 -0.0000 -1.0000
vn -0.0000 -0.0000 1.0000
s 0
f 161//92 162//92 163//92 164//92
f 165//92 166//92 167//92 168//92
f 169//93 170//93 171//93 172//93
f 173//93 174//93 175//93 176//93
f 169//94 172//94 165//94 168//94 173//94 176//94 161//94 164//94
f 167//94 166//94 171//94 170//94
f 163//95 162//95 175//95 174//95
f 163//96 174//96 173//96 168//96 167//96 170//96 169//96 164//96
f 171//96 166//96 165//96 172//96
f 161//97 176//97 175//97 162//97
o Parapet-Headhouse-E
v 8.080000 2.850000 14.718000
v 8.080000 4.785000 14.718000
v 8.080000 4.785000 14.495000
v 8.080000 5.185000 14.495000
v 8.080000 5.185000 14.718000
v 8.080000 7.120000 14.718000
v 8.080000 7.120000 14.025000
v 8.080000 2.850000 14.025000
v 8.328100 2.850000 14.025000
v 8.328100 7.120000 14.025000
v 8.328100 7.120000 14.270000
v 8.328100 2.850000 14.270000
v 8.500000 2.850000 14.270000
v 8.500000 7.120000 14.270000
v 8.500000 7.120000 14.718000
v 8.500000 5.185000 14.718000
v 8.500000 5.185000 14.495000
v 8.500000 4.785000 14.495000
v 8.500000 4.785000 14.718000
v 8.500000 2.850000 14.718000
vn -1.0000 -0.0000 -0.0000
vn 1.0000 -0.0000 -0.0000
vn -0.0000 -1.0000 -0.0000
vn -0.0000 1.0000 -0.0000
vn -0.0000 -0.0000 -1.0000
vn -0.0000 -0.0000 1.0000
s 0
f 177//98 178//98 179//98 180//98 181//98 182//98 183//98 184//98
f 185//99 186//99 187//99 188//99
f 189//99 190//99 191//99 192//99 193//99 194//99 195//99 196//99
f 185//100 188//100 189//100 196//100 177//100 184//100
f 193//100 192//100 181//100 180//100
f 179//101 178//101 195//101 194//101
f 183//101 182//101 191//101 190//101 187//101 186//101
f 183//102 186//102 185//102 184//102
f 187//102 190//102 189//102 188//102
f 179//103 194//103 193//103 180//103
f 177//103 196//103 195//103 178//103
f 181//103 192//103 191//103 182//103
