# Blender 4.5.10 LTS
# www.blender.org
o Headhouse-E
v 8.500000 2.850000 12.595000
v 8.500000 7.120000 12.595000
v 8.080000 7.120000 12.595000
v 8.080000 2.850000 12.595000
v 8.500000 2.850000 14.025000
v 8.500000 7.120000 14.025000
v 8.080000 7.120000 14.025000
v 8.080000 2.850000 14.025000
vn -0.0000 -0.0000 -1.0000
vn -0.0000 -0.0000 1.0000
vn 1.0000 -0.0000 -0.0000
vn -0.0000 1.0000 -0.0000
vn -1.0000 -0.0000 -0.0000
vn -0.0000 -1.0000 -0.0000
s 0
f 4//1 3//1 2//1 1//1
f 5//2 6//2 7//2 8//2
f 1//3 2//3 6//3 5//3
f 2//4 3//4 7//4 6//4
f 3//5 4//5 8//5 7//5
f 4//6 1//6 5//6 8//6
o Headhouse-N
v 13.520000 2.850000 11.195000
v 8.500000 2.850000 11.195000
v 8.500000 2.430000 11.195000
v 13.520000 2.430000 11.195000
v 13.520000 2.850000 14.025000
v 8.500000 2.850000 14.025000
v 8.500000 2.430000 14.025000
v 13.520000 2.430000 14.025000
vn -0.0000 -0.0000 -1.0000
vn -0.0000 -0.0000 1.0000
vn -0.0000 1.0000 -0.0000
vn -1.0000 -0.0000 -0.0000
vn -0.0000 -1.0000 -0.0000
vn 1.0000 -0.0000 -0.0000
s 0
f 12//7 11//7 10//7 9//7
f 13//8 14//8 15//8 16//8
f 9//9 10//9 14//9 13//9
f 10//10 11//10 15//10 14//10
f 11//11 12//11 16//11 15//11
f 12//12 9//12 13//12 16//12
o Headhouse-N-Tail
v 8.080000 2.430000 12.350000
v 8.500000 2.430000 12.350000
v 8.500000 2.678100 12.350000
v 8.080000 2.678100 12.350000
v 8.080000 2.430000 14.025000
v 8.500000 2.430000 14.025000
v 8.500000 2.678100 14.025000
v 8.080000 2.678100 14.025000
v 8.080000 2.678100 12.595000
v 8.500000 2.678100 12.595000
v 8.500000 2.850000 12.595000
v 8.080000 2.850000 12.595000
v 8.080000 2.678100 14.025000
v 8.500000 2.678100 14.025000
v 8.500000 2.850000 14.025000
v 8.080000 2.850000 14.025000
vn -0.0000 -0.0000 -1.0000
vn -0.0000 -0.0000 1.0000
vn -0.0000 -1.0000 -0.0000
vn 1.0000 -0.0000 -0.0000
vn -0.0000 1.0000 -0.0000
vn -1.0000 -0.0000 -0.0000
s 0
f 20//13 19//13 18//13 17//13
f 21//14 22//14 23//14 24//14
f 17//15 18//15 22//15 21//15
f 18//16 19//16 23//16 22//16
f 19//17 20//17 24//17 23//17
f 20//18 17//18 21//18 24//18
f 28//13 27//13 26//13 25//13
f 29//14 30//14 31//14 32//14
f 25//15 26//15 30//15 29//15
f 26//16 27//16 31//16 30//16
f 27//17 28//17 32//17 31//17
f 28//18 25//18 29//18 32//18
o Headhouse-S
v 11.100000 7.540000 12.595000
v 8.080000 7.540000 12.595000
v 8.080000 7.120000 12.595000
v 11.100000 7.120000 12.595000
v 11.100000 7.540000 14.025000
v 8.080000 7.540000 14.025000
v 8.080000 7.120000 14.025000
v 11.100000 7.120000 14.025000
vn -0.0000 -0.0000 -1.0000
vn -0.0000 -0.0000 1.0000
vn -0.0000 1.0000 -0.0000
vn -1.0000 -0.0000 -0.0000
vn -0.0000 -1.0000 -0.0000
vn 1.0000 -0.0000 -0.0000
s 0
f 36//19 35//19 34//19 33//19
f 37//20 38//20 39//20 40//20
f 33//21 34//21 38//21 37//21
f 34//22 35//22 39//22 38//22
f 35//23 36//23 40//23 39//23
f 36//24 33//24 37//24 40//24
o Headhouse-S-Tail
v 11.100000 7.291900 10.950000
v 13.520000 7.291900 10.950000
v 13.520000 7.540000 10.950000
v 11.100000 7.540000 10.950000
v 11.100000 7.291900 14.025000
v 13.520000 7.291900 14.025000
v 13.520000 7.540000 14.025000
v 11.100000 7.540000 14.025000
v 11.100000 7.120000 11.195000
v 13.520000 7.120000 11.195000
v 13.520000 7.291900 11.195000
v 11.100000 7.291900 11.195000
v 11.100000 7.120000 14.025000
v 13.520000 7.120000 14.025000
v 13.520000 7.291900 14.025000
v 11.100000 7.291900 14.025000
vn -0.0000 -0.0000 -1.0000
vn -0.0000 -0.0000 1.0000
vn -0.0000 -1.0000 -0.0000
vn 1.0000 -0.0000 -0.0000
vn -0.0000 1.0000 -0.0000
vn -1.0000 -0.0000 -0.0000
s 0
f 44//25 43//25 42//25 41//25
f 45//26 46//26 47//26 48//26
f 41//27 42//27 46//27 45//27
f 42//28 43//28 47//28 46//28
f 43//29 44//29 48//29 47//29
f 44//30 41//30 45//30 48//30
f 52//25 51//25 50//25 49//25
f 53//26 54//26 55//26 56//26
f 49//27 50//27 54//27 53//27
f 50//28 51//28 55//28 54//28
f 51//29 52//29 56//29 55//29
f 52//30 49//30 53//30 56//30
o Headhouse-W
v 13.100000 7.120000 11.195000
v 13.100000 2.850000 11.195000
v 13.520000 2.850000 11.195000
v 13.520000 7.120000 11.195000
v 13.100000 7.120000 14.025000
v 13.100000 2.850000 14.025000
v 13.520000 2.850000 14.025000
v 13.520000 7.120000 14.025000
vn -0.0000 -0.0000 -1.0000
vn -0.0000 -0.0000 1.0000
vn -1.0000 -0.0000 -0.0000
vn -0.0000 -1.0000 -0.0000
vn 1.0000 -0.0000 -0.0000
vn -0.0000 1.0000 -0.0000
s 0
f 60//31 59//31 58//31 57//31
f 61//32 62//32 63//32 64//32
f 57//33 58//33 62//33 61//33
f 58//34 59//34 63//34 62//34
f 59//35 60//35 64//35 63//35
f 60//36 57//36 61//36 64//36
o Parapet-Headhouse-E
v 8.080000 2.850000 14.025000
v 8.328100 2.850000 14.025000
v 8.328100 4.885000 14.025000
v 8.080000 4.885000 14.025000
v 8.080000 2.850000 14.718000
v 8.328100 2.850000 14.718000
v 8.328100 4.885000 14.718000
v 8.080000 4.885000 14.718000
v 8.080000 5.085000 14.025000
v 8.328100 5.085000 14.025000
v 8.328100 7.120000 14.025000
v 8.080000 7.120000 14.025000
v 8.080000 5.085000 14.718000
v 8.328100 5.085000 14.718000
v 8.328100 7.120000 14.718000
v 8.080000 7.120000 14.718000
v 8.080000 4.885000 14.025000
v 8.328100 4.885000 14.025000
v 8.328100 5.085000 14.025000
v 8.080000 5.085000 14.025000
v 8.080000 4.885000 14.495000
v 8.328100 4.885000 14.495000
v 8.328100 5.085000 14.495000
v 8.080000 5.085000 14.495000
v 8.080000 4.885000 14.570000
v 8.328100 4.885000 14.570000
v 8.328100 5.085000 14.570000
v 8.080000 5.085000 14.570000
v 8.080000 4.885000 14.718000
v 8.328100 4.885000 14.718000
v 8.328100 5.085000 14.718000
v 8.080000 5.085000 14.718000
v 8.328100 2.850000 14.270000
v 8.500000 2.850000 14.270000
v 8.500000 4.885000 14.270000
v 8.328100 4.885000 14.270000
v 8.328100 2.850000 14.718000
v 8.500000 2.850000 14.718000
v 8.500000 4.885000 14.718000
v 8.328100 4.885000 14.718000
v 8.328100 5.085000 14.270000
v 8.500000 5.085000 14.270000
v 8.500000 7.120000 14.270000
v 8.328100 7.120000 14.270000
v 8.328100 5.085000 14.718000
v 8.500000 5.085000 14.718000
v 8.500000 7.120000 14.718000
v 8.328100 7.120000 14.718000
v 8.328100 4.885000 14.270000
v 8.500000 4.885000 14.270000
v 8.500000 5.085000 14.270000
v 8.328100 5.085000 14.270000
v 8.328100 4.885000 14.495000
v 8.500000 4.885000 14.495000
v 8.500000 5.085000 14.495000
v 8.328100 5.085000 14.495000
v 8.328100 4.885000 14.570000
v 8.500000 4.885000 14.570000
v 8.500000 5.085000 14.570000
v 8.328100 5.085000 14.570000
v 8.328100 4.885000 14.718000
v 8.500000 4.885000 14.718000
v 8.500000 5.085000 14.718000
v 8.328100 5.085000 14.718000
v 8.080000 2.850000 14.718000
v 8.500000 2.850000 14.718000
v 8.500000 7.120000 14.718000
v 8.080000 7.120000 14.718000
v 8.080000 2.850000 14.747000
v 8.500000 2.850000 14.737000
v 8.500000 7.120000 14.737000
v 8.080000 7.120000 14.747000
vn -0.0000 -0.0000 -1.0000
vn -0.0000 -0.0000 1.0000
vn -0.0000 -1.0000 -0.0000
vn 1.0000 -0.0000 -0.0000
vn -0.0000 1.0000 -0.0000
vn -1.0000 -0.0000 -0.0000
vn 0.0238 -0.0000 0.9997
s 0
f 68//37 67//37 66//37 65//37
f 69//38 70//38 71//38 72//38
f 65//39 66//39 70//39 69//39
f 66//40 67//40 71//40 70//40
f 67//41 68//41 72//41 71//41
f 68//42 65//42 69//42 72//42
f 76//37 75//37 74//37 73//37
f 77//38 78//38 79//38 80//38
f 73//39 74//39 78//39 77//39
f 74//40 75//40 79//40 78//40
f 75//41 76//41 80//41 79//41
f 76//42 73//42 77//42 80//42
f 84//37 83//37 82//37 81//37
f 85//38 86//38 87//38 88//38
f 81//39 82//39 86//39 85//39
f 82//40 83//40 87//40 86//40
f 83//41 84//41 88//41 87//41
f 84//42 81//42 85//42 88//42
f 92//37 91//37 90//37 89//37
f 93//38 94//38 95//38 96//38
f 89//39 90//39 94//39 93//39
f 90//40 91//40 95//40 94//40
f 91//41 92//41 96//41 95//41
f 92//42 89//42 93//42 96//42
f 100//37 99//37 98//37 97//37
f 101//38 102//38 103//38 104//38
f 97//39 98//39 102//39 101//39
f 98//40 99//40 103//40 102//40
f 99//41 100//41 104//41 103//41
f 100//42 97//42 101//42 104//42
f 108//37 107//37 106//37 105//37
f 109//38 110//38 111//38 112//38
f 105//39 106//39 110//39 109//39
f 106//40 107//40 111//40 110//40
f 107//41 108//41 112//41 111//41
f 108//42 105//42 109//42 112//42
f 116//37 115//37 114//37 113//37
f 117//38 118//38 119//38 120//38
f 113//39 114//39 118//39 117//39
f 114//40 115//40 119//40 118//40
f 115//41 116//41 120//41 119//41
f 116//42 113//42 117//42 120//42
f 124//37 123//37 122//37 121//37
f 125//38 126//38 127//38 128//38
f 121//39 122//39 126//39 125//39
f 122//40 123//40 127//40 126//40
f 123//41 124//41 128//41 127//41
f 124//42 121//42 125//42 128//42
f 132//37 131//37 130//37 129//37
f 133//43 134//43 135//43 136//43
f 129//39 130//39 134//39 133//39
f 130//40 131//40 135//40 134//40
f 131//41 132//41 136//41 135//41
f 132//42 129//42 133//42 136//42
o Parapet-Headhouse-N
v 8.080000 2.430000 14.025000
v 13.520000 2.430000 14.025000
v 13.520000 2.678100 14.025000
v 8.080000 2.678100 14.025000
v 8.080000 2.430000 14.718000
v 13.520000 2.430000 14.718000
v 13.520000 2.678100 14.718000
v 8.080000 2.678100 14.718000
v 8.080000 2.678100 14.270000
v 13.520000 2.678100 14.270000
v 13.520000 2.850000 14.270000
v 8.080000 2.850000 14.270000
v 8.080000 2.678100 14.718000
v 13.520000 2.678100 14.718000
v 13.520000 2.850000 14.718000
v 8.080000 2.850000 14.718000
v 8.080000 2.678100 14.025000
v 8.328100 2.678100 14.025000
v 8.328100 2.850000 14.025000
v 8.080000 2.850000 14.025000
v 8.080000 2.678100 14.270000
v 8.328100 2.678100 14.270000
v 8.328100 2.850000 14.270000
v 8.080000 2.850000 14.270000
v 13.271900 2.678100 14.025000
v 13.520000 2.678100 14.025000
v 13.520000 2.850000 14.025000
v 13.271900 2.850000 14.025000
v 13.271900 2.678100 14.270000
v 13.520000 2.678100 14.270000
v 13.520000 2.850000 14.270000
v 13.271900 2.850000 14.270000
v 8.080000 2.430000 14.718000
v 13.520000 2.430000 14.718000
v 13.100000 2.850000 14.718000
v 8.500000 2.850000 14.718000
v 8.080000 2.430000 14.747000
v 13.520000 2.430000 14.747000
v 13.100000 2.850000 14.737000
v 8.500000 2.850000 14.737000
v 8.080000 2.430000 14.718000
v 8.500000 2.850000 14.718000
v 8.080000 2.850000 14.718000
v 8.080000 2.430000 14.747000
v 8.500000 2.850000 14.737000
v 8.080000 2.850000 14.747000
v 13.520000 2.430000 14.718000
v 13.520000 2.850000 14.718000
v 13.100000 2.850000 14.718000
v 13.520000 2.430000 14.747000
v 13.520000 2.850000 14.747000
v 13.100000 2.850000 14.737000
vn -0.0000 -0.0000 -1.0000
vn -0.0000 -0.0000 1.0000
vn -0.0000 -1.0000 -0.0000
vn 1.0000 -0.0000 -0.0000
vn -0.0000 1.0000 -0.0000
vn -1.0000 -0.0000 -0.0000
vn -0.0000 0.0238 0.9997
vn 0.7071 0.7071 -0.0000
vn -0.7071 0.7071 -0.0000
vn 0.0238 -0.0000 0.9997
vn 0.7071 -0.7071 -0.0000
vn -0.0238 -0.0000 0.9997
vn -0.7071 -0.7071 -0.0000
s 0
f 140//44 139//44 138//44 137//44
f 141//45 142//45 143//45 144//45
f 137//46 138//46 142//46 141//46
f 138//47 139//47 143//47 142//47
f 139//48 140//48 144//48 143//48
f 140//49 137//49 141//49 144//49
f 148//44 147//44 146//44 145//44
f 149//45 150//45 151//45 152//45
f 145//46 146//46 150//46 149//46
f 146//47 147//47 151//47 150//47
f 147//48 148//48 152//48 151//48
f 148//49 145//49 149//49 152//49
f 156//44 155//44 154//44 153//44
f 157//45 158//45 159//45 160//45
f 153//46 154//46 158//46 157//46
f 154//47 155//47 159//47 158//47
f 155//48 156//48 160//48 159//48
f 156//49 153//49 157//49 160//49
f 164//44 163//44 162//44 161//44
f 165//45 166//45 167//45 168//45
f 161//46 162//46 166//46 165//46
f 162//47 163//47 167//47 166//47
f 163//48 164//48 168//48 167//48
f 164//49 161//49 165//49 168//49
f 172//44 171//44 170//44 169//44
f 173//50 174//50 175//50 176//50
f 169//46 170//46 174//46 173//46
f 170//51 171//51 175//51 174//51
f 171//48 172//48 176//48 175//48
f 172//52 169//52 173//52 176//52
f 179//44 178//44 177//44
f 180//53 181//53 182//53
f 177//54 178//54 181//54 180//54
f 178//48 179//48 182//48 181//48
f 179//49 177//49 180//49 182//49
f 185//44 184//44 183//44
f 186//55 187//55 188//55
f 183//47 184//47 187//47 186//47
f 184//48 185//48 188//48 187//48
f 185//56 183//56 186//56 188//56
o Parapet-Headhouse-S
v 8.080000 7.291900 14.025000
v 13.520000 7.291900 14.025000
v 13.520000 7.540000 14.025000
v 8.080000 7.540000 14.025000
v 8.080000 7.291900 14.718000
v 13.520000 7.291900 14.718000
v 13.520000 7.540000 14.718000
v 8.080000 7.540000 14.718000
v 8.080000 7.120000 14.270000
v 13.520000 7.120000 14.270000
v 13.520000 7.291900 14.270000
v 8.080000 7.291900 14.270000
v 8.080000 7.120000 14.718000
v 13.520000 7.120000 14.718000
v 13.520000 7.291900 14.718000
v 8.080000 7.291900 14.718000
v 13.271900 7.120000 14.025000
v 13.520000 7.120000 14.025000
v 13.520000 7.291900 14.025000
v 13.271900 7.291900 14.025000
v 13.271900 7.120000 14.270000
v 13.520000 7.120000 14.270000
v 13.520000 7.291900 14.270000
v 13.271900 7.291900 14.270000
v 8.080000 7.120000 14.025000
v 8.328100 7.120000 14.025000
v 8.328100 7.291900 14.025000
v 8.080000 7.291900 14.025000
v 8.080000 7.120000 14.270000
v 8.328100 7.120000 14.270000
v 8.328100 7.291900 14.270000
v 8.080000 7.291900 14.270000
v 8.500000 7.120000 14.718000
v 13.100000 7.120000 14.718000
v 13.520000 7.540000 14.718000
v 8.080000 7.540000 14.718000
v 8.500000 7.120000 14.737000
v 13.100000 7.120000 14.737000
v 13.520000 7.540000 14.747000
v 8.080000 7.540000 14.747000
v 13.100000 7.120000 14.718000
v 13.520000 7.120000 14.718000
v 13.520000 7.540000 14.718000
v 13.100000 7.120000 14.737000
v 13.520000 7.120000 14.747000
v 13.520000 7.540000 14.747000
v 8.080000 7.120000 14.718000
v 8.500000 7.120000 14.718000
v 8.080000 7.540000 14.718000
v 8.080000 7.120000 14.747000
v 8.500000 7.120000 14.737000
v 8.080000 7.540000 14.747000
vn -0.0000 -0.0000 -1.0000
vn -0.0000 -0.0000 1.0000
vn -0.0000 -1.0000 -0.0000
vn 1.0000 -0.0000 -0.0000
vn -0.0000 1.0000 -0.0000
vn -1.0000 -0.0000 -0.0000
vn -0.0000 -0.0238 0.9997
vn 0.7071 -0.7071 -0.0000
vn -0.7071 -0.7071 -0.0000
vn -0.0238 -0.0000 0.9997
vn -0.7071 0.7071 -0.0000
vn 0.0238 -0.0000 0.9997
vn 0.7071 0.7071 -0.0000
s 0
f 192//57 191//57 190//57 189//57
f 193//58 194//58 195//58 196//58
f 189//59 190//59 194//59 193//59
f 190//60 191//60 195//60 194//60
f 191//61 192//61 196//61 195//61
f 192//62 189//62 193//62 196//62
f 200//57 199//57 198//57 197//57
f 201//58 202//58 203//58 204//58
f 197//59 198//59 202//59 201//59
f 198//60 199//60 203//60 202//60
f 199//61 200//61 204//61 203//61
f 200//62 197//62 201//62 204//62
f 208//57 207//57 206//57 205//57
f 209//58 210//58 211//58 212//58
f 205//59 206//59 210//59 209//59
f 206//60 207//60 211//60 210//60
f 207//61 208//61 212//61 211//61
f 208//62 205//62 209//62 212//62
f 216//57 215//57 214//57 213//57
f 217//58 218//58 219//58 220//58
f 213//59 214//59 218//59 217//59
f 214//60 215//60 219//60 218//60
f 215//61 216//61 220//61 219//61
f 216//62 213//62 217//62 220//62
f 224//57 223//57 222//57 221//57
f 225//63 226//63 227//63 228//63
f 221//59 222//59 226//59 225//59
f 222//64 223//64 227//64 226//64
f 223//61 224//61 228//61 227//61
f 224//65 221//65 225//65 228//65
f 231//57 230//57 229//57
f 232//66 233//66 234//66
f 229//59 230//59 233//59 232//59
f 230//60 231//60 234//60 233//60
f 231//67 229//67 232//67 234//67
f 237//57 236//57 235//57
f 238//68 239//68 240//68
f 235//59 236//59 239//59 238//59
f 236//69 237//69 240//69 239//69
f 237//62 235//62 238//62 240//62
o Parapet-Headhouse-W
v 13.271900 2.850000 14.025000
v 13.520000 2.850000 14.025000
v 13.520000 7.120000 14.025000
v 13.271900 7.120000 14.025000
v 13.271900 2.850000 14.718000
v 13.520000 2.850000 14.718000
v 13.520000 7.120000 14.718000
v 13.271900 7.120000 14.718000
v 13.100000 2.850000 14.270000
v 13.271900 2.850000 14.270000
v 13.271900 7.120000 14.270000
v 13.100000 7.120000 14.270000
v 13.100000 2.850000 14.718000
v 13.271900 2.850000 14.718000
v 13.271900 7.120000 14.718000
v 13.100000 7.120000 14.718000
v 13.100000 2.850000 14.718000
v 13.520000 2.850000 14.718000
v 13.520000 7.120000 14.718000
v 13.100000 7.120000 14.718000
v 13.100000 2.850000 14.737000
v 13.520000 2.850000 14.747000
v 13.520000 7.120000 14.747000
v 13.100000 7.120000 14.737000
vn -0.0000 -0.0000 -1.0000
vn -0.0000 -0.0000 1.0000
vn -0.0000 -1.0000 -0.0000
vn 1.0000 -0.0000 -0.0000
vn -0.0000 1.0000 -0.0000
vn -1.0000 -0.0000 -0.0000
vn -0.0238 -0.0000 0.9997
s 0
f 244//70 243//70 242//70 241//70
f 245//71 246//71 247//71 248//71
f 241//72 242//72 246//72 245//72
f 242//73 243//73 247//73 246//73
f 243//74 244//74 248//74 247//74
f 244//75 241//75 245//75 248//75
f 252//70 251//70 250//70 249//70
f 253//71 254//71 255//71 256//71
f 249//72 250//72 254//72 253//72
f 250//73 251//73 255//73 254//73
f 251//74 252//74 256//74 255//74
f 252//75 249//75 253//75 256//75
f 260//70 259//70 258//70 257//70
f 261//76 262//76 263//76 264//76
f 257//72 258//72 262//72 261//72
f 258//73 259//73 263//73 262//73
f 259//74 260//74 264//74 263//74
f 260//75 257//75 261//75 264//75
o Roof_Headhouse_InsulationFlat
v 8.500000 2.850000 14.270000
v 13.100000 2.850000 14.270000
v 13.100000 7.120000 14.270000
v 8.500000 7.120000 14.270000
v 8.500000 2.850000 14.470000
v 13.100000 2.850000 14.470000
v 13.100000 7.120000 14.470000
v 8.500000 7.120000 14.470000
vn -0.0000 -0.0000 -1.0000
vn -0.0000 -0.0000 1.0000
vn -0.0000 -1.0000 -0.0000
vn 1.0000 -0.0000 -0.0000
vn -0.0000 1.0000 -0.0000
vn -1.0000 -0.0000 -0.0000
s 0
f 268//77 267//77 266//77 265//77
f 269//78 270//78 271//78 272//78
f 265//79 266//79 270//79 269//79
f 266//80 267//80 271//80 270//80
f 267//81 268//81 272//81 271//81
f 268//82 265//82 269//82 272//82
o Roof_Headhouse_InsulationTaper
v 8.500000 2.850000 14.470000
v 13.100000 2.850000 14.470000
v 13.100000 2.850000 14.470000
v 8.500000 4.985000 14.470000
v 8.500000 2.850000 14.587000
v 13.100000 2.850000 14.587000
v 13.100000 2.850000 14.587000
v 8.500000 4.985000 14.495000
v 13.100000 2.850000 14.470000
v 13.100000 2.850000 14.470000
v 13.100000 7.120000 14.470000
v 13.100000 7.120000 14.470000
v 8.500000 4.985000 14.470000
v 8.500000 4.985000 14.470000
v 13.100000 2.850000 14.587000
v 13.100000 2.850000 14.587000
v 13.100000 7.120000 14.587000
v 13.100000 7.120000 14.587000
v 8.500000 4.985000 14.495000
v 8.500000 4.985000 14.495000
v 13.100000 7.120000 14.470000
v 13.100000 7.120000 14.470000
v 8.500000 7.120000 14.470000
v 8.500000 4.985000 14.470000
v 13.100000 7.120000 14.587000
v 13.100000 7.120000 14.587000
v 8.500000 7.120000 14.587000
v 8.500000 4.985000 14.495000
vn -0.0000 -0.0000 -1.0000
vn -0.0000 0.0431 0.9991
vn -0.0000 -1.0000 -0.0000
vn -0.0000 -0.0000 1.0000
vn 0.4210 0.9071 -0.0000
vn -1.0000 -0.0000 -0.0000
vn -0.0200 -0.0000 0.9998
vn 1.0000 -0.0000 -0.0000
vn -0.4210 0.9071 -0.0000
vn -0.4210 -0.9071 -0.0000
vn -0.0000 -0.0431 0.9991
vn -0.0000 1.0000 -0.0000
vn 0.4210 -0.9071 -0.0000
s 0
f 276//83 275//83 274//83 273//83
f 277//84 278//84 279//84 280//84
f 273//85 274//85 278//85 277//85
f 274//86 275//86 279//86 278//86
f 275//87 276//87 280//87 279//87
f 276//88 273//88 277//88 280//88
f 286//83 285//83 284//83 283//83 282//83 281//83
f 287//89 288//89 289//89 290//89 291//89 292//89
f 281//86 282//86 288//86 287//86
f 282//90 283//90 289//90 288//90
f 283//86 284//86 290//86 289//86
f 284//91 285//91 291//91 290//91
f 285//86 286//86 292//86 291//86
f 286//92 281//92 287//92 292//92
f 296//83 295//83 294//83 293//83
f 297//93 298//93 299//93 300//93
f 293//86 294//86 298//86 297//86
f 294//94 295//94 299//94 298//94
f 295//88 296//88 300//88 299//88
f 296//95 293//95 297//95 300//95
