# Blender 4.5.10 LTS
# www.blender.org
o Roof_Unit8_CLT
v 11.100000 7.120000 12.350000
v 11.100000 7.540000 12.350000
v 10.851900 7.540000 12.350000
v 10.851900 11.051900 12.350000
v 0.228100 11.051900 12.350000
v 0.228100 2.678100 12.350000
v 8.500000 2.678100 12.350000
v 8.500000 7.120000 12.350000
v 11.100000 7.120000 12.595000
v 11.100000 7.540000 12.595000
v 10.851900 7.540000 12.595000
v 10.851900 11.051900 12.595000
v 0.228100 11.051900 12.595000
v 0.228100 2.678100 12.595000
v 8.500000 2.678100 12.595000
v 8.500000 7.120000 12.595000
s 0
f 8 7 6 5 4 3 2 1
f 9 10 11 12 13 14 15 16
f 1 2 10 9
f 2 3 11 10
f 3 4 12 11
f 4 5 13 12
f 5 6 14 13
f 6 7 15 14
f 7 8 16 15
f 8 1 9 16
o Roof_Unit8_InsulationFlat
v 10.680000 7.540000 12.595000
v 10.680000 10.880000 12.595000
v 0.400000 10.880000 12.595000
v 0.400000 2.850000 12.595000
v 8.080000 2.850000 12.595000
v 8.080000 7.540000 12.595000
v 10.680000 7.540000 12.795000
v 10.680000 10.880000 12.795000
v 0.400000 10.880000 12.795000
v 0.400000 2.850000 12.795000
v 8.080000 2.850000 12.795000
v 8.080000 7.540000 12.795000
s 0
f 22 21 20 19 18 17
f 23 24 25 26 27 28
f 17 18 24 23
f 18 19 25 24
f 19 20 26 25
f 20 21 27 26
f 21 22 28 27
f 22 17 23 28
o Roof_Unit8_InsulationTaper
v 10.680000 10.880000 12.795000
v 10.680000 10.880000 12.795000
v 0.400000 10.880000 12.795000
v 0.400000 10.880000 12.795000
v 4.400000 5.865000 12.795000
v 10.680000 10.880000 12.945600
v 10.680000 10.880000 12.945600
v 0.400000 10.880000 12.945600
v 0.400000 10.880000 12.945600
v 4.400000 5.865000 12.820000
v 0.400000 10.880000 12.795000
v 0.400000 10.880000 12.795000
v 0.400000 2.850000 12.795000
v 0.400000 2.850000 12.795000
v 4.400000 5.865000 12.795000
v 0.400000 10.880000 12.945600
v 0.400000 10.880000 12.945600
v 0.400000 2.850000 12.945600
v 0.400000 2.850000 12.945600
v 4.400000 5.865000 12.820000
v 4.400000 5.865000 12.795000
v 0.400000 2.850000 12.795000
v 0.400000 2.850000 12.795000
v 8.080000 2.850000 12.795000
v 8.080000 2.850000 12.795000
v 4.400000 5.865000 12.820000
v 0.400000 2.850000 12.945600
v 0.400000 2.850000 12.945600
v 8.080000 2.850000 12.945600
v 8.080000 2.850000 12.945600
v 4.400000 5.865000 12.795000
v 8.080000 2.850000 12.795000
v 8.080000 2.850000 12.795000
v 8.080000 7.540000 12.795000
v 8.080000 7.540000 12.795000
v 8.080000 7.540000 12.795000
v 4.400000 5.865000 12.820000
v 8.080000 2.850000 12.945600
v 8.080000 2.850000 12.945600
v 8.080000 7.540000 12.893600
v 8.080000 7.540000 12.893600
v 8.080000 7.540000 12.893600
v 10.680000 10.880000 12.795000
v 10.680000 10.880000 12.795000
v 10.680000 10.880000 12.795000
v 4.400000 5.865000 12.795000
v 8.080000 7.540000 12.795000
v 8.080000 7.540000 12.795000
v 8.080000 7.540000 12.795000
v 8.080000 7.540000 12.795000
v 10.680000 10.880000 12.945600
v 10.680000 10.880000 12.945600
v 10.680000 10.880000 12.945600
v 4.400000 5.865000 12.820000
v 8.080000 7.540000 12.893600
v 8.080000 7.540000 12.893600
v 8.080000 7.540000 12.893600
v 8.080000 7.540000 12.893600
v 10.680000 7.540000 12.795000
v 10.680000 10.880000 12.795000
v 10.680000 10.880000 12.795000
v 8.080000 7.540000 12.795000
v 8.080000 7.540000 12.795000
v 8.080000 7.540000 12.795000
v 10.680000 7.540000 12.945600
v 10.680000 10.880000 12.945600
v 10.680000 10.880000 12.945600
v 8.080000 7.540000 12.893600
v 8.080000 7.540000 12.893600
v 8.080000 7.540000 12.893600
s 0
f 33 32 31 30 29
f 34 35 36 37 38
f 29 30 35 34
f 30 31 36 35
f 31 32 37 36
f 32 33 38 37
f 33 29 34 38
f 43 42 41 40 39
f 44 45 46 47 48
f 39 40 45 44
f 40 41 46 45
f 41 42 47 46
f 42 43 48 47
f 43 39 44 48
f 53 52 51 50 49
f 54 55 56 57 58
f 49 50 55 54
f 50 51 56 55
f 51 52 57 56
f 52 53 58 57
f 53 49 54 58
f 64 63 62 61 60 59
f 65 66 67 68 69 70
f 59 60 66 65
f 60 61 67 66
f 61 62 68 67
f 62 63 69 68
f 63 64 70 69
f 64 59 65 70
f 78 77 76 75 74 73 72 71
f 79 80 81 82 83 84 85 86
f 71 72 80 79
f 72 73 81 80
f 73 74 82 81
f 74 75 83 82
f 75 76 84 83
f 76 77 85 84
f 77 78 86 85
f 78 71 79 86
f 92 91 90 89 88 87
f 93 94 95 96 97 98
f 87 88 94 93
f 88 89 95 94
f 89 90 96 95
f 90 91 97 96
f 91 92 98 97
f 92 87 93 98
o Headhouse-E
v 8.500000 2.850000 12.595000
v 8.500000 7.120000 12.595000
v 8.080000 7.120000 12.595000
v 8.080000 2.850000 12.595000
v 8.500000 2.850000 14.025000
v 8.500000 7.120000 14.025000
v 8.080000 7.120000 14.025000
v 8.080000 2.850000 14.025000
s 0
f 102 101 100 99
f 103 104 105 106
f 99 100 104 103
f 100 101 105 104
f 101 102 106 105
f 102 99 103 106
o Headhouse-W
v 13.100000 7.120000 11.195000
v 13.100000 2.850000 11.195000
v 13.520000 2.850000 11.195000
v 13.520000 7.120000 11.195000
v 13.100000 7.120000 14.025000
v 13.100000 2.850000 14.025000
v 13.520000 2.850000 14.025000
v 13.520000 7.120000 14.025000
s 0
f 110 109 108 107
f 111 112 113 114
f 107 108 112 111
f 108 109 113 112
f 109 110 114 113
f 110 107 111 114
o Headhouse-S
v 8.080000 7.120000 14.025000
v 8.080000 7.540000 14.025000
v 8.080000 7.540000 12.595000
v 8.080000 7.120000 12.595000
v 11.100000 7.120000 12.595000
v 11.100000 7.540000 12.595000
v 11.100000 7.540000 10.950000
v 11.100000 7.291900 10.950000
v 11.100000 7.291900 11.195000
v 11.100000 7.120000 11.195000
v 13.520000 7.120000 11.195000
v 13.520000 7.291900 11.195000
v 13.520000 7.291900 10.950000
v 13.520000 7.540000 10.950000
v 13.520000 7.540000 14.025000
v 13.520000 7.120000 14.025000
s 0
f 115 116 117 118
f 119 120 121 122 123 124
f 125 126 127 128 129 130
f 119 124 125 130 115 118
f 127 126 123 122
f 117 116 129 128 121 120
f 121 128 127 122
f 123 126 125 124
f 117 120 119 118
f 115 130 129 116
o Headhouse-N
v 8.080000 2.430000 14.025000
v 8.080000 2.850000 14.025000
v 8.080000 2.850000 12.595000
v 8.080000 2.678100 12.595000
v 8.080000 2.678100 12.350000
v 8.080000 2.430000 12.350000
v 8.500000 2.430000 12.350000
v 8.500000 2.678100 12.350000
v 8.500000 2.678100 12.595000
v 8.500000 2.850000 12.595000
v 8.500000 2.850000 11.195000
v 8.500000 2.430000 11.195000
v 13.520000 2.430000 11.195000
v 13.520000 2.850000 11.195000
v 13.520000 2.850000 14.025000
v 13.520000 2.430000 14.025000
s 0
f 131 132 133 134 135 136
f 137 138 139 140 141 142
f 143 144 145 146
f 137 142 143 146 131 136
f 135 134 139 138
f 133 132 145 144 141 140
f 141 144 143 142
f 135 138 137 136
f 133 140 139 134
f 131 146 145 132
o Roof_Headhouse_CLT
v 8.328100 2.678100 14.025000
v 13.271900 2.678100 14.025000
v 13.271900 7.291900 14.025000
v 8.328100 7.291900 14.025000
v 8.328100 2.678100 14.270000
v 13.271900 2.678100 14.270000
v 13.271900 7.291900 14.270000
v 8.328100 7.291900 14.270000
s 0
f 150 149 148 147
f 151 152 153 154
f 147 148 152 151
f 148 149 153 152
f 149 150 154 153
f 150 147 151 154
o Roof_Headhouse_InsulationFlat
v 8.500000 2.850000 14.270000
v 13.100000 2.850000 14.270000
v 13.100000 7.120000 14.270000
v 8.500000 7.120000 14.270000
v 8.500000 2.850000 14.470000
v 13.100000 2.850000 14.470000
v 13.100000 7.120000 14.470000
v 8.500000 7.120000 14.470000
s 0
f 158 157 156 155
f 159 160 161 162
f 155 156 160 159
f 156 157 161 160
f 157 158 162 161
f 158 155 159 162
o Roof_Headhouse_InsulationTaper
v 8.500000 2.850000 14.470000
v 13.100000 2.850000 14.470000
v 13.100000 2.850000 14.470000
v 8.500000 4.985000 14.470000
v 8.500000 2.850000 14.587000
v 13.100000 2.850000 14.587000
v 13.100000 2.850000 14.587000
v 8.500000 4.985000 14.495000
v 13.100000 2.850000 14.470000
v 13.100000 2.850000 14.470000
v 13.100000 7.120000 14.470000
v 13.100000 7.120000 14.470000
v 8.500000 4.985000 14.470000
v 8.500000 4.985000 14.470000
v 13.100000 2.850000 14.587000
v 13.100000 2.850000 14.587000
v 13.100000 7.120000 14.587000
v 13.100000 7.120000 14.587000
v 8.500000 4.985000 14.495000
v 8.500000 4.985000 14.495000
v 13.100000 7.120000 14.470000
v 13.100000 7.120000 14.470000
v 8.500000 7.120000 14.470000
v 8.500000 4.985000 14.470000
v 13.100000 7.120000 14.587000
v 13.100000 7.120000 14.587000
v 8.500000 7.120000 14.587000
v 8.500000 4.985000 14.495000
s 0
f 166 165 164 163
f 167 168 169 170
f 163 164 168 167
f 164 165 169 168
f 165 166 170 169
f 166 163 167 170
f 176 175 174 173 172 171
f 177 178 179 180 181 182
f 171 172 178 177
f 172 173 179 178
f 173 174 180 179
f 174 175 181 180
f 175 176 182 181
f 176 171 177 182
f 186 185 184 183
f 187 188 189 190
f 183 184 188 187
f 184 185 189 188
f 185 186 190 189
f 186 183 187 190
o CapPlate-Unit8-N
v 8.080000 2.430000 13.076600
v 8.080000 2.850000 13.076600
v 0.400000 2.850000 13.076600
v -0.170000 2.430000 13.076600
v 8.080000 2.430000 13.110600
v 8.080000 2.850000 13.095600
v 0.400000 2.850000 13.095600
v -0.170000 2.430000 13.110600
s 0
f 194 193 192 191
f 195 196 197 198
f 191 192 196 195
f 192 193 197 196
f 193 194 198 197
f 194 191 195 198
o CapPlate-Unit8-E
v -0.170000 2.430000 13.076600
v 0.400000 2.850000 13.076600
v 0.400000 10.880000 13.076600
v -0.170000 11.300000 13.076600
v -0.170000 2.430000 13.110600
v 0.400000 2.850000 13.095600
v 0.400000 10.880000 13.095600
v -0.170000 11.300000 13.110600
s 0
f 202 201 200 199
f 203 204 205 206
f 199 200 204 203
f 200 201 205 204
f 201 202 206 205
f 202 199 203 206
o CapPlate-Unit8-S
v 0.400000 10.880000 13.076600
v 10.680000 10.880000 13.076600
v 11.100000 11.300000 13.076600
v -0.170000 11.300000 13.076600
v 0.400000 10.880000 13.095600
v 10.680000 10.880000 13.095600
v 11.100000 11.300000 13.110600
v -0.170000 11.300000 13.110600
s 0
f 210 209 208 207
f 211 212 213 214
f 207 208 212 211
f 208 209 213 212
f 209 210 214 213
f 210 207 211 214
o CapPlate-Unit8-W
v 10.680000 10.880000 13.076600
v 10.680000 7.540000 13.076600
v 11.100000 7.540000 13.076600
v 11.100000 11.300000 13.076600
v 10.680000 10.880000 13.095600
v 10.680000 7.540000 13.095600
v 11.100000 7.540000 13.110600
v 11.100000 11.300000 13.110600
s 0
f 218 217 216 215
f 219 220 221 222
f 215 216 220 219
f 216 217 221 220
f 217 218 222 221
f 218 215 219 222
o Cornice-Unit8-E
v -0.170000 2.430000 13.006600
v 0.000000 2.430000 13.006600
v 0.000000 11.300000 13.006600
v -0.170000 11.300000 13.006600
v -0.170000 2.430000 13.076600
v 0.000000 2.430000 13.076600
v 0.000000 11.300000 13.076600
v -0.170000 11.300000 13.076600
s 0
f 226 225 224 223
f 227 228 229 230
f 223 224 228 227
f 224 225 229 228
f 225 226 230 229
f 226 223 227 230
o Parapet-Unit8-N
v 0.400000 2.430000 13.076600
v 0.400000 2.850000 13.076600
v 0.400000 2.850000 12.595000
v 0.400000 2.678100 12.595000
v 0.400000 2.678100 12.350000
v 0.400000 2.430000 12.350000
v 8.080000 2.430000 12.350000
v 8.080000 2.678100 12.350000
v 8.080000 2.678100 12.595000
v 8.080000 2.850000 12.595000
v 8.080000 2.850000 13.076600
v 8.080000 2.430000 13.076600
s 0
f 231 232 233 234 235 236
f 237 238 239 240 241 242
f 237 242 231 236
f 235 234 239 238
f 233 232 241 240
f 235 238 237 236
f 233 240 239 234
f 231 242 241 232
o Parapet-Unit8-E
v 0.000000 2.430000 13.076600
v 0.000000 11.300000 13.076600
v 0.000000 11.300000 12.350000
v 0.000000 2.430000 12.350000
v 0.228100 2.678100 12.350000
v 0.228100 11.051900 12.350000
v 0.228100 11.051900 12.595000
v 0.228100 2.678100 12.595000
v 0.400000 2.430000 12.350000
v 0.400000 2.678100 12.350000
v 0.400000 2.678100 12.595000
v 0.400000 11.051900 12.595000
v 0.400000 11.051900 12.350000
v 0.400000 11.300000 12.350000
v 0.400000 11.300000 13.076600
v 0.400000 2.430000 13.076600
s 0
f 243 244 245 246
f 247 248 249 250
f 251 252 253 254 255 256 257 258
f 251 258 243 246
f 255 254 249 248
f 247 250 253 252
f 245 244 257 256
f 245 256 255 248 247 252 251 246
f 249 254 253 250
f 243 258 257 244
o Parapet-Unit8-S
v 0.400000 10.880000 13.076600
v 0.400000 11.300000 13.076600
v 0.400000 11.300000 12.350000
v 0.400000 11.051900 12.350000
v 0.400000 11.051900 12.595000
v 0.400000 10.880000 12.595000
v 10.851900 10.880000 12.595000
v 10.851900 11.051900 12.595000
v 10.851900 11.051900 12.350000
v 10.851900 10.880000 12.350000
v 11.100000 10.880000 12.350000
v 11.100000 11.300000 12.350000
v 11.100000 11.300000 13.076600
v 11.100000 10.880000 13.076600
s 0
f 259 260 261 262 263 264
f 265 266 267 268
f 269 270 271 272
f 265 268 269 272 259 264
f 267 266 263 262
f 261 260 271 270
f 267 262 261 270 269 268
f 263 266 265 264
f 259 272 271 260
o Parapet-Unit8-W
v 10.680000 7.540000 13.076600
v 10.680000 10.880000 13.076600
v 10.680000 10.880000 12.595000
v 10.680000 7.540000 12.595000
v 10.851900 7.540000 12.595000
v 10.851900 10.880000 12.595000
v 10.851900 10.880000 12.350000
v 10.851900 7.540000 12.350000
v 11.100000 7.540000 12.350000
v 11.100000 10.880000 12.350000
v 11.100000 10.880000 13.076600
v 11.100000 7.540000 13.076600
s 0
f 273 274 275 276
f 277 278 279 280
f 281 282 283 284
f 277 280 281 284 273 276
f 275 274 283 282 279 278
f 279 282 281 280
f 275 278 277 276
f 273 284 283 274
o CapPlate-Headhouse-N
v 8.080000 2.430000 14.718000
v 13.520000 2.430000 14.718000
v 13.100000 2.850000 14.718000
v 8.500000 2.850000 14.718000
v 8.080000 2.430000 14.752000
v 13.520000 2.430000 14.752000
v 13.100000 2.850000 14.737000
v 8.500000 2.850000 14.737000
s 0
f 288 287 286 285
f 289 290 291 292
f 285 286 290 289
f 286 287 291 290
f 287 288 292 291
f 288 285 289 292
o CapPlate-Headhouse-W
v 13.100000 7.120000 14.718000
v 13.100000 2.850000 14.718000
v 13.520000 2.430000 14.718000
v 13.520000 7.540000 14.718000
v 13.100000 7.120000 14.737000
v 13.100000 2.850000 14.737000
v 13.520000 2.430000 14.752000
v 13.520000 7.540000 14.752000
s 0
f 296 295 294 293
f 297 298 299 300
f 293 294 298 297
f 294 295 299 298
f 295 296 300 299
f 296 293 297 300
o CapPlate-Headhouse-S
v 8.500000 7.120000 14.718000
v 13.100000 7.120000 14.718000
v 13.520000 7.540000 14.718000
v 8.080000 7.540000 14.718000
v 8.500000 7.120000 14.737000
v 13.100000 7.120000 14.737000
v 13.520000 7.540000 14.752000
v 8.080000 7.540000 14.752000
s 0
f 304 303 302 301
f 305 306 307 308
f 301 302 306 305
f 302 303 307 306
f 303 304 308 307
f 304 301 305 308
o CapPlate-Headhouse-E
v 8.500000 2.850000 14.718000
v 8.500000 4.785000 14.718000
v 8.080000 4.785000 14.718000
v 8.080000 2.430000 14.718000
v 8.500000 2.850000 14.737000
v 8.500000 4.785000 14.737000
v 8.080000 4.785000 14.752000
v 8.080000 2.430000 14.752000
s 0
f 312 311 310 309
f 313 314 315 316
f 309 310 314 313
f 310 311 315 314
f 311 312 316 315
f 312 309 313 316
o CapPlate-Headhouse-E2
v 8.080000 5.185000 14.718000
v 8.500000 5.185000 14.718000
v 8.500000 7.120000 14.718000
v 8.080000 7.540000 14.718000
v 8.080000 5.185000 14.752000
v 8.500000 5.185000 14.737000
v 8.500000 7.120000 14.737000
v 8.080000 7.540000 14.752000
s 0
f 320 319 318 317
f 321 322 323 324
f 317 318 322 321
f 318 319 323 322
f 319 320 324 323
f 320 317 321 324
o Cornice-Headhouse-E
v 7.980000 4.785000 14.425000
v 8.080000 4.785000 14.425000
v 8.080000 5.185000 14.425000
v 7.980000 5.185000 14.425000
v 7.980000 4.785000 14.495000
v 8.080000 4.785000 14.495000
v 8.080000 5.185000 14.495000
v 7.980000 5.185000 14.495000
s 0
f 328 327 326 325
f 329 330 331 332
f 325 326 330 329
f 326 327 331 330
f 327 328 332 331
f 328 325 329 332
o Parapet-Headhouse-N
v 8.080000 2.430000 14.718000
v 8.080000 2.850000 14.718000
v 8.080000 2.850000 14.025000
v 8.080000 2.430000 14.025000
v 13.271900 2.678100 14.270000
v 13.271900 2.850000 14.270000
v 13.271900 2.850000 14.025000
v 13.271900 2.678100 14.025000
v 8.328100 2.678100 14.025000
v 8.328100 2.850000 14.025000
v 8.328100 2.850000 14.270000
v 8.328100 2.678100 14.270000
v 13.520000 2.430000 14.025000
v 13.520000 2.850000 14.025000
v 13.520000 2.850000 14.718000
v 13.520000 2.430000 14.718000
s 0
f 333 334 335 336
f 337 338 339 340
f 341 342 343 344
f 345 346 347 348
f 345 348 333 336
f 341 344 337 340
f 335 334 347 346 339 338 343 342
f 335 342 341 340 339 346 345 336
f 343 338 337 344
f 333 348 347 334
o Parapet-Headhouse-W
v 13.100000 2.850000 14.718000
v 13.100000 7.120000 14.718000
v 13.100000 7.120000 14.270000
v 13.100000 2.850000 14.270000
v 13.271900 2.850000 14.270000
v 13.271900 7.120000 14.270000
v 13.271900 7.120000 14.025000
v 13.271900 2.850000 14.025000
v 13.520000 2.850000 14.025000
v 13.520000 7.120000 14.025000
v 13.520000 7.120000 14.718000
v 13.520000 2.850000 14.718000
s 0
f 349 350 351 352
f 353 354 355 356
f 357 358 359 360
f 353 356 357 360 349 352
f 351 350 359 358 355 354
f 355 358 357 356
f 351 354 353 352
f 349 360 359 350
o Parapet-Headhouse-S
v 8.080000 7.120000 14.718000
v 8.080000 7.540000 14.718000
v 8.080000 7.540000 14.025000
v 8.080000 7.120000 14.025000
v 13.271900 7.120000 14.270000
v 13.271900 7.291900 14.270000
v 13.271900 7.291900 14.025000
v 13.271900 7.120000 14.025000
v 8.328100 7.120000 14.025000
v 8.328100 7.291900 14.025000
v 8.328100 7.291900 14.270000
v 8.328100 7.120000 14.270000
v 13.520000 7.120000 14.025000
v 13.520000 7.540000 14.025000
v 13.520000 7.540000 14.718000
v 13.520000 7.120000 14.718000
s 0
f 361 362 363 364
f 365 366 367 368
f 369 370 371 372
f 373 374 375 376
f 369 372 365 368 373 376 361 364
f 367 366 371 370
f 363 362 375 374
f 363 374 373 368 367 370 369 364
f 371 366 365 372
f 361 376 375 362
o Parapet-Headhouse-E
v 8.080000 2.850000 14.718000
v 8.080000 4.785000 14.718000
v 8.080000 4.785000 14.495000
v 8.080000 5.185000 14.495000
v 8.080000 5.185000 14.718000
v 8.080000 7.120000 14.718000
v 8.080000 7.120000 14.025000
v 8.080000 2.850000 14.025000
v 8.328100 2.850000 14.025000
v 8.328100 7.120000 14.025000
v 8.328100 7.120000 14.270000
v 8.328100 2.850000 14.270000
v 8.500000 2.850000 14.270000
v 8.500000 7.120000 14.270000
v 8.500000 7.120000 14.718000
v 8.500000 5.185000 14.718000
v 8.500000 5.185000 14.495000
v 8.500000 4.785000 14.495000
v 8.500000 4.785000 14.718000
v 8.500000 2.850000 14.718000
s 0
f 377 378 379 380 381 382 383 384
f 385 386 387 388
f 389 390 391 392 393 394 395 396
f 385 388 389 396 377 384
f 393 392 381 380
f 379 378 395 394
f 383 382 391 390 387 386
f 383 386 385 384
f 387 390 389 388
f 379 394 393 380
f 377 396 395 378
f 381 392 391 382
