# Blender 4.5.10 LTS
# www.blender.org
o L0-courtfacing-N
v 0.400000 2.430000 -1.650000
v 8.500000 2.430000 -1.650000
v 8.500000 2.850000 -1.650000
v 0.400000 2.850000 -1.650000
v 0.400000 2.430000 1.150000
v 8.500000 2.430000 1.150000
v 8.500000 2.850000 1.150000
v 0.400000 2.850000 1.150000
s 0
f 4 3 2 1
f 5 6 7 8
f 1 2 6 5
f 2 3 7 6
f 3 4 8 7
f 4 1 5 8
o L0-streetfront-E
v 0.000000 2.430000 -1.650000
v 0.400000 2.430000 -1.650000
v 0.400000 10.300000 -1.650000
v 0.000000 10.300000 -1.650000
v 0.000000 2.430000 1.150000
v 0.400000 2.430000 1.150000
v 0.400000 10.300000 1.150000
v 0.000000 10.300000 1.150000
s 0
f 12 11 10 9
f 13 14 15 16
f 9 10 14 13
f 10 11 15 14
f 11 12 16 15
f 12 9 13 16
o L0-internaljoin-S
v 0.400000 9.980000 -1.400000
v 10.680000 9.980000 -1.400000
v 10.680000 10.300000 -1.400000
v 0.400000 10.300000 -1.400000
v 0.400000 9.980000 1.150000
v 10.680000 9.980000 1.150000
v 10.680000 10.300000 1.150000
v 0.400000 10.300000 1.150000
s 0
f 20 19 18 17
f 21 22 23 24
f 17 18 22 21
f 18 19 23 22
f 19 20 24 23
f 20 17 21 24
o L0-courtfacing-W
v 10.680000 7.120000 -1.650000
v 11.100000 7.120000 -1.650000
v 11.100000 10.300000 -1.650000
v 10.680000 10.300000 -1.650000
v 10.680000 7.120000 1.150000
v 11.100000 7.120000 1.150000
v 11.100000 10.300000 1.150000
v 10.680000 10.300000 1.150000
s 0
f 28 27 26 25
f 29 30 31 32
f 25 26 30 29
f 26 27 31 30
f 27 28 32 31
f 28 25 29 32
o L1-alleyback-W
v 20.520000 0.000000 -0.250000
v 20.900000 0.000000 -0.250000
v 20.900000 7.540000 -0.250000
v 20.520000 7.540000 -0.250000
v 20.520000 0.000000 2.550000
v 20.900000 0.000000 2.550000
v 20.900000 7.540000 2.550000
v 20.520000 7.540000 2.550000
s 0
f 36 35 34 33
f 37 38 39 40
f 33 34 38 37
f 34 35 39 38
f 35 36 40 39
f 36 33 37 40
o L1-mitoyen-N
v 12.870000 0.000000 -0.250000
v 20.520000 0.000000 -0.250000
v 20.520000 0.360000 -0.250000
v 12.870000 0.360000 -0.250000
v 12.870000 0.000000 2.550000
v 20.520000 0.000000 2.550000
v 20.520000 0.360000 2.550000
v 12.870000 0.360000 2.550000
s 0
f 44 43 42 41
f 45 46 47 48
f 41 42 46 45
f 42 43 47 46
f 43 44 48 47
f 44 41 45 48
o L1-courtfacing-S
v 11.100000 7.120000 -0.250000
v 20.520000 7.120000 -0.250000
v 20.520000 7.540000 -0.250000
v 11.100000 7.540000 -0.250000
v 11.100000 7.120000 2.550000
v 20.520000 7.120000 2.550000
v 20.520000 7.540000 2.550000
v 11.100000 7.540000 2.550000
s 0
f 52 51 50 49
f 53 54 55 56
f 49 50 54 53
f 50 51 55 54
f 51 52 56 55
f 52 49 53 56
o L2-courtfacing-N
v 0.400000 2.430000 3.950000
v 0.400000 2.850000 3.950000
v 0.400000 2.850000 1.400000
v 0.400000 2.678100 1.400000
v 0.400000 2.678100 1.150000
v 0.400000 2.430000 1.150000
v 8.500000 2.430000 1.150000
v 8.500000 2.678100 1.150000
v 8.500000 2.678100 1.400000
v 8.500000 2.850000 1.400000
v 8.500000 2.850000 3.950000
v 8.500000 2.430000 3.950000
s 0
f 57 58 59 60 61 62
f 63 64 65 66 67 68
f 63 68 57 62
f 61 60 65 64
f 59 58 67 66
f 61 64 63 62
f 59 66 65 60
f 57 68 67 58
o L2-streetfront-E
v 0.000000 2.430000 3.950000
v 0.000000 10.300000 3.950000
v 0.000000 10.300000 1.150000
v 0.000000 2.430000 1.150000
v 0.228100 2.678100 1.150000
v 0.228100 10.300000 1.150000
v 0.228100 10.300000 1.400000
v 0.228100 2.678100 1.400000
v 0.400000 2.430000 1.150000
v 0.400000 2.678100 1.150000
v 0.400000 2.678100 1.400000
v 0.400000 10.300000 1.400000
v 0.400000 10.300000 3.950000
v 0.400000 2.430000 3.950000
s 0
f 69 70 71 72
f 73 74 75 76
f 77 78 79 80 81 82
f 77 82 69 72
f 73 76 79 78
f 71 70 81 80 75 74
f 71 74 73 78 77 72
f 75 80 79 76
f 69 82 81 70
o L2-internaljoin-S
v 0.400000 9.980000 3.950000
v 0.400000 10.300000 3.950000
v 0.400000 10.300000 1.400000
v 0.400000 9.980000 1.400000
v 10.680000 9.980000 1.400000
v 10.680000 10.300000 1.400000
v 10.680000 10.300000 3.950000
v 10.680000 9.980000 3.950000
s 0
f 83 84 85 86
f 87 88 89 90
f 87 90 83 86
f 85 84 89 88
f 85 88 87 86
f 83 90 89 84
o L2-courtfacing-W
v 10.680000 7.120000 3.950000
v 10.680000 10.300000 3.950000
v 10.680000 10.300000 1.400000
v 10.680000 7.120000 1.400000
v 10.851900 7.120000 1.400000
v 10.851900 10.300000 1.400000
v 10.851900 10.300000 1.150000
v 10.851900 7.120000 1.150000
v 11.100000 7.120000 1.150000
v 11.100000 10.300000 1.150000
v 11.100000 10.300000 3.950000
v 11.100000 7.120000 3.950000
s 0
f 91 92 93 94
f 95 96 97 98
f 99 100 101 102
f 95 98 99 102 91 94
f 93 92 101 100 97 96
f 97 100 99 98
f 93 96 95 94
f 91 102 101 92
o L3-courtfacing-S
v 11.100000 7.120000 5.350000
v 11.100000 7.540000 5.350000
v 11.100000 7.540000 2.550000
v 11.100000 7.291900 2.550000
v 11.100000 7.291900 2.800000
v 11.100000 7.120000 2.800000
v 20.520000 7.120000 2.800000
v 20.520000 7.291900 2.800000
v 20.520000 7.291900 2.550000
v 20.520000 7.540000 2.550000
v 20.520000 7.540000 5.350000
v 20.520000 7.120000 5.350000
s 0
f 103 104 105 106 107 108
f 109 110 111 112 113 114
f 109 114 103 108
f 111 110 107 106
f 105 104 113 112
f 105 112 111 106
f 107 110 109 108
f 103 114 113 104
o L3-alleyback-W
v 20.520000 0.000000 5.350000
v 20.520000 7.540000 5.350000
v 20.520000 7.540000 2.550000
v 20.520000 7.291900 2.550000
v 20.520000 7.291900 2.800000
v 20.520000 0.188100 2.800000
v 20.520000 0.188100 2.550000
v 20.520000 0.000000 2.550000
v 20.691900 0.188100 2.800000
v 20.691900 7.291900 2.800000
v 20.691900 7.291900 2.550000
v 20.691900 0.188100 2.550000
v 20.900000 0.000000 2.550000
v 20.900000 7.540000 2.550000
v 20.900000 7.540000 5.350000
v 20.900000 0.000000 5.350000
s 0
f 115 116 117 118 119 120 121 122
f 123 124 125 126
f 127 128 129 130
f 127 130 115 122
f 125 124 119 118
f 121 120 123 126
f 117 116 129 128
f 121 126 125 118 117 128 127 122
f 119 124 123 120
f 115 130 129 116
o L3-mitoyen-N
v 8.920000 0.000000 5.350000
v 8.920000 0.360000 5.350000
v 8.920000 0.360000 2.800000
v 8.920000 0.188100 2.800000
v 8.920000 0.188100 2.550000
v 8.920000 0.000000 2.550000
v 20.520000 0.000000 2.550000
v 20.520000 0.188100 2.550000
v 20.520000 0.188100 2.800000
v 20.520000 0.360000 2.800000
v 20.520000 0.360000 5.350000
v 20.520000 0.000000 5.350000
s 0
f 131 132 133 134 135 136
f 137 138 139 140 141 142
f 137 142 131 136
f 135 134 139 138
f 133 132 141 140
f 135 138 137 136
f 133 140 139 134
f 131 142 141 132
o L3-courtfacing-E
v 8.500000 0.000000 5.350000
v 8.500000 2.850000 5.350000
v 8.500000 2.850000 2.550000
v 8.500000 0.000000 2.550000
v 8.748100 0.188100 2.550000
v 8.748100 2.850000 2.550000
v 8.748100 2.850000 2.800000
v 8.748100 0.188100 2.800000
v 8.920000 0.000000 2.550000
v 8.920000 0.188100 2.550000
v 8.920000 0.188100 2.800000
v 8.920000 2.850000 2.800000
v 8.920000 2.850000 5.350000
v 8.920000 0.000000 5.350000
s 0
f 143 144 145 146
f 147 148 149 150
f 151 152 153 154 155 156
f 151 156 143 146
f 147 150 153 152
f 145 144 155 154 149 148
f 145 148 147 152 151 146
f 149 154 153 150
f 143 156 155 144
o L4-courtfacing-N
v 0.400000 2.430000 6.750000
v 0.400000 2.850000 6.750000
v 0.400000 2.850000 4.200000
v 0.400000 2.678100 4.200000
v 0.400000 2.678100 3.950000
v 0.400000 2.430000 3.950000
v 8.500000 2.430000 3.950000
v 8.500000 2.678100 3.950000
v 8.500000 2.678100 4.200000
v 8.500000 2.850000 4.200000
v 8.500000 2.850000 6.750000
v 8.500000 2.430000 6.750000
s 0
f 157 158 159 160 161 162
f 163 164 165 166 167 168
f 163 168 157 162
f 161 160 165 164
f 159 158 167 166
f 161 164 163 162
f 159 166 165 160
f 157 168 167 158
o L4-streetfront-E
v 0.000000 2.430000 6.750000
v 0.000000 10.300000 6.750000
v 0.000000 10.300000 3.950000
v 0.000000 2.430000 3.950000
v 0.228100 2.678100 3.950000
v 0.228100 10.300000 3.950000
v 0.228100 10.300000 4.200000
v 0.228100 2.678100 4.200000
v 0.400000 2.430000 3.950000
v 0.400000 2.678100 3.950000
v 0.400000 2.678100 4.200000
v 0.400000 10.300000 4.200000
v 0.400000 10.300000 6.750000
v 0.400000 2.430000 6.750000
s 0
f 169 170 171 172
f 173 174 175 176
f 177 178 179 180 181 182
f 177 182 169 172
f 173 176 179 178
f 171 170 181 180 175 174
f 171 174 173 178 177 172
f 175 180 179 176
f 169 182 181 170
o L4-internaljoin-S
v 0.400000 9.980000 6.750000
v 0.400000 10.300000 6.750000
v 0.400000 10.300000 4.200000
v 0.400000 9.980000 4.200000
v 10.680000 9.980000 4.200000
v 10.680000 10.300000 4.200000
v 10.680000 10.300000 6.750000
v 10.680000 9.980000 6.750000
s 0
f 183 184 185 186
f 187 188 189 190
f 187 190 183 186
f 185 184 189 188
f 185 188 187 186
f 183 190 189 184
o L4-courtfacing-W
v 10.680000 7.120000 6.750000
v 10.680000 10.300000 6.750000
v 10.680000 10.300000 4.200000
v 10.680000 7.120000 4.200000
v 10.851900 7.120000 4.200000
v 10.851900 10.300000 4.200000
v 10.851900 10.300000 3.950000
v 10.851900 7.120000 3.950000
v 11.100000 7.120000 3.950000
v 11.100000 10.300000 3.950000
v 11.100000 10.300000 6.750000
v 11.100000 7.120000 6.750000
s 0
f 191 192 193 194
f 195 196 197 198
f 199 200 201 202
f 195 198 199 202 191 194
f 193 192 201 200 197 196
f 197 200 199 198
f 193 196 195 194
f 191 202 201 192
o L5-courtfacing-S
v 11.100000 7.120000 8.150000
v 11.100000 7.540000 8.150000
v 11.100000 7.540000 5.350000
v 11.100000 7.291900 5.350000
v 11.100000 7.291900 5.600000
v 11.100000 7.120000 5.600000
v 20.520000 7.120000 5.600000
v 20.520000 7.291900 5.600000
v 20.520000 7.291900 5.350000
v 20.520000 7.540000 5.350000
v 20.520000 7.540000 8.150000
v 20.520000 7.120000 8.150000
s 0
f 203 204 205 206 207 208
f 209 210 211 212 213 214
f 209 214 203 208
f 211 210 207 206
f 205 204 213 212
f 205 212 211 206
f 207 210 209 208
f 203 214 213 204
o L5-alleyback-W
v 20.520000 0.000000 8.150000
v 20.520000 7.540000 8.150000
v 20.520000 7.540000 5.350000
v 20.520000 7.291900 5.350000
v 20.520000 7.291900 5.600000
v 20.520000 0.188100 5.600000
v 20.520000 0.188100 5.350000
v 20.520000 0.000000 5.350000
v 20.691900 0.188100 5.600000
v 20.691900 7.291900 5.600000
v 20.691900 7.291900 5.350000
v 20.691900 0.188100 5.350000
v 20.900000 0.000000 5.350000
v 20.900000 7.540000 5.350000
v 20.900000 7.540000 8.150000
v 20.900000 0.000000 8.150000
s 0
f 215 216 217 218 219 220 221 222
f 223 224 225 226
f 227 228 229 230
f 227 230 215 222
f 225 224 219 218
f 221 220 223 226
f 217 216 229 228
f 221 226 225 218 217 228 227 222
f 219 224 223 220
f 215 230 229 216
o L5-mitoyen-N
v 8.920000 0.000000 8.150000
v 8.920000 0.360000 8.150000
v 8.920000 0.360000 5.600000
v 8.920000 0.188100 5.600000
v 8.920000 0.188100 5.350000
v 8.920000 0.000000 5.350000
v 20.520000 0.000000 5.350000
v 20.520000 0.188100 5.350000
v 20.520000 0.188100 5.600000
v 20.520000 0.360000 5.600000
v 20.520000 0.360000 8.150000
v 20.520000 0.000000 8.150000
s 0
f 231 232 233 234 235 236
f 237 238 239 240 241 242
f 237 242 231 236
f 235 234 239 238
f 233 232 241 240
f 235 238 237 236
f 233 240 239 234
f 231 242 241 232
o L5-courtfacing-E
v 8.500000 0.000000 8.150000
v 8.500000 2.850000 8.150000
v 8.500000 2.850000 5.350000
v 8.500000 0.000000 5.350000
v 8.748100 0.188100 5.350000
v 8.748100 2.850000 5.350000
v 8.748100 2.850000 5.600000
v 8.748100 0.188100 5.600000
v 8.920000 0.000000 5.350000
v 8.920000 0.188100 5.350000
v 8.920000 0.188100 5.600000
v 8.920000 2.850000 5.600000
v 8.920000 2.850000 8.150000
v 8.920000 0.000000 8.150000
s 0
f 243 244 245 246
f 247 248 249 250
f 251 252 253 254 255 256
f 251 256 243 246
f 247 250 253 252
f 245 244 255 254 249 248
f 245 248 247 252 251 246
f 249 254 253 250
f 243 256 255 244
o L6-courtfacing-N
v 0.400000 2.430000 9.550000
v 0.400000 2.850000 9.550000
v 0.400000 2.850000 7.000000
v 0.400000 2.678100 7.000000
v 0.400000 2.678100 6.750000
v 0.400000 2.430000 6.750000
v 8.500000 2.430000 6.750000
v 8.500000 2.678100 6.750000
v 8.500000 2.678100 7.000000
v 8.500000 2.850000 7.000000
v 8.500000 2.850000 9.550000
v 8.500000 2.430000 9.550000
s 0
f 257 258 259 260 261 262
f 263 264 265 266 267 268
f 263 268 257 262
f 261 260 265 264
f 259 258 267 266
f 261 264 263 262
f 259 266 265 260
f 257 268 267 258
o L6-streetfront-E
v 0.000000 2.430000 9.550000
v 0.000000 11.300000 9.550000
v 0.000000 11.300000 6.750000
v 0.000000 2.430000 6.750000
v 0.228100 2.678100 6.750000
v 0.228100 11.051900 6.750000
v 0.228100 11.051900 7.000000
v 0.228100 2.678100 7.000000
v 0.400000 2.430000 6.750000
v 0.400000 2.678100 6.750000
v 0.400000 2.678100 7.000000
v 0.400000 11.051900 7.000000
v 0.400000 11.051900 6.750000
v 0.400000 11.300000 6.750000
v 0.400000 11.300000 9.550000
v 0.400000 2.430000 9.550000
s 0
f 269 270 271 272
f 273 274 275 276
f 277 278 279 280 281 282 283 284
f 277 284 269 272
f 281 280 275 274
f 273 276 279 278
f 271 270 283 282
f 271 282 281 274 273 278 277 272
f 275 280 279 276
f 269 284 283 270
o L6-courtfacing-S
v 0.400000 10.880000 9.550000
v 0.400000 11.300000 9.550000
v 0.400000 11.300000 6.750000
v 0.400000 11.051900 6.750000
v 0.400000 11.051900 7.000000
v 0.400000 10.880000 7.000000
v 10.851900 10.880000 7.000000
v 10.851900 11.051900 7.000000
v 10.851900 11.051900 6.750000
v 10.851900 10.880000 6.750000
v 11.100000 10.880000 6.750000
v 11.100000 11.300000 6.750000
v 11.100000 11.300000 9.550000
v 11.100000 10.880000 9.550000
s 0
f 285 286 287 288 289 290
f 291 292 293 294
f 295 296 297 298
f 291 294 295 298 285 290
f 293 292 289 288
f 287 286 297 296
f 293 288 287 296 295 294
f 289 292 291 290
f 285 298 297 286
o L6-courtfacing-W
v 10.680000 7.120000 9.550000
v 10.680000 10.880000 9.550000
v 10.680000 10.880000 7.000000
v 10.680000 7.120000 7.000000
v 10.851900 7.120000 7.000000
v 10.851900 10.880000 7.000000
v 10.851900 10.880000 6.750000
v 10.851900 7.120000 6.750000
v 11.100000 7.120000 6.750000
v 11.100000 10.880000 6.750000
v 11.100000 10.880000 9.550000
v 11.100000 7.120000 9.550000
s 0
f 299 300 301 302
f 303 304 305 306
f 307 308 309 310
f 303 306 307 310 299 302
f 301 300 309 308 305 304
f 305 308 307 306
f 301 304 303 302
f 299 310 309 300
o L7-courtfacing-S
v 11.100000 7.120000 10.950000
v 11.100000 7.540000 10.950000
v 11.100000 7.540000 8.150000
v 11.100000 7.291900 8.150000
v 11.100000 7.291900 8.400000
v 11.100000 7.120000 8.400000
v 20.520000 7.120000 8.400000
v 20.520000 7.291900 8.400000
v 20.520000 7.291900 8.150000
v 20.520000 7.540000 8.150000
v 20.520000 7.540000 10.950000
v 20.520000 7.120000 10.950000
s 0
f 311 312 313 314 315 316
f 317 318 319 320 321 322
f 317 322 311 316
f 319 318 315 314
f 313 312 321 320
f 313 320 319 314
f 315 318 317 316
f 311 322 321 312
o L7-alleyback-W
v 20.520000 0.000000 10.950000
v 20.520000 7.540000 10.950000
v 20.520000 7.540000 8.150000
v 20.520000 7.291900 8.150000
v 20.520000 7.291900 8.400000
v 20.520000 0.188100 8.400000
v 20.520000 0.188100 8.150000
v 20.520000 0.000000 8.150000
v 20.691900 0.188100 8.400000
v 20.691900 7.291900 8.400000
v 20.691900 7.291900 8.150000
v 20.691900 0.188100 8.150000
v 20.900000 0.000000 8.150000
v 20.900000 7.540000 8.150000
v 20.900000 7.540000 10.950000
v 20.900000 0.000000 10.950000
s 0
f 323 324 325 326 327 328 329 330
f 331 332 333 334
f 335 336 337 338
f 335 338 323 330
f 333 332 327 326
f 329 328 331 334
f 325 324 337 336
f 329 334 333 326 325 336 335 330
f 327 332 331 328
f 323 338 337 324
o L7-mitoyen-N
v 8.920000 0.000000 10.950000
v 8.920000 0.360000 10.950000
v 8.920000 0.360000 8.400000
v 8.920000 0.188100 8.400000
v 8.920000 0.188100 8.150000
v 8.920000 0.000000 8.150000
v 20.520000 0.000000 8.150000
v 20.520000 0.188100 8.150000
v 20.520000 0.188100 8.400000
v 20.520000 0.360000 8.400000
v 20.520000 0.360000 10.950000
v 20.520000 0.000000 10.950000
s 0
f 339 340 341 342 343 344
f 345 346 347 348 349 350
f 345 350 339 344
f 343 342 347 346
f 341 340 349 348
f 343 346 345 344
f 341 348 347 342
f 339 350 349 340
o L7-courtfacing-E
v 8.500000 0.000000 10.950000
v 8.500000 2.850000 10.950000
v 8.500000 2.850000 8.150000
v 8.500000 0.000000 8.150000
v 8.748100 0.188100 8.150000
v 8.748100 2.850000 8.150000
v 8.748100 2.850000 8.400000
v 8.748100 0.188100 8.400000
v 8.920000 0.000000 8.150000
v 8.920000 0.188100 8.150000
v 8.920000 0.188100 8.400000
v 8.920000 2.850000 8.400000
v 8.920000 2.850000 10.950000
v 8.920000 0.000000 10.950000
s 0
f 351 352 353 354
f 355 356 357 358
f 359 360 361 362 363 364
f 359 364 351 354
f 355 358 361 360
f 353 352 363 362 357 356
f 353 356 355 360 359 354
f 357 362 361 358
f 351 364 363 352
o L8-courtfacing-N
v 0.400000 2.430000 12.350000
v 0.400000 2.850000 12.350000
v 0.400000 2.850000 9.800000
v 0.400000 2.678100 9.800000
v 0.400000 2.678100 9.550000
v 0.400000 2.430000 9.550000
v 8.500000 2.430000 9.550000
v 8.500000 2.678100 9.550000
v 8.500000 2.678100 9.800000
v 8.500000 2.850000 9.800000
v 8.500000 2.850000 12.350000
v 8.500000 2.430000 12.350000
s 0
f 365 366 367 368 369 370
f 371 372 373 374 375 376
f 371 376 365 370
f 369 368 373 372
f 367 366 375 374
f 369 372 371 370
f 367 374 373 368
f 365 376 375 366
o L8-streetfront-E
v 0.000000 2.430000 12.350000
v 0.000000 11.300000 12.350000
v 0.000000 11.300000 9.550000
v 0.000000 2.430000 9.550000
v 0.228100 2.678100 9.550000
v 0.228100 11.051900 9.550000
v 0.228100 11.051900 9.800000
v 0.228100 2.678100 9.800000
v 0.400000 2.430000 9.550000
v 0.400000 2.678100 9.550000
v 0.400000 2.678100 9.800000
v 0.400000 11.051900 9.800000
v 0.400000 11.051900 9.550000
v 0.400000 11.300000 9.550000
v 0.400000 11.300000 12.350000
v 0.400000 2.430000 12.350000
s 0
f 377 378 379 380
f 381 382 383 384
f 385 386 387 388 389 390 391 392
f 385 392 377 380
f 389 388 383 382
f 381 384 387 386
f 379 378 391 390
f 379 390 389 382 381 386 385 380
f 383 388 387 384
f 377 392 391 378
o L8-courtfacing-S
v 0.400000 10.880000 12.350000
v 0.400000 11.300000 12.350000
v 0.400000 11.300000 9.550000
v 0.400000 11.051900 9.550000
v 0.400000 11.051900 9.800000
v 0.400000 10.880000 9.800000
v 10.851900 10.880000 9.800000
v 10.851900 11.051900 9.800000
v 10.851900 11.051900 9.550000
v 10.851900 10.880000 9.550000
v 11.100000 10.880000 9.550000
v 11.100000 11.300000 9.550000
v 11.100000 11.300000 12.350000
v 11.100000 10.880000 12.350000
s 0
f 393 394 395 396 397 398
f 399 400 401 402
f 403 404 405 406
f 399 402 403 406 393 398
f 401 400 397 396
f 395 394 405 404
f 401 396 395 404 403 402
f 397 400 399 398
f 393 406 405 394
o L8-courtfacing-W
v 10.680000 7.120000 12.350000
v 10.680000 10.880000 12.350000
v 10.680000 10.880000 9.800000
v 10.680000 7.120000 9.800000
v 10.851900 7.120000 9.800000
v 10.851900 10.880000 9.800000
v 10.851900 10.880000 9.550000
v 10.851900 7.120000 9.550000
v 11.100000 7.120000 9.550000
v 11.100000 10.880000 9.550000
v 11.100000 10.880000 12.350000
v 11.100000 7.120000 12.350000
s 0
f 407 408 409 410
f 411 412 413 414
f 415 416 417 418
f 411 414 415 418 407 410
f 409 408 417 416 413 412
f 413 416 415 414
f 409 412 411 410
f 407 418 417 408
o Roof_Deck9_CLT
v 11.100000 2.850000 10.950000
v 8.500000 2.850000 10.950000
v 8.500000 2.430000 10.950000
v 8.748100 2.430000 10.950000
v 8.748100 0.188100 10.950000
v 20.691900 0.188100 10.950000
v 20.691900 7.291900 10.950000
v 11.100000 7.291900 10.950000
v 11.100000 2.850000 11.195000
v 8.500000 2.850000 11.195000
v 8.500000 2.430000 11.195000
v 8.748100 2.430000 11.195000
v 8.748100 0.188100 11.195000
v 20.691900 0.188100 11.195000
v 20.691900 7.291900 11.195000
v 11.100000 7.291900 11.195000
s 0
f 426 425 424 423 422 421 420 419
f 427 428 429 430 431 432 433 434
f 419 420 428 427
f 420 421 429 428
f 421 422 430 429
f 422 423 431 430
f 423 424 432 431
f 424 425 433 432
f 425 426 434 433
f 426 419 427 434
o Roof_Deck9_InsulationFlat
v 8.920000 0.360000 11.195000
v 20.520000 0.360000 11.195000
v 20.520000 7.120000 11.195000
v 13.520000 7.120000 11.195000
v 13.520000 2.430000 11.195000
v 8.920000 2.430000 11.195000
v 8.920000 0.360000 11.395000
v 20.520000 0.360000 11.395000
v 20.520000 7.120000 11.395000
v 13.520000 7.120000 11.395000
v 13.520000 2.430000 11.395000
v 8.920000 2.430000 11.395000
s 0
f 440 439 438 437 436 435
f 441 442 443 444 445 446
f 435 436 442 441
f 436 437 443 442
f 437 438 444 443
f 438 439 445 444
f 439 440 446 445
f 440 435 441 446
o Roof_Deck9_InsulationTaper
v 8.920000 0.360000 11.395000
v 20.520000 0.360000 11.395000
v 20.520000 0.360000 11.395000
v 14.800000 2.965000 11.395000
v 8.920000 0.360000 11.395000
v 8.920000 0.360000 11.534400
v 20.520000 0.360000 11.534400
v 20.520000 0.360000 11.534400
v 14.800000 2.965000 11.420000
v 8.920000 0.360000 11.534400
v 20.520000 0.360000 11.395000
v 20.520000 0.360000 11.395000
v 20.520000 7.120000 11.395000
v 20.520000 7.120000 11.395000
v 14.800000 2.965000 11.395000
v 20.520000 0.360000 11.534400
v 20.520000 0.360000 11.534400
v 20.520000 7.120000 11.534400
v 20.520000 7.120000 11.534400
v 14.800000 2.965000 11.420000
v 14.800000 2.965000 11.395000
v 20.520000 7.120000 11.395000
v 20.520000 7.120000 11.395000
v 13.520000 7.120000 11.395000
v 13.520000 7.120000 11.395000
v 14.800000 2.965000 11.420000
v 20.520000 7.120000 11.534400
v 20.520000 7.120000 11.534400
v 13.520000 7.120000 11.534400
v 13.520000 7.120000 11.534400
v 14.800000 2.965000 11.395000
v 13.520000 7.120000 11.395000
v 13.520000 7.120000 11.395000
v 13.520000 2.430000 11.395000
v 13.520000 2.430000 11.395000
v 13.520000 2.430000 11.395000
v 14.800000 2.965000 11.420000
v 13.520000 7.120000 11.534400
v 13.520000 7.120000 11.534400
v 13.520000 2.430000 11.442400
v 13.520000 2.430000 11.442400
v 13.520000 2.430000 11.442400
v 8.920000 0.360000 11.395000
v 8.920000 0.360000 11.395000
v 14.800000 2.965000 11.395000
v 13.520000 2.430000 11.395000
v 13.520000 2.430000 11.395000
v 13.520000 2.430000 11.395000
v 13.520000 2.430000 11.395000
v 8.920000 0.360000 11.395000
v 8.920000 0.360000 11.534400
v 8.920000 0.360000 11.534400
v 14.800000 2.965000 11.420000
v 13.520000 2.430000 11.442400
v 13.520000 2.430000 11.442400
v 13.520000 2.430000 11.442400
v 13.520000 2.430000 11.442400
v 8.920000 0.360000 11.534400
v 8.920000 0.360000 11.395000
v 8.920000 0.360000 11.395000
v 13.520000 2.430000 11.395000
v 13.520000 2.430000 11.395000
v 13.520000 2.430000 11.395000
v 8.920000 2.430000 11.395000
v 8.920000 0.360000 11.534400
v 8.920000 0.360000 11.534400
v 13.520000 2.430000 11.442400
v 13.520000 2.430000 11.442400
v 13.520000 2.430000 11.442400
v 8.920000 2.430000 11.534400
s 0
f 451 450 449 448 447
f 452 453 454 455 456
f 447 448 453 452
f 448 449 454 453
f 449 450 455 454
f 450 451 456 455
f 451 447 452 456
f 461 460 459 458 457
f 462 463 464 465 466
f 457 458 463 462
f 458 459 464 463
f 459 460 465 464
f 460 461 466 465
f 461 457 462 466
f 471 470 469 468 467
f 472 473 474 475 476
f 467 468 473 472
f 468 469 474 473
f 469 470 475 474
f 470 471 476 475
f 471 467 472 476
f 482 481 480 479 478 477
f 483 484 485 486 487 488
f 477 478 484 483
f 478 479 485 484
f 479 480 486 485
f 480 481 487 486
f 481 482 488 487
f 482 477 483 488
f 496 495 494 493 492 491 490 489
f 497 498 499 500 501 502 503 504
f 489 490 498 497
f 490 491 499 498
f 491 492 500 499
f 492 493 501 500
f 493 494 502 501
f 494 495 503 502
f 495 496 504 503
f 496 489 497 504
f 510 509 508 507 506 505
f 511 512 513 514 515 516
f 505 506 512 511
f 506 507 513 512
f 507 508 514 513
f 508 509 515 514
f 509 510 516 515
f 510 505 511 516
o Roof_Unit8_CLT
v 11.100000 7.120000 12.350000
v 11.100000 7.540000 12.350000
v 10.851900 7.540000 12.350000
v 10.851900 11.051900 12.350000
v 0.228100 11.051900 12.350000
v 0.228100 2.678100 12.350000
v 8.500000 2.678100 12.350000
v 8.500000 7.120000 12.350000
v 11.100000 7.120000 12.595000
v 11.100000 7.540000 12.595000
v 10.851900 7.540000 12.595000
v 10.851900 11.051900 12.595000
v 0.228100 11.051900 12.595000
v 0.228100 2.678100 12.595000
v 8.500000 2.678100 12.595000
v 8.500000 7.120000 12.595000
s 0
f 524 523 522 521 520 519 518 517
f 525 526 527 528 529 530 531 532
f 517 518 526 525
f 518 519 527 526
f 519 520 528 527
f 520 521 529 528
f 521 522 530 529
f 522 523 531 530
f 523 524 532 531
f 524 517 525 532
o Roof_Unit8_InsulationFlat
v 10.680000 7.540000 12.595000
v 10.680000 10.880000 12.595000
v 0.400000 10.880000 12.595000
v 0.400000 2.850000 12.595000
v 8.080000 2.850000 12.595000
v 8.080000 7.540000 12.595000
v 10.680000 7.540000 12.795000
v 10.680000 10.880000 12.795000
v 0.400000 10.880000 12.795000
v 0.400000 2.850000 12.795000
v 8.080000 2.850000 12.795000
v 8.080000 7.540000 12.795000
s 0
f 538 537 536 535 534 533
f 539 540 541 542 543 544
f 533 534 540 539
f 534 535 541 540
f 535 536 542 541
f 536 537 543 542
f 537 538 544 543
f 538 533 539 544
o Roof_Unit8_InsulationTaper
v 10.680000 10.880000 12.795000
v 10.680000 10.880000 12.795000
v 0.400000 10.880000 12.795000
v 0.400000 10.880000 12.795000
v 4.400000 5.865000 12.795000
v 10.680000 10.880000 12.945600
v 10.680000 10.880000 12.945600
v 0.400000 10.880000 12.945600
v 0.400000 10.880000 12.945600
v 4.400000 5.865000 12.820000
v 0.400000 10.880000 12.795000
v 0.400000 10.880000 12.795000
v 0.400000 2.850000 12.795000
v 0.400000 2.850000 12.795000
v 4.400000 5.865000 12.795000
v 0.400000 10.880000 12.945600
v 0.400000 10.880000 12.945600
v 0.400000 2.850000 12.945600
v 0.400000 2.850000 12.945600
v 4.400000 5.865000 12.820000
v 4.400000 5.865000 12.795000
v 0.400000 2.850000 12.795000
v 0.400000 2.850000 12.795000
v 8.080000 2.850000 12.795000
v 8.080000 2.850000 12.795000
v 4.400000 5.865000 12.820000
v 0.400000 2.850000 12.945600
v 0.400000 2.850000 12.945600
v 8.080000 2.850000 12.945600
v 8.080000 2.850000 12.945600
v 4.400000 5.865000 12.795000
v 8.080000 2.850000 12.795000
v 8.080000 2.850000 12.795000
v 8.080000 7.540000 12.795000
v 8.080000 7.540000 12.795000
v 8.080000 7.540000 12.795000
v 4.400000 5.865000 12.820000
v 8.080000 2.850000 12.945600
v 8.080000 2.850000 12.945600
v 8.080000 7.540000 12.893600
v 8.080000 7.540000 12.893600
v 8.080000 7.540000 12.893600
v 10.680000 10.880000 12.795000
v 10.680000 10.880000 12.795000
v 10.680000 10.880000 12.795000
v 4.400000 5.865000 12.795000
v 8.080000 7.540000 12.795000
v 8.080000 7.540000 12.795000
v 8.080000 7.540000 12.795000
v 8.080000 7.540000 12.795000
v 10.680000 10.880000 12.945600
v 10.680000 10.880000 12.945600
v 10.680000 10.880000 12.945600
v 4.400000 5.865000 12.820000
v 8.080000 7.540000 12.893600
v 8.080000 7.540000 12.893600
v 8.080000 7.540000 12.893600
v 8.080000 7.540000 12.893600
v 10.680000 7.540000 12.795000
v 10.680000 10.880000 12.795000
v 10.680000 10.880000 12.795000
v 8.080000 7.540000 12.795000
v 8.080000 7.540000 12.795000
v 8.080000 7.540000 12.795000
v 10.680000 7.540000 12.945600
v 10.680000 10.880000 12.945600
v 10.680000 10.880000 12.945600
v 8.080000 7.540000 12.893600
v 8.080000 7.540000 12.893600
v 8.080000 7.540000 12.893600
s 0
f 549 548 547 546 545
f 550 551 552 553 554
f 545 546 551 550
f 546 547 552 551
f 547 548 553 552
f 548 549 554 553
f 549 545 550 554
f 559 558 557 556 555
f 560 561 562 563 564
f 555 556 561 560
f 556 557 562 561
f 557 558 563 562
f 558 559 564 563
f 559 555 560 564
f 569 568 567 566 565
f 570 571 572 573 574
f 565 566 571 570
f 566 567 572 571
f 567 568 573 572
f 568 569 574 573
f 569 565 570 574
f 580 579 578 577 576 575
f 581 582 583 584 585 586
f 575 576 582 581
f 576 577 583 582
f 577 578 584 583
f 578 579 585 584
f 579 580 586 585
f 580 575 581 586
f 594 593 592 591 590 589 588 587
f 595 596 597 598 599 600 601 602
f 587 588 596 595
f 588 589 597 596
f 589 590 598 597
f 590 591 599 598
f 591 592 600 599
f 592 593 601 600
f 593 594 602 601
f 594 587 595 602
f 608 607 606 605 604 603
f 609 610 611 612 613 614
f 603 604 610 609
f 604 605 611 610
f 605 606 612 611
f 606 607 613 612
f 607 608 614 613
f 608 603 609 614
o Lobby-courtfacing-E
v 8.920000 0.000000 -0.250000
v 8.920000 2.850000 -0.250000
v 8.500000 2.850000 -0.250000
v 8.500000 0.000000 -0.250000
v 8.920000 0.000000 2.550000
v 8.920000 2.850000 2.550000
v 8.500000 2.850000 2.550000
v 8.500000 0.000000 2.550000
s 0
f 618 617 616 615
f 619 620 621 622
f 615 616 620 619
f 616 617 621 620
f 617 618 622 621
f 618 615 619 622
o Lobby-mitoyen-N
v 8.920000 0.000000 -0.250000
v 12.870000 0.000000 -0.250000
v 12.870000 0.360000 -0.250000
v 8.920000 0.360000 -0.250000
v 8.920000 0.000000 2.550000
v 12.870000 0.000000 2.550000
v 12.870000 0.360000 2.550000
v 8.920000 0.360000 2.550000
s 0
f 626 625 624 623
f 627 628 629 630
f 623 624 628 627
f 624 625 629 628
f 625 626 630 629
f 626 623 627 630
o Headhouse-E
v 8.500000 2.850000 12.595000
v 8.500000 7.120000 12.595000
v 8.080000 7.120000 12.595000
v 8.080000 2.850000 12.595000
v 8.500000 2.850000 14.025000
v 8.500000 7.120000 14.025000
v 8.080000 7.120000 14.025000
v 8.080000 2.850000 14.025000
s 0
f 634 633 632 631
f 635 636 637 638
f 631 632 636 635
f 632 633 637 636
f 633 634 638 637
f 634 631 635 638
o Headhouse-W
v 13.100000 7.120000 11.195000
v 13.100000 2.850000 11.195000
v 13.520000 2.850000 11.195000
v 13.520000 7.120000 11.195000
v 13.100000 7.120000 14.025000
v 13.100000 2.850000 14.025000
v 13.520000 2.850000 14.025000
v 13.520000 7.120000 14.025000
s 0
f 642 641 640 639
f 643 644 645 646
f 639 640 644 643
f 640 641 645 644
f 641 642 646 645
f 642 639 643 646
o Headhouse-S
v 8.080000 7.120000 14.025000
v 8.080000 7.540000 14.025000
v 8.080000 7.540000 12.595000
v 8.080000 7.120000 12.595000
v 11.100000 7.120000 12.595000
v 11.100000 7.540000 12.595000
v 11.100000 7.540000 10.950000
v 11.100000 7.291900 10.950000
v 11.100000 7.291900 11.195000
v 11.100000 7.120000 11.195000
v 13.520000 7.120000 11.195000
v 13.520000 7.291900 11.195000
v 13.520000 7.291900 10.950000
v 13.520000 7.540000 10.950000
v 13.520000 7.540000 14.025000
v 13.520000 7.120000 14.025000
s 0
f 647 648 649 650
f 651 652 653 654 655 656
f 657 658 659 660 661 662
f 651 656 657 662 647 650
f 659 658 655 654
f 649 648 661 660 653 652
f 653 660 659 654
f 655 658 657 656
f 649 652 651 650
f 647 662 661 648
o Headhouse-N
v 8.080000 2.430000 14.025000
v 8.080000 2.850000 14.025000
v 8.080000 2.850000 12.595000
v 8.080000 2.678100 12.595000
v 8.080000 2.678100 12.350000
v 8.080000 2.430000 12.350000
v 8.500000 2.430000 12.350000
v 8.500000 2.678100 12.350000
v 8.500000 2.678100 12.595000
v 8.500000 2.850000 12.595000
v 8.500000 2.850000 11.195000
v 8.500000 2.430000 11.195000
v 13.520000 2.430000 11.195000
v 13.520000 2.850000 11.195000
v 13.520000 2.850000 14.025000
v 13.520000 2.430000 14.025000
s 0
f 663 664 665 666 667 668
f 669 670 671 672 673 674
f 675 676 677 678
f 669 674 675 678 663 668
f 667 666 671 670
f 665 664 677 676 673 672
f 673 676 675 674
f 667 670 669 668
f 665 672 671 666
f 663 678 677 664
o Roof_Headhouse_CLT
v 8.328100 2.678100 14.025000
v 13.271900 2.678100 14.025000
v 13.271900 7.291900 14.025000
v 8.328100 7.291900 14.025000
v 8.328100 2.678100 14.270000
v 13.271900 2.678100 14.270000
v 13.271900 7.291900 14.270000
v 8.328100 7.291900 14.270000
s 0
f 682 681 680 679
f 683 684 685 686
f 679 680 684 683
f 680 681 685 684
f 681 682 686 685
f 682 679 683 686
o Roof_Headhouse_InsulationFlat
v 8.500000 2.850000 14.270000
v 13.100000 2.850000 14.270000
v 13.100000 7.120000 14.270000
v 8.500000 7.120000 14.270000
v 8.500000 2.850000 14.470000
v 13.100000 2.850000 14.470000
v 13.100000 7.120000 14.470000
v 8.500000 7.120000 14.470000
s 0
f 690 689 688 687
f 691 692 693 694
f 687 688 692 691
f 688 689 693 692
f 689 690 694 693
f 690 687 691 694
o Roof_Headhouse_InsulationTaper
v 8.500000 2.850000 14.470000
v 13.100000 2.850000 14.470000
v 13.100000 2.850000 14.470000
v 8.500000 4.985000 14.470000
v 8.500000 2.850000 14.587000
v 13.100000 2.850000 14.587000
v 13.100000 2.850000 14.587000
v 8.500000 4.985000 14.495000
v 13.100000 2.850000 14.470000
v 13.100000 2.850000 14.470000
v 13.100000 7.120000 14.470000
v 13.100000 7.120000 14.470000
v 8.500000 4.985000 14.470000
v 8.500000 4.985000 14.470000
v 13.100000 2.850000 14.587000
v 13.100000 2.850000 14.587000
v 13.100000 7.120000 14.587000
v 13.100000 7.120000 14.587000
v 8.500000 4.985000 14.495000
v 8.500000 4.985000 14.495000
v 13.100000 7.120000 14.470000
v 13.100000 7.120000 14.470000
v 8.500000 7.120000 14.470000
v 8.500000 4.985000 14.470000
v 13.100000 7.120000 14.587000
v 13.100000 7.120000 14.587000
v 8.500000 7.120000 14.587000
v 8.500000 4.985000 14.495000
s 0
f 698 697 696 695
f 699 700 701 702
f 695 696 700 699
f 696 697 701 700
f 697 698 702 701
f 698 695 699 702
f 708 707 706 705 704 703
f 709 710 711 712 713 714
f 703 704 710 709
f 704 705 711 710
f 705 706 712 711
f 706 707 713 712
f 707 708 714 713
f 708 703 709 714
f 718 717 716 715
f 719 720 721 722
f 715 716 720 719
f 716 717 721 720
f 717 718 722 721
f 718 715 719 722
o CapPlate-Deck9-S
v 13.520000 7.291900 12.806000
v 15.190000 7.291900 12.806000
v 15.190000 7.540000 12.806000
v 13.520000 7.540000 12.806000
v 13.520000 7.291900 12.825000
v 15.190000 7.291900 12.825000
v 15.190000 7.540000 12.833000
v 13.520000 7.540000 12.833000
s 0
f 726 725 724 723
f 727 728 729 730
f 723 724 728 727
f 724 725 729 728
f 725 726 730 729
f 726 723 727 730
o CapPlate-Deck9-S2
v 16.389999 7.540000 12.806000
v 16.389999 7.291900 12.806000
v 20.691900 7.291900 12.806000
v 20.900000 7.540000 12.806000
v 16.389999 7.540000 12.833000
v 16.389999 7.291900 12.825000
v 20.691900 7.291900 12.825000
v 20.900000 7.540000 12.833000
s 0
f 734 733 732 731
f 735 736 737 738
f 731 732 736 735
f 732 733 737 736
f 733 734 738 737
f 734 731 735 738
o CapPlate-Deck9-W
v 20.900000 7.540000 12.806000
v 20.691900 7.291900 12.806000
v 20.691900 0.188100 12.806000
v 20.900000 -0.160000 12.806000
v 20.900000 7.540000 12.833000
v 20.691900 7.291900 12.825000
v 20.691900 0.188100 12.825000
v 20.900000 -0.160000 12.833000
s 0
f 742 741 740 739
f 743 744 745 746
f 739 740 744 743
f 740 741 745 744
f 741 742 746 745
f 742 739 743 746
o CapPlate-Deck9-N
v 20.900000 -0.160000 12.806000
v 20.691900 0.188100 12.806000
v 8.748100 0.188100 12.806000
v 8.500000 -0.160000 12.806000
v 20.900000 -0.160000 12.833000
v 20.691900 0.188100 12.825000
v 8.748100 0.188100 12.825000
v 8.500000 -0.160000 12.833000
s 0
f 750 749 748 747
f 751 752 753 754
f 747 748 752 751
f 748 749 753 752
f 749 750 754 753
f 750 747 751 754
o CapPlate-Deck9-E
v 8.748100 0.188100 12.806000
v 8.748100 2.430000 12.806000
v 8.500000 2.430000 12.806000
v 8.500000 -0.160000 12.806000
v 8.748100 0.188100 12.825000
v 8.748100 2.430000 12.825000
v 8.500000 2.430000 12.833000
v 8.500000 -0.160000 12.833000
s 0
f 758 757 756 755
f 759 760 761 762
f 755 756 760 759
f 756 757 761 760
f 757 758 762 761
f 758 755 759 762
o Cornice-Deck9-S
v 15.090000 7.540000 11.464400
v 16.490000 7.540000 11.464400
v 16.490000 7.640000 11.464400
v 15.090000 7.640000 11.464400
v 15.090000 7.540000 11.534400
v 16.490000 7.540000 11.534400
v 16.490000 7.640000 11.534400
v 15.090000 7.640000 11.534400
s 0
f 766 765 764 763
f 767 768 769 770
f 763 764 768 767
f 764 765 769 768
f 765 766 770 769
f 766 763 767 770
o Cornice-Deck9-N
v 8.500000 -0.160000 12.736000
v 20.900000 -0.160000 12.736000
v 20.900000 0.000000 12.736000
v 8.500000 0.000000 12.736000
v 8.500000 -0.160000 12.806000
v 20.900000 -0.160000 12.806000
v 20.900000 0.000000 12.806000
v 8.500000 0.000000 12.806000
s 0
f 774 773 772 771
f 775 776 777 778
f 771 772 776 775
f 772 773 777 776
f 773 774 778 777
f 774 771 775 778
o Parapet-Deck9-S
v 13.520000 7.120000 11.534400
v 13.520000 7.291900 11.534400
v 13.520000 7.291900 12.806000
v 13.520000 7.540000 12.806000
v 13.520000 7.540000 10.950000
v 13.520000 7.291900 10.950000
v 13.520000 7.291900 11.195000
v 13.520000 7.120000 11.195000
v 16.389999 7.291900 12.806000
v 16.389999 7.540000 12.806000
v 16.389999 7.540000 11.534400
v 16.389999 7.291900 11.534400
v 15.190000 7.291900 11.534400
v 15.190000 7.540000 11.534400
v 15.190000 7.540000 12.806000
v 15.190000 7.291900 12.806000
v 20.520000 7.120000 11.195000
v 20.520000 7.291900 11.195000
v 20.520000 7.291900 10.950000
v 20.520000 7.540000 10.950000
v 20.520000 7.540000 12.806000
v 20.520000 7.291900 12.806000
v 20.520000 7.291900 11.534400
v 20.520000 7.120000 11.534400
s 0
f 779 780 781 782 783 784 785 786
f 787 788 789 790
f 791 792 793 794
f 795 796 797 798 799 800 801 802
f 795 802 779 786
f 797 796 785 784
f 791 794 781 780
f 801 800 787 790
f 783 782 793 792 789 788 799 798
f 783 798 797 784
f 785 796 795 786
f 779 802 801 790 789 792 791 780
f 781 794 793 782
f 787 800 799 788
o Parapet-Deck9-W
v 20.520000 0.000000 12.806000
v 20.520000 0.188100 12.806000
v 20.520000 0.188100 11.534400
v 20.520000 7.291900 11.534400
v 20.520000 7.291900 12.806000
v 20.520000 7.540000 12.806000
v 20.520000 7.540000 10.950000
v 20.520000 7.291900 10.950000
v 20.520000 7.291900 11.195000
v 20.520000 0.188100 11.195000
v 20.520000 0.188100 10.950000
v 20.520000 0.000000 10.950000
v 20.691900 0.188100 11.195000
v 20.691900 7.291900 11.195000
v 20.691900 7.291900 10.950000
v 20.691900 0.188100 10.950000
v 20.691900 0.188100 12.806000
v 20.691900 7.291900 12.806000
v 20.691900 7.291900 11.534400
v 20.691900 0.188100 11.534400
v 20.900000 0.000000 10.950000
v 20.900000 7.540000 10.950000
v 20.900000 7.540000 12.806000
v 20.900000 0.000000 12.806000
s 0
f 803 804 805 806 807 808 809 810 811 812 813 814
f 815 816 817 818
f 819 820 821 822
f 823 824 825 826
f 823 826 803 814
f 817 816 811 810
f 821 820 807 806
f 813 812 815 818
f 805 804 819 822
f 809 808 825 824
f 813 818 817 810 809 824 823 814
f 811 816 815 812
f 805 822 821 806
f 803 826 825 808 807 820 819 804
o Parapet-Deck9-N
v 8.920000 0.000000 12.806000
v 8.920000 0.188100 12.806000
v 8.920000 0.188100 11.534400
v 8.920000 0.360000 11.534400
v 8.920000 0.360000 11.195000
v 8.920000 0.188100 11.195000
v 8.920000 0.188100 10.950000
v 8.920000 0.000000 10.950000
v 20.520000 0.000000 10.950000
v 20.520000 0.188100 10.950000
v 20.520000 0.188100 11.195000
v 20.520000 0.360000 11.195000
v 20.520000 0.360000 11.534400
v 20.520000 0.188100 11.534400
v 20.520000 0.188100 12.806000
v 20.520000 0.000000 12.806000
s 0
f 827 828 829 830 831 832 833 834
f 835 836 837 838 839 840 841 842
f 835 842 827 834
f 833 832 837 836
f 829 828 841 840
f 831 830 839 838
f 833 836 835 834
f 831 838 837 832
f 829 840 839 830
f 827 842 841 828
o Parapet-Deck9-E
v 8.500000 0.000000 12.806000
v 8.500000 2.430000 12.806000
v 8.500000 2.430000 10.950000
v 8.500000 0.000000 10.950000
v 8.748100 0.188100 10.950000
v 8.748100 2.430000 10.950000
v 8.748100 2.430000 11.195000
v 8.748100 0.188100 11.195000
v 8.748100 0.188100 11.534400
v 8.748100 2.430000 11.534400
v 8.748100 2.430000 12.806000
v 8.748100 0.188100 12.806000
v 8.920000 0.000000 10.950000
v 8.920000 0.188100 10.950000
v 8.920000 0.188100 11.195000
v 8.920000 2.430000 11.195000
v 8.920000 2.430000 11.534400
v 8.920000 0.188100 11.534400
v 8.920000 0.188100 12.806000
v 8.920000 0.000000 12.806000
s 0
f 843 844 845 846
f 847 848 849 850
f 851 852 853 854
f 855 856 857 858 859 860 861 862
f 855 862 843 846
f 847 850 857 856
f 851 854 861 860
f 845 844 853 852 859 858 849 848
f 845 848 847 856 855 846
f 849 858 857 850
f 851 860 859 852
f 843 862 861 854 853 844
o CapPlate-Unit8-N
v 8.080000 2.430000 13.076600
v 8.080000 2.850000 13.076600
v 0.400000 2.850000 13.076600
v -0.170000 2.430000 13.076600
v 8.080000 2.430000 13.110600
v 8.080000 2.850000 13.095600
v 0.400000 2.850000 13.095600
v -0.170000 2.430000 13.110600
s 0
f 866 865 864 863
f 867 868 869 870
f 863 864 868 867
f 864 865 869 868
f 865 866 870 869
f 866 863 867 870
o CapPlate-Unit8-E
v -0.170000 2.430000 13.076600
v 0.400000 2.850000 13.076600
v 0.400000 10.880000 13.076600
v -0.170000 11.300000 13.076600
v -0.170000 2.430000 13.110600
v 0.400000 2.850000 13.095600
v 0.400000 10.880000 13.095600
v -0.170000 11.300000 13.110600
s 0
f 874 873 872 871
f 875 876 877 878
f 871 872 876 875
f 872 873 877 876
f 873 874 878 877
f 874 871 875 878
o CapPlate-Unit8-S
v 0.400000 10.880000 13.076600
v 10.680000 10.880000 13.076600
v 11.100000 11.300000 13.076600
v -0.170000 11.300000 13.076600
v 0.400000 10.880000 13.095600
v 10.680000 10.880000 13.095600
v 11.100000 11.300000 13.110600
v -0.170000 11.300000 13.110600
s 0
f 882 881 880 879
f 883 884 885 886
f 879 880 884 883
f 880 881 885 884
f 881 882 886 885
f 882 879 883 886
o CapPlate-Unit8-W
v 10.680000 10.880000 13.076600
v 10.680000 7.540000 13.076600
v 11.100000 7.540000 13.076600
v 11.100000 11.300000 13.076600
v 10.680000 10.880000 13.095600
v 10.680000 7.540000 13.095600
v 11.100000 7.540000 13.110600
v 11.100000 11.300000 13.110600
s 0
f 890 889 888 887
f 891 892 893 894
f 887 888 892 891
f 888 889 893 892
f 889 890 894 893
f 890 887 891 894
o Cornice-Unit8-E
v -0.170000 2.430000 13.006600
v 0.000000 2.430000 13.006600
v 0.000000 11.300000 13.006600
v -0.170000 11.300000 13.006600
v -0.170000 2.430000 13.076600
v 0.000000 2.430000 13.076600
v 0.000000 11.300000 13.076600
v -0.170000 11.300000 13.076600
s 0
f 898 897 896 895
f 899 900 901 902
f 895 896 900 899
f 896 897 901 900
f 897 898 902 901
f 898 895 899 902
o Parapet-Unit8-N
v 0.400000 2.430000 13.076600
v 0.400000 2.850000 13.076600
v 0.400000 2.850000 12.595000
v 0.400000 2.678100 12.595000
v 0.400000 2.678100 12.350000
v 0.400000 2.430000 12.350000
v 8.080000 2.430000 12.350000
v 8.080000 2.678100 12.350000
v 8.080000 2.678100 12.595000
v 8.080000 2.850000 12.595000
v 8.080000 2.850000 13.076600
v 8.080000 2.430000 13.076600
s 0
f 903 904 905 906 907 908
f 909 910 911 912 913 914
f 909 914 903 908
f 907 906 911 910
f 905 904 913 912
f 907 910 909 908
f 905 912 911 906
f 903 914 913 904
o Parapet-Unit8-E
v 0.000000 2.430000 13.076600
v 0.000000 11.300000 13.076600
v 0.000000 11.300000 12.350000
v 0.000000 2.430000 12.350000
v 0.228100 2.678100 12.350000
v 0.228100 11.051900 12.350000
v 0.228100 11.051900 12.595000
v 0.228100 2.678100 12.595000
v 0.400000 2.430000 12.350000
v 0.400000 2.678100 12.350000
v 0.400000 2.678100 12.595000
v 0.400000 11.051900 12.595000
v 0.400000 11.051900 12.350000
v 0.400000 11.300000 12.350000
v 0.400000 11.300000 13.076600
v 0.400000 2.430000 13.076600
s 0
f 915 916 917 918
f 919 920 921 922
f 923 924 925 926 927 928 929 930
f 923 930 915 918
f 927 926 921 920
f 919 922 925 924
f 917 916 929 928
f 917 928 927 920 919 924 923 918
f 921 926 925 922
f 915 930 929 916
o Parapet-Unit8-S
v 0.400000 10.880000 13.076600
v 0.400000 11.300000 13.076600
v 0.400000 11.300000 12.350000
v 0.400000 11.051900 12.350000
v 0.400000 11.051900 12.595000
v 0.400000 10.880000 12.595000
v 10.851900 10.880000 12.595000
v 10.851900 11.051900 12.595000
v 10.851900 11.051900 12.350000
v 10.851900 10.880000 12.350000
v 11.100000 10.880000 12.350000
v 11.100000 11.300000 12.350000
v 11.100000 11.300000 13.076600
v 11.100000 10.880000 13.076600
s 0
f 931 932 933 934 935 936
f 937 938 939 940
f 941 942 943 944
f 937 940 941 944 931 936
f 939 938 935 934
f 933 932 943 942
f 939 934 933 942 941 940
f 935 938 937 936
f 931 944 943 932
o Parapet-Unit8-W
v 10.680000 7.540000 13.076600
v 10.680000 10.880000 13.076600
v 10.680000 10.880000 12.595000
v 10.680000 7.540000 12.595000
v 10.851900 7.540000 12.595000
v 10.851900 10.880000 12.595000
v 10.851900 10.880000 12.350000
v 10.851900 7.540000 12.350000
v 11.100000 7.540000 12.350000
v 11.100000 10.880000 12.350000
v 11.100000 10.880000 13.076600
v 11.100000 7.540000 13.076600
s 0
f 945 946 947 948
f 949 950 951 952
f 953 954 955 956
f 949 952 953 956 945 948
f 947 946 955 954 951 950
f 951 954 953 952
f 947 950 949 948
f 945 956 955 946
o CapPlate-Headhouse-N
v 8.080000 2.430000 14.718000
v 13.520000 2.430000 14.718000
v 13.100000 2.850000 14.718000
v 8.500000 2.850000 14.718000
v 8.080000 2.430000 14.752000
v 13.520000 2.430000 14.752000
v 13.100000 2.850000 14.737000
v 8.500000 2.850000 14.737000
s 0
f 960 959 958 957
f 961 962 963 964
f 957 958 962 961
f 958 959 963 962
f 959 960 964 963
f 960 957 961 964
o CapPlate-Headhouse-W
v 13.100000 7.120000 14.718000
v 13.100000 2.850000 14.718000
v 13.520000 2.430000 14.718000
v 13.520000 7.540000 14.718000
v 13.100000 7.120000 14.737000
v 13.100000 2.850000 14.737000
v 13.520000 2.430000 14.752000
v 13.520000 7.540000 14.752000
s 0
f 968 967 966 965
f 969 970 971 972
f 965 966 970 969
f 966 967 971 970
f 967 968 972 971
f 968 965 969 972
o CapPlate-Headhouse-S
v 8.500000 7.120000 14.718000
v 13.100000 7.120000 14.718000
v 13.520000 7.540000 14.718000
v 8.080000 7.540000 14.718000
v 8.500000 7.120000 14.737000
v 13.100000 7.120000 14.737000
v 13.520000 7.540000 14.752000
v 8.080000 7.540000 14.752000
s 0
f 976 975 974 973
f 977 978 979 980
f 973 974 978 977
f 974 975 979 978
f 975 976 980 979
f 976 973 977 980
o CapPlate-Headhouse-E
v 8.500000 2.850000 14.718000
v 8.500000 4.785000 14.718000
v 8.080000 4.785000 14.718000
v 8.080000 2.430000 14.718000
v 8.500000 2.850000 14.737000
v 8.500000 4.785000 14.737000
v 8.080000 4.785000 14.752000
v 8.080000 2.430000 14.752000
s 0
f 984 983 982 981
f 985 986 987 988
f 981 982 986 985
f 982 983 987 986
f 983 984 988 987
f 984 981 985 988
o CapPlate-Headhouse-E2
v 8.080000 5.185000 14.718000
v 8.500000 5.185000 14.718000
v 8.500000 7.120000 14.718000
v 8.080000 7.540000 14.718000
v 8.080000 5.185000 14.752000
v 8.500000 5.185000 14.737000
v 8.500000 7.120000 14.737000
v 8.080000 7.540000 14.752000
s 0
f 992 991 990 989
f 993 994 995 996
f 989 990 994 993
f 990 991 995 994
f 991 992 996 995
f 992 989 993 996
o Cornice-Headhouse-E
v 7.980000 4.685000 14.425000
v 8.080000 4.685000 14.425000
v 8.080000 5.285000 14.425000
v 7.980000 5.285000 14.425000
v 7.980000 4.685000 14.495000
v 8.080000 4.685000 14.495000
v 8.080000 5.285000 14.495000
v 7.980000 5.285000 14.495000
s 0
f 1000 999 998 997
f 1001 1002 1003 1004
f 997 998 1002 1001
f 998 999 1003 1002
f 999 1000 1004 1003
f 1000 997 1001 1004
o Parapet-Headhouse-N
v 8.080000 2.430000 14.718000
v 8.080000 2.850000 14.718000
v 8.080000 2.850000 14.025000
v 8.080000 2.430000 14.025000
v 13.271900 2.678100 14.270000
v 13.271900 2.850000 14.270000
v 13.271900 2.850000 14.025000
v 13.271900 2.678100 14.025000
v 8.328100 2.678100 14.025000
v 8.328100 2.850000 14.025000
v 8.328100 2.850000 14.270000
v 8.328100 2.678100 14.270000
v 13.520000 2.430000 14.025000
v 13.520000 2.850000 14.025000
v 13.520000 2.850000 14.718000
v 13.520000 2.430000 14.718000
s 0
f 1005 1006 1007 1008
f 1009 1010 1011 1012
f 1013 1014 1015 1016
f 1017 1018 1019 1020
f 1017 1020 1005 1008
f 1013 1016 1009 1012
f 1007 1006 1019 1018 1011 1010 1015 1014
f 1007 1014 1013 1012 1011 1018 1017 1008
f 1015 1010 1009 1016
f 1005 1020 1019 1006
o Parapet-Headhouse-W
v 13.100000 2.850000 14.718000
v 13.100000 7.120000 14.718000
v 13.100000 7.120000 14.270000
v 13.100000 2.850000 14.270000
v 13.271900 2.850000 14.270000
v 13.271900 7.120000 14.270000
v 13.271900 7.120000 14.025000
v 13.271900 2.850000 14.025000
v 13.520000 2.850000 14.025000
v 13.520000 7.120000 14.025000
v 13.520000 7.120000 14.718000
v 13.520000 2.850000 14.718000
s 0
f 1021 1022 1023 1024
f 1025 1026 1027 1028
f 1029 1030 1031 1032
f 1025 1028 1029 1032 1021 1024
f 1023 1022 1031 1030 1027 1026
f 1027 1030 1029 1028
f 1023 1026 1025 1024
f 1021 1032 1031 1022
o Parapet-Headhouse-S
v 8.080000 7.120000 14.718000
v 8.080000 7.540000 14.718000
v 8.080000 7.540000 14.025000
v 8.080000 7.120000 14.025000
v 13.271900 7.120000 14.270000
v 13.271900 7.291900 14.270000
v 13.271900 7.291900 14.025000
v 13.271900 7.120000 14.025000
v 8.328100 7.120000 14.025000
v 8.328100 7.291900 14.025000
v 8.328100 7.291900 14.270000
v 8.328100 7.120000 14.270000
v 13.520000 7.120000 14.025000
v 13.520000 7.540000 14.025000
v 13.520000 7.540000 14.718000
v 13.520000 7.120000 14.718000
s 0
f 1033 1034 1035 1036
f 1037 1038 1039 1040
f 1041 1042 1043 1044
f 1045 1046 1047 1048
f 1041 1044 1037 1040 1045 1048 1033 1036
f 1039 1038 1043 1042
f 1035 1034 1047 1046
f 1035 1046 1045 1040 1039 1042 1041 1036
f 1043 1038 1037 1044
f 1033 1048 1047 1034
o Parapet-Headhouse-E
v 8.080000 2.850000 14.718000
v 8.080000 4.785000 14.718000
v 8.080000 4.785000 14.495000
v 8.080000 5.185000 14.495000
v 8.080000 5.185000 14.718000
v 8.080000 7.120000 14.718000
v 8.080000 7.120000 14.025000
v 8.080000 2.850000 14.025000
v 8.328100 2.850000 14.025000
v 8.328100 7.120000 14.025000
v 8.328100 7.120000 14.270000
v 8.328100 2.850000 14.270000
v 8.500000 2.850000 14.270000
v 8.500000 7.120000 14.270000
v 8.500000 7.120000 14.718000
v 8.500000 5.185000 14.718000
v 8.500000 5.185000 14.495000
v 8.500000 4.785000 14.495000
v 8.500000 4.785000 14.718000
v 8.500000 2.850000 14.718000
s 0
f 1049 1050 1051 1052 1053 1054 1055 1056
f 1057 1058 1059 1060
f 1061 1062 1063 1064 1065 1066 1067 1068
f 1057 1060 1061 1068 1049 1056
f 1065 1064 1053 1052
f 1051 1050 1067 1066
f 1055 1054 1063 1062 1059 1058
f 1055 1058 1057 1056
f 1059 1062 1061 1060
f 1051 1066 1065 1052
f 1049 1068 1067 1050
f 1053 1064 1063 1054
