# Blender 4.5.10 LTS
# www.blender.org
o L0-courtfacing-N
v 0.400000 2.430000 -1.650000
v 8.500000 2.430000 -1.650000
v 8.500000 2.850000 -1.650000
v 0.400000 2.850000 -1.650000
v 0.400000 2.430000 1.150000
v 8.500000 2.430000 1.150000
v 8.500000 2.850000 1.150000
v 0.400000 2.850000 1.150000
s 0
f 4 3 2 1
f 5 6 7 8
f 1 2 6 5
f 2 3 7 6
f 3 4 8 7
f 4 1 5 8
o L0-streetfront-E
v 0.000000 2.430000 -1.650000
v 0.400000 2.430000 -1.650000
v 0.400000 10.300000 -1.650000
v 0.000000 10.300000 -1.650000
v 0.000000 2.430000 1.150000
v 0.400000 2.430000 1.150000
v 0.400000 10.300000 1.150000
v 0.000000 10.300000 1.150000
s 0
f 12 11 10 9
f 13 14 15 16
f 9 10 14 13
f 10 11 15 14
f 11 12 16 15
f 12 9 13 16
o L0-internaljoin-S
v 0.400000 9.980000 -1.400000
v 10.680000 9.980000 -1.400000
v 10.680000 10.300000 -1.400000
v 0.400000 10.300000 -1.400000
v 0.400000 9.980000 1.150000
v 10.680000 9.980000 1.150000
v 10.680000 10.300000 1.150000
v 0.400000 10.300000 1.150000
s 0
f 20 19 18 17
f 21 22 23 24
f 17 18 22 21
f 18 19 23 22
f 19 20 24 23
f 20 17 21 24
o L0-courtfacing-W
v 10.680000 7.120000 -1.650000
v 11.100000 7.120000 -1.650000
v 11.100000 10.300000 -1.650000
v 10.680000 10.300000 -1.650000
v 10.680000 7.120000 1.150000
v 11.100000 7.120000 1.150000
v 11.100000 10.300000 1.150000
v 10.680000 10.300000 1.150000
s 0
f 28 27 26 25
f 29 30 31 32
f 25 26 30 29
f 26 27 31 30
f 27 28 32 31
f 28 25 29 32
o L0.Floor
v 10.680000 7.120000 -1.650000
v 10.680000 10.300000 -1.650000
v 0.400000 10.300000 -1.650000
v 0.400000 2.850000 -1.650000
v 8.500000 2.850000 -1.650000
v 8.500000 7.120000 -1.650000
v 10.680000 7.120000 -1.400000
v 10.680000 10.300000 -1.400000
v 0.400000 10.300000 -1.400000
v 0.400000 2.850000 -1.400000
v 8.500000 2.850000 -1.400000
v 8.500000 7.120000 -1.400000
s 0
f 38 37 36 35 34 33
f 39 40 41 42 43 44
f 33 34 40 39
f 34 35 41 40
f 35 36 42 41
f 36 37 43 42
f 37 38 44 43
f 38 33 39 44
o L1-alleyback-W
v 20.520000 0.000000 -0.250000
v 20.900000 0.000000 -0.250000
v 20.900000 7.540000 -0.250000
v 20.520000 7.540000 -0.250000
v 20.520000 0.000000 2.550000
v 20.900000 0.000000 2.550000
v 20.900000 7.540000 2.550000
v 20.520000 7.540000 2.550000
s 0
f 48 47 46 45
f 49 50 51 52
f 45 46 50 49
f 46 47 51 50
f 47 48 52 51
f 48 45 49 52
o L1-mitoyen-N
v 12.870000 0.000000 -0.250000
v 20.520000 0.000000 -0.250000
v 20.520000 0.360000 -0.250000
v 12.870000 0.360000 -0.250000
v 12.870000 0.000000 2.550000
v 20.520000 0.000000 2.550000
v 20.520000 0.360000 2.550000
v 12.870000 0.360000 2.550000
s 0
f 56 55 54 53
f 57 58 59 60
f 53 54 58 57
f 54 55 59 58
f 55 56 60 59
f 56 53 57 60
o L1-courtfacing-S
v 11.100000 7.120000 -0.250000
v 20.520000 7.120000 -0.250000
v 20.520000 7.540000 -0.250000
v 11.100000 7.540000 -0.250000
v 11.100000 7.120000 2.550000
v 20.520000 7.120000 2.550000
v 20.520000 7.540000 2.550000
v 11.100000 7.540000 2.550000
s 0
f 64 63 62 61
f 65 66 67 68
f 61 62 66 65
f 62 63 67 66
f 63 64 68 67
f 64 61 65 68
o L1.Floor
v 11.100000 7.120000 -0.250000
v 11.100000 2.850000 -0.250000
v 12.870000 2.850000 -0.250000
v 12.870000 0.360000 -0.250000
v 20.520000 0.360000 -0.250000
v 20.520000 7.120000 -0.250000
v 11.100000 7.120000 0.000000
v 11.100000 2.850000 0.000000
v 12.870000 2.850000 0.000000
v 12.870000 0.360000 0.000000
v 20.520000 0.360000 0.000000
v 20.520000 7.120000 0.000000
s 0
f 74 73 72 71 70 69
f 75 76 77 78 79 80
f 69 70 76 75
f 70 71 77 76
f 71 72 78 77
f 72 73 79 78
f 73 74 80 79
f 74 69 75 80
o L2-courtfacing-N
v 0.400000 2.430000 3.950000
v 0.400000 2.850000 3.950000
v 0.400000 2.850000 1.400000
v 0.400000 2.678100 1.400000
v 0.400000 2.678100 1.150000
v 0.400000 2.430000 1.150000
v 8.500000 2.430000 1.150000
v 8.500000 2.678100 1.150000
v 8.500000 2.678100 1.400000
v 8.500000 2.850000 1.400000
v 8.500000 2.850000 3.950000
v 8.500000 2.430000 3.950000
s 0
f 81 82 83 84 85 86
f 87 88 89 90 91 92
f 87 92 81 86
f 85 84 89 88
f 83 82 91 90
f 85 88 87 86
f 83 90 89 84
f 81 92 91 82
o L2-streetfront-E
v 0.000000 2.430000 3.950000
v 0.000000 10.300000 3.950000
v 0.000000 10.300000 1.150000
v 0.000000 2.430000 1.150000
v 0.228100 2.678100 1.150000
v 0.228100 10.300000 1.150000
v 0.228100 10.300000 1.400000
v 0.228100 2.678100 1.400000
v 0.400000 2.430000 1.150000
v 0.400000 2.678100 1.150000
v 0.400000 2.678100 1.400000
v 0.400000 10.300000 1.400000
v 0.400000 10.300000 3.950000
v 0.400000 2.430000 3.950000
s 0
f 93 94 95 96
f 97 98 99 100
f 101 102 103 104 105 106
f 101 106 93 96
f 97 100 103 102
f 95 94 105 104 99 98
f 95 98 97 102 101 96
f 99 104 103 100
f 93 106 105 94
o L2-internaljoin-S
v 0.400000 9.980000 3.950000
v 0.400000 10.300000 3.950000
v 0.400000 10.300000 1.400000
v 0.400000 9.980000 1.400000
v 10.680000 9.980000 1.400000
v 10.680000 10.300000 1.400000
v 10.680000 10.300000 3.950000
v 10.680000 9.980000 3.950000
s 0
f 107 108 109 110
f 111 112 113 114
f 111 114 107 110
f 109 108 113 112
f 109 112 111 110
f 107 114 113 108
o L2-courtfacing-W
v 10.680000 7.120000 3.950000
v 10.680000 10.300000 3.950000
v 10.680000 10.300000 1.400000
v 10.680000 7.120000 1.400000
v 10.851900 7.120000 1.400000
v 10.851900 10.300000 1.400000
v 10.851900 10.300000 1.150000
v 10.851900 7.120000 1.150000
v 11.100000 7.120000 1.150000
v 11.100000 10.300000 1.150000
v 11.100000 10.300000 3.950000
v 11.100000 7.120000 3.950000
s 0
f 115 116 117 118
f 119 120 121 122
f 123 124 125 126
f 119 122 123 126 115 118
f 117 116 125 124 121 120
f 121 124 123 122
f 117 120 119 118
f 115 126 125 116
o L2.Floor
v 10.851900 7.120000 1.150000
v 10.851900 10.300000 1.150000
v 0.228100 10.300000 1.150000
v 0.228100 2.678100 1.150000
v 8.500000 2.678100 1.150000
v 8.500000 7.120000 1.150000
v 10.851900 7.120000 1.400000
v 10.851900 10.300000 1.400000
v 0.228100 10.300000 1.400000
v 0.228100 2.678100 1.400000
v 8.500000 2.678100 1.400000
v 8.500000 7.120000 1.400000
s 0
f 132 131 130 129 128 127
f 133 134 135 136 137 138
f 127 128 134 133
f 128 129 135 134
f 129 130 136 135
f 130 131 137 136
f 131 132 138 137
f 132 127 133 138
o L3-courtfacing-S
v 11.100000 7.120000 5.350000
v 11.100000 7.540000 5.350000
v 11.100000 7.540000 2.550000
v 11.100000 7.291900 2.550000
v 11.100000 7.291900 2.800000
v 11.100000 7.120000 2.800000
v 20.520000 7.120000 2.800000
v 20.520000 7.291900 2.800000
v 20.520000 7.291900 2.550000
v 20.520000 7.540000 2.550000
v 20.520000 7.540000 5.350000
v 20.520000 7.120000 5.350000
s 0
f 139 140 141 142 143 144
f 145 146 147 148 149 150
f 145 150 139 144
f 147 146 143 142
f 141 140 149 148
f 141 148 147 142
f 143 146 145 144
f 139 150 149 140
o L3-alleyback-W
v 20.520000 0.000000 5.350000
v 20.520000 7.540000 5.350000
v 20.520000 7.540000 2.550000
v 20.520000 7.291900 2.550000
v 20.520000 7.291900 2.800000
v 20.520000 0.188100 2.800000
v 20.520000 0.188100 2.550000
v 20.520000 0.000000 2.550000
v 20.691900 0.188100 2.800000
v 20.691900 7.291900 2.800000
v 20.691900 7.291900 2.550000
v 20.691900 0.188100 2.550000
v 20.900000 0.000000 2.550000
v 20.900000 7.540000 2.550000
v 20.900000 7.540000 5.350000
v 20.900000 0.000000 5.350000
s 0
f 151 152 153 154 155 156 157 158
f 159 160 161 162
f 163 164 165 166
f 163 166 151 158
f 161 160 155 154
f 157 156 159 162
f 153 152 165 164
f 157 162 161 154 153 164 163 158
f 155 160 159 156
f 151 166 165 152
o L3-mitoyen-N
v 8.920000 0.000000 5.350000
v 8.920000 0.360000 5.350000
v 8.920000 0.360000 2.800000
v 8.920000 0.188100 2.800000
v 8.920000 0.188100 2.550000
v 8.920000 0.000000 2.550000
v 20.520000 0.000000 2.550000
v 20.520000 0.188100 2.550000
v 20.520000 0.188100 2.800000
v 20.520000 0.360000 2.800000
v 20.520000 0.360000 5.350000
v 20.520000 0.000000 5.350000
s 0
f 167 168 169 170 171 172
f 173 174 175 176 177 178
f 173 178 167 172
f 171 170 175 174
f 169 168 177 176
f 171 174 173 172
f 169 176 175 170
f 167 178 177 168
o L3-courtfacing-E
v 8.500000 0.000000 5.350000
v 8.500000 2.850000 5.350000
v 8.500000 2.850000 2.550000
v 8.500000 0.000000 2.550000
v 8.748100 0.188100 2.550000
v 8.748100 2.850000 2.550000
v 8.748100 2.850000 2.800000
v 8.748100 0.188100 2.800000
v 8.920000 0.000000 2.550000
v 8.920000 0.188100 2.550000
v 8.920000 0.188100 2.800000
v 8.920000 2.850000 2.800000
v 8.920000 2.850000 5.350000
v 8.920000 0.000000 5.350000
s 0
f 179 180 181 182
f 183 184 185 186
f 187 188 189 190 191 192
f 187 192 179 182
f 183 186 189 188
f 181 180 191 190 185 184
f 181 184 183 188 187 182
f 185 190 189 186
f 179 192 191 180
o L3.Floor
v 8.748100 0.188100 2.550000
v 20.691900 0.188100 2.550000
v 20.691900 7.291900 2.550000
v 11.100000 7.291900 2.550000
v 11.100000 2.850000 2.550000
v 8.748100 2.850000 2.550000
v 8.748100 0.188100 2.800000
v 20.691900 0.188100 2.800000
v 20.691900 7.291900 2.800000
v 11.100000 7.291900 2.800000
v 11.100000 2.850000 2.800000
v 8.748100 2.850000 2.800000
s 0
f 198 197 196 195 194 193
f 199 200 201 202 203 204
f 193 194 200 199
f 194 195 201 200
f 195 196 202 201
f 196 197 203 202
f 197 198 204 203
f 198 193 199 204
o L4-courtfacing-N
v 0.400000 2.430000 6.750000
v 0.400000 2.850000 6.750000
v 0.400000 2.850000 4.200000
v 0.400000 2.678100 4.200000
v 0.400000 2.678100 3.950000
v 0.400000 2.430000 3.950000
v 8.500000 2.430000 3.950000
v 8.500000 2.678100 3.950000
v 8.500000 2.678100 4.200000
v 8.500000 2.850000 4.200000
v 8.500000 2.850000 6.750000
v 8.500000 2.430000 6.750000
s 0
f 205 206 207 208 209 210
f 211 212 213 214 215 216
f 211 216 205 210
f 209 208 213 212
f 207 206 215 214
f 209 212 211 210
f 207 214 213 208
f 205 216 215 206
o L4-streetfront-E
v 0.000000 2.430000 6.750000
v 0.000000 10.300000 6.750000
v 0.000000 10.300000 3.950000
v 0.000000 2.430000 3.950000
v 0.228100 2.678100 3.950000
v 0.228100 10.300000 3.950000
v 0.228100 10.300000 4.200000
v 0.228100 2.678100 4.200000
v 0.400000 2.430000 3.950000
v 0.400000 2.678100 3.950000
v 0.400000 2.678100 4.200000
v 0.400000 10.300000 4.200000
v 0.400000 10.300000 6.750000
v 0.400000 2.430000 6.750000
s 0
f 217 218 219 220
f 221 222 223 224
f 225 226 227 228 229 230
f 225 230 217 220
f 221 224 227 226
f 219 218 229 228 223 222
f 219 222 221 226 225 220
f 223 228 227 224
f 217 230 229 218
o L4-internaljoin-S
v 0.400000 9.980000 6.750000
v 0.400000 10.300000 6.750000
v 0.400000 10.300000 4.200000
v 0.400000 9.980000 4.200000
v 10.680000 9.980000 4.200000
v 10.680000 10.300000 4.200000
v 10.680000 10.300000 6.750000
v 10.680000 9.980000 6.750000
s 0
f 231 232 233 234
f 235 236 237 238
f 235 238 231 234
f 233 232 237 236
f 233 236 235 234
f 231 238 237 232
o L4-courtfacing-W
v 10.680000 7.120000 6.750000
v 10.680000 10.300000 6.750000
v 10.680000 10.300000 4.200000
v 10.680000 7.120000 4.200000
v 10.851900 7.120000 4.200000
v 10.851900 10.300000 4.200000
v 10.851900 10.300000 3.950000
v 10.851900 7.120000 3.950000
v 11.100000 7.120000 3.950000
v 11.100000 10.300000 3.950000
v 11.100000 10.300000 6.750000
v 11.100000 7.120000 6.750000
s 0
f 239 240 241 242
f 243 244 245 246
f 247 248 249 250
f 243 246 247 250 239 242
f 241 240 249 248 245 244
f 245 248 247 246
f 241 244 243 242
f 239 250 249 240
o L4.Floor
v 10.851900 7.120000 3.950000
v 10.851900 10.300000 3.950000
v 0.228100 10.300000 3.950000
v 0.228100 2.678100 3.950000
v 8.500000 2.678100 3.950000
v 8.500000 7.120000 3.950000
v 10.851900 7.120000 4.200000
v 10.851900 10.300000 4.200000
v 0.228100 10.300000 4.200000
v 0.228100 2.678100 4.200000
v 8.500000 2.678100 4.200000
v 8.500000 7.120000 4.200000
s 0
f 256 255 254 253 252 251
f 257 258 259 260 261 262
f 251 252 258 257
f 252 253 259 258
f 253 254 260 259
f 254 255 261 260
f 255 256 262 261
f 256 251 257 262
o L5-courtfacing-S
v 11.100000 7.120000 8.150000
v 11.100000 7.540000 8.150000
v 11.100000 7.540000 5.350000
v 11.100000 7.291900 5.350000
v 11.100000 7.291900 5.600000
v 11.100000 7.120000 5.600000
v 20.520000 7.120000 5.600000
v 20.520000 7.291900 5.600000
v 20.520000 7.291900 5.350000
v 20.520000 7.540000 5.350000
v 20.520000 7.540000 8.150000
v 20.520000 7.120000 8.150000
s 0
f 263 264 265 266 267 268
f 269 270 271 272 273 274
f 269 274 263 268
f 271 270 267 266
f 265 264 273 272
f 265 272 271 266
f 267 270 269 268
f 263 274 273 264
o L5-alleyback-W
v 20.520000 0.000000 8.150000
v 20.520000 7.540000 8.150000
v 20.520000 7.540000 5.350000
v 20.520000 7.291900 5.350000
v 20.520000 7.291900 5.600000
v 20.520000 0.188100 5.600000
v 20.520000 0.188100 5.350000
v 20.520000 0.000000 5.350000
v 20.691900 0.188100 5.600000
v 20.691900 7.291900 5.600000
v 20.691900 7.291900 5.350000
v 20.691900 0.188100 5.350000
v 20.900000 0.000000 5.350000
v 20.900000 7.540000 5.350000
v 20.900000 7.540000 8.150000
v 20.900000 0.000000 8.150000
s 0
f 275 276 277 278 279 280 281 282
f 283 284 285 286
f 287 288 289 290
f 287 290 275 282
f 285 284 279 278
f 281 280 283 286
f 277 276 289 288
f 281 286 285 278 277 288 287 282
f 279 284 283 280
f 275 290 289 276
o L5-mitoyen-N
v 8.920000 0.000000 8.150000
v 8.920000 0.360000 8.150000
v 8.920000 0.360000 5.600000
v 8.920000 0.188100 5.600000
v 8.920000 0.188100 5.350000
v 8.920000 0.000000 5.350000
v 20.520000 0.000000 5.350000
v 20.520000 0.188100 5.350000
v 20.520000 0.188100 5.600000
v 20.520000 0.360000 5.600000
v 20.520000 0.360000 8.150000
v 20.520000 0.000000 8.150000
s 0
f 291 292 293 294 295 296
f 297 298 299 300 301 302
f 297 302 291 296
f 295 294 299 298
f 293 292 301 300
f 295 298 297 296
f 293 300 299 294
f 291 302 301 292
o L5-courtfacing-E
v 8.500000 0.000000 8.150000
v 8.500000 2.850000 8.150000
v 8.500000 2.850000 5.350000
v 8.500000 0.000000 5.350000
v 8.748100 0.188100 5.350000
v 8.748100 2.850000 5.350000
v 8.748100 2.850000 5.600000
v 8.748100 0.188100 5.600000
v 8.920000 0.000000 5.350000
v 8.920000 0.188100 5.350000
v 8.920000 0.188100 5.600000
v 8.920000 2.850000 5.600000
v 8.920000 2.850000 8.150000
v 8.920000 0.000000 8.150000
s 0
f 303 304 305 306
f 307 308 309 310
f 311 312 313 314 315 316
f 311 316 303 306
f 307 310 313 312
f 305 304 315 314 309 308
f 305 308 307 312 311 306
f 309 314 313 310
f 303 316 315 304
o L5.Floor
v 8.748100 0.188100 5.350000
v 20.691900 0.188100 5.350000
v 20.691900 7.291900 5.350000
v 11.100000 7.291900 5.350000
v 11.100000 2.850000 5.350000
v 8.748100 2.850000 5.350000
v 8.748100 0.188100 5.600000
v 20.691900 0.188100 5.600000
v 20.691900 7.291900 5.600000
v 11.100000 7.291900 5.600000
v 11.100000 2.850000 5.600000
v 8.748100 2.850000 5.600000
s 0
f 322 321 320 319 318 317
f 323 324 325 326 327 328
f 317 318 324 323
f 318 319 325 324
f 319 320 326 325
f 320 321 327 326
f 321 322 328 327
f 322 317 323 328
o L6-courtfacing-N
v 0.400000 2.430000 9.550000
v 0.400000 2.850000 9.550000
v 0.400000 2.850000 7.000000
v 0.400000 2.678100 7.000000
v 0.400000 2.678100 6.750000
v 0.400000 2.430000 6.750000
v 8.500000 2.430000 6.750000
v 8.500000 2.678100 6.750000
v 8.500000 2.678100 7.000000
v 8.500000 2.850000 7.000000
v 8.500000 2.850000 9.550000
v 8.500000 2.430000 9.550000
s 0
f 329 330 331 332 333 334
f 335 336 337 338 339 340
f 335 340 329 334
f 333 332 337 336
f 331 330 339 338
f 333 336 335 334
f 331 338 337 332
f 329 340 339 330
o L6-streetfront-E
v 0.000000 2.430000 9.550000
v 0.000000 11.300000 9.550000
v 0.000000 11.300000 6.750000
v 0.000000 2.430000 6.750000
v 0.228100 2.678100 6.750000
v 0.228100 11.051900 6.750000
v 0.228100 11.051900 7.000000
v 0.228100 2.678100 7.000000
v 0.400000 2.430000 6.750000
v 0.400000 2.678100 6.750000
v 0.400000 2.678100 7.000000
v 0.400000 11.051900 7.000000
v 0.400000 11.051900 6.750000
v 0.400000 11.300000 6.750000
v 0.400000 11.300000 9.550000
v 0.400000 2.430000 9.550000
s 0
f 341 342 343 344
f 345 346 347 348
f 349 350 351 352 353 354 355 356
f 349 356 341 344
f 353 352 347 346
f 345 348 351 350
f 343 342 355 354
f 343 354 353 346 345 350 349 344
f 347 352 351 348
f 341 356 355 342
o L6-courtfacing-S
v 0.400000 10.880000 9.550000
v 0.400000 11.300000 9.550000
v 0.400000 11.300000 6.750000
v 0.400000 11.051900 6.750000
v 0.400000 11.051900 7.000000
v 0.400000 10.880000 7.000000
v 10.851900 10.880000 7.000000
v 10.851900 11.051900 7.000000
v 10.851900 11.051900 6.750000
v 10.851900 10.880000 6.750000
v 11.100000 10.880000 6.750000
v 11.100000 11.300000 6.750000
v 11.100000 11.300000 9.550000
v 11.100000 10.880000 9.550000
s 0
f 357 358 359 360 361 362
f 363 364 365 366
f 367 368 369 370
f 363 366 367 370 357 362
f 365 364 361 360
f 359 358 369 368
f 365 360 359 368 367 366
f 361 364 363 362
f 357 370 369 358
o L6-courtfacing-W
v 10.680000 7.120000 9.550000
v 10.680000 10.880000 9.550000
v 10.680000 10.880000 7.000000
v 10.680000 7.120000 7.000000
v 10.851900 7.120000 7.000000
v 10.851900 10.880000 7.000000
v 10.851900 10.880000 6.750000
v 10.851900 7.120000 6.750000
v 11.100000 7.120000 6.750000
v 11.100000 10.880000 6.750000
v 11.100000 10.880000 9.550000
v 11.100000 7.120000 9.550000
s 0
f 371 372 373 374
f 375 376 377 378
f 379 380 381 382
f 375 378 379 382 371 374
f 373 372 381 380 377 376
f 377 380 379 378
f 373 376 375 374
f 371 382 381 372
o L6.Floor
v 10.851900 7.120000 6.750000
v 10.851900 11.051900 6.750000
v 0.228100 11.051900 6.750000
v 0.228100 2.678100 6.750000
v 8.500000 2.678100 6.750000
v 8.500000 7.120000 6.750000
v 10.851900 7.120000 7.000000
v 10.851900 11.051900 7.000000
v 0.228100 11.051900 7.000000
v 0.228100 2.678100 7.000000
v 8.500000 2.678100 7.000000
v 8.500000 7.120000 7.000000
s 0
f 388 387 386 385 384 383
f 389 390 391 392 393 394
f 383 384 390 389
f 384 385 391 390
f 385 386 392 391
f 386 387 393 392
f 387 388 394 393
f 388 383 389 394
o L7-courtfacing-S
v 11.100000 7.120000 10.950000
v 11.100000 7.540000 10.950000
v 11.100000 7.540000 8.150000
v 11.100000 7.291900 8.150000
v 11.100000 7.291900 8.400000
v 11.100000 7.120000 8.400000
v 20.520000 7.120000 8.400000
v 20.520000 7.291900 8.400000
v 20.520000 7.291900 8.150000
v 20.520000 7.540000 8.150000
v 20.520000 7.540000 10.950000
v 20.520000 7.120000 10.950000
s 0
f 395 396 397 398 399 400
f 401 402 403 404 405 406
f 401 406 395 400
f 403 402 399 398
f 397 396 405 404
f 397 404 403 398
f 399 402 401 400
f 395 406 405 396
o L7-alleyback-W
v 20.520000 0.000000 10.950000
v 20.520000 7.540000 10.950000
v 20.520000 7.540000 8.150000
v 20.520000 7.291900 8.150000
v 20.520000 7.291900 8.400000
v 20.520000 0.188100 8.400000
v 20.520000 0.188100 8.150000
v 20.520000 0.000000 8.150000
v 20.691900 0.188100 8.400000
v 20.691900 7.291900 8.400000
v 20.691900 7.291900 8.150000
v 20.691900 0.188100 8.150000
v 20.900000 0.000000 8.150000
v 20.900000 7.540000 8.150000
v 20.900000 7.540000 10.950000
v 20.900000 0.000000 10.950000
s 0
f 407 408 409 410 411 412 413 414
f 415 416 417 418
f 419 420 421 422
f 419 422 407 414
f 417 416 411 410
f 413 412 415 418
f 409 408 421 420
f 413 418 417 410 409 420 419 414
f 411 416 415 412
f 407 422 421 408
o L7-mitoyen-N
v 8.920000 0.000000 10.950000
v 8.920000 0.360000 10.950000
v 8.920000 0.360000 8.400000
v 8.920000 0.188100 8.400000
v 8.920000 0.188100 8.150000
v 8.920000 0.000000 8.150000
v 20.520000 0.000000 8.150000
v 20.520000 0.188100 8.150000
v 20.520000 0.188100 8.400000
v 20.520000 0.360000 8.400000
v 20.520000 0.360000 10.950000
v 20.520000 0.000000 10.950000
s 0
f 423 424 425 426 427 428
f 429 430 431 432 433 434
f 429 434 423 428
f 427 426 431 430
f 425 424 433 432
f 427 430 429 428
f 425 432 431 426
f 423 434 433 424
o L7-courtfacing-E
v 8.500000 0.000000 10.950000
v 8.500000 2.850000 10.950000
v 8.500000 2.850000 8.150000
v 8.500000 0.000000 8.150000
v 8.748100 0.188100 8.150000
v 8.748100 2.850000 8.150000
v 8.748100 2.850000 8.400000
v 8.748100 0.188100 8.400000
v 8.920000 0.000000 8.150000
v 8.920000 0.188100 8.150000
v 8.920000 0.188100 8.400000
v 8.920000 2.850000 8.400000
v 8.920000 2.850000 10.950000
v 8.920000 0.000000 10.950000
s 0
f 435 436 437 438
f 439 440 441 442
f 443 444 445 446 447 448
f 443 448 435 438
f 439 442 445 444
f 437 436 447 446 441 440
f 437 440 439 444 443 438
f 441 446 445 442
f 435 448 447 436
o L7.Floor
v 8.748100 0.188100 8.150000
v 20.691900 0.188100 8.150000
v 20.691900 7.291900 8.150000
v 11.100000 7.291900 8.150000
v 11.100000 2.850000 8.150000
v 8.748100 2.850000 8.150000
v 8.748100 0.188100 8.400000
v 20.691900 0.188100 8.400000
v 20.691900 7.291900 8.400000
v 11.100000 7.291900 8.400000
v 11.100000 2.850000 8.400000
v 8.748100 2.850000 8.400000
s 0
f 454 453 452 451 450 449
f 455 456 457 458 459 460
f 449 450 456 455
f 450 451 457 456
f 451 452 458 457
f 452 453 459 458
f 453 454 460 459
f 454 449 455 460
o L8-courtfacing-N
v 0.400000 2.430000 12.350000
v 0.400000 2.850000 12.350000
v 0.400000 2.850000 9.800000
v 0.400000 2.678100 9.800000
v 0.400000 2.678100 9.550000
v 0.400000 2.430000 9.550000
v 8.500000 2.430000 9.550000
v 8.500000 2.678100 9.550000
v 8.500000 2.678100 9.800000
v 8.500000 2.850000 9.800000
v 8.500000 2.850000 12.350000
v 8.500000 2.430000 12.350000
s 0
f 461 462 463 464 465 466
f 467 468 469 470 471 472
f 467 472 461 466
f 465 464 469 468
f 463 462 471 470
f 465 468 467 466
f 463 470 469 464
f 461 472 471 462
o L8-streetfront-E
v 0.000000 2.430000 12.350000
v 0.000000 11.300000 12.350000
v 0.000000 11.300000 9.550000
v 0.000000 2.430000 9.550000
v 0.228100 2.678100 9.550000
v 0.228100 11.051900 9.550000
v 0.228100 11.051900 9.800000
v 0.228100 2.678100 9.800000
v 0.400000 2.430000 9.550000
v 0.400000 2.678100 9.550000
v 0.400000 2.678100 9.800000
v 0.400000 11.051900 9.800000
v 0.400000 11.051900 9.550000
v 0.400000 11.300000 9.550000
v 0.400000 11.300000 12.350000
v 0.400000 2.430000 12.350000
s 0
f 473 474 475 476
f 477 478 479 480
f 481 482 483 484 485 486 487 488
f 481 488 473 476
f 485 484 479 478
f 477 480 483 482
f 475 474 487 486
f 475 486 485 478 477 482 481 476
f 479 484 483 480
f 473 488 487 474
o L8-courtfacing-S
v 0.400000 10.880000 12.350000
v 0.400000 11.300000 12.350000
v 0.400000 11.300000 9.550000
v 0.400000 11.051900 9.550000
v 0.400000 11.051900 9.800000
v 0.400000 10.880000 9.800000
v 10.851900 10.880000 9.800000
v 10.851900 11.051900 9.800000
v 10.851900 11.051900 9.550000
v 10.851900 10.880000 9.550000
v 11.100000 10.880000 9.550000
v 11.100000 11.300000 9.550000
v 11.100000 11.300000 12.350000
v 11.100000 10.880000 12.350000
s 0
f 489 490 491 492 493 494
f 495 496 497 498
f 499 500 501 502
f 495 498 499 502 489 494
f 497 496 493 492
f 491 490 501 500
f 497 492 491 500 499 498
f 493 496 495 494
f 489 502 501 490
o L8-courtfacing-W
v 10.680000 7.120000 12.350000
v 10.680000 10.880000 12.350000
v 10.680000 10.880000 9.800000
v 10.680000 7.120000 9.800000
v 10.851900 7.120000 9.800000
v 10.851900 10.880000 9.800000
v 10.851900 10.880000 9.550000
v 10.851900 7.120000 9.550000
v 11.100000 7.120000 9.550000
v 11.100000 10.880000 9.550000
v 11.100000 10.880000 12.350000
v 11.100000 7.120000 12.350000
s 0
f 503 504 505 506
f 507 508 509 510
f 511 512 513 514
f 507 510 511 514 503 506
f 505 504 513 512 509 508
f 509 512 511 510
f 505 508 507 506
f 503 514 513 504
o L8.Floor
v 10.851900 7.120000 9.550000
v 10.851900 11.051900 9.550000
v 0.228100 11.051900 9.550000
v 0.228100 2.678100 9.550000
v 8.500000 2.678100 9.550000
v 8.500000 7.120000 9.550000
v 10.851900 7.120000 9.800000
v 10.851900 11.051900 9.800000
v 0.228100 11.051900 9.800000
v 0.228100 2.678100 9.800000
v 8.500000 2.678100 9.800000
v 8.500000 7.120000 9.800000
s 0
f 520 519 518 517 516 515
f 521 522 523 524 525 526
f 515 516 522 521
f 516 517 523 522
f 517 518 524 523
f 518 519 525 524
f 519 520 526 525
f 520 515 521 526
o Roof_Deck9_CLT
v 11.100000 2.850000 10.950000
v 8.500000 2.850000 10.950000
v 8.500000 2.430000 10.950000
v 8.748100 2.430000 10.950000
v 8.748100 0.188100 10.950000
v 20.691900 0.188100 10.950000
v 20.691900 7.291900 10.950000
v 11.100000 7.291900 10.950000
v 11.100000 2.850000 11.195000
v 8.500000 2.850000 11.195000
v 8.500000 2.430000 11.195000
v 8.748100 2.430000 11.195000
v 8.748100 0.188100 11.195000
v 20.691900 0.188100 11.195000
v 20.691900 7.291900 11.195000
v 11.100000 7.291900 11.195000
s 0
f 534 533 532 531 530 529 528 527
f 535 536 537 538 539 540 541 542
f 527 528 536 535
f 528 529 537 536
f 529 530 538 537
f 530 531 539 538
f 531 532 540 539
f 532 533 541 540
f 533 534 542 541
f 534 527 535 542
o Roof_Deck9_InsulationFlat
v 8.920000 0.360000 11.195000
v 20.520000 0.360000 11.195000
v 20.520000 7.120000 11.195000
v 13.520000 7.120000 11.195000
v 13.520000 2.430000 11.195000
v 8.920000 2.430000 11.195000
v 8.920000 0.360000 11.395000
v 20.520000 0.360000 11.395000
v 20.520000 7.120000 11.395000
v 13.520000 7.120000 11.395000
v 13.520000 2.430000 11.395000
v 8.920000 2.430000 11.395000
s 0
f 548 547 546 545 544 543
f 549 550 551 552 553 554
f 543 544 550 549
f 544 545 551 550
f 545 546 552 551
f 546 547 553 552
f 547 548 554 553
f 548 543 549 554
o Roof_Deck9_InsulationTaper
v 8.920000 0.360000 11.395000
v 20.520000 0.360000 11.395000
v 20.520000 0.360000 11.395000
v 14.800000 2.965000 11.395000
v 8.920000 0.360000 11.395000
v 8.920000 0.360000 11.534400
v 20.520000 0.360000 11.534400
v 20.520000 0.360000 11.534400
v 14.800000 2.965000 11.420000
v 8.920000 0.360000 11.534400
v 20.520000 0.360000 11.395000
v 20.520000 0.360000 11.395000
v 20.520000 7.120000 11.395000
v 20.520000 7.120000 11.395000
v 14.800000 2.965000 11.395000
v 20.520000 0.360000 11.534400
v 20.520000 0.360000 11.534400
v 20.520000 7.120000 11.534400
v 20.520000 7.120000 11.534400
v 14.800000 2.965000 11.420000
v 14.800000 2.965000 11.395000
v 20.520000 7.120000 11.395000
v 20.520000 7.120000 11.395000
v 13.520000 7.120000 11.395000
v 13.520000 7.120000 11.395000
v 14.800000 2.965000 11.420000
v 20.520000 7.120000 11.534400
v 20.520000 7.120000 11.534400
v 13.520000 7.120000 11.534400
v 13.520000 7.120000 11.534400
v 14.800000 2.965000 11.395000
v 13.520000 7.120000 11.395000
v 13.520000 7.120000 11.395000
v 13.520000 2.430000 11.395000
v 13.520000 2.430000 11.395000
v 13.520000 2.430000 11.395000
v 14.800000 2.965000 11.420000
v 13.520000 7.120000 11.534400
v 13.520000 7.120000 11.534400
v 13.520000 2.430000 11.442400
v 13.520000 2.430000 11.442400
v 13.520000 2.430000 11.442400
v 8.920000 0.360000 11.395000
v 8.920000 0.360000 11.395000
v 14.800000 2.965000 11.395000
v 13.520000 2.430000 11.395000
v 13.520000 2.430000 11.395000
v 13.520000 2.430000 11.395000
v 13.520000 2.430000 11.395000
v 8.920000 0.360000 11.395000
v 8.920000 0.360000 11.534400
v 8.920000 0.360000 11.534400
v 14.800000 2.965000 11.420000
v 13.520000 2.430000 11.442400
v 13.520000 2.430000 11.442400
v 13.520000 2.430000 11.442400
v 13.520000 2.430000 11.442400
v 8.920000 0.360000 11.534400
v 8.920000 0.360000 11.395000
v 8.920000 0.360000 11.395000
v 13.520000 2.430000 11.395000
v 13.520000 2.430000 11.395000
v 13.520000 2.430000 11.395000
v 8.920000 2.430000 11.395000
v 8.920000 0.360000 11.534400
v 8.920000 0.360000 11.534400
v 13.520000 2.430000 11.442400
v 13.520000 2.430000 11.442400
v 13.520000 2.430000 11.442400
v 8.920000 2.430000 11.534400
s 0
f 559 558 557 556 555
f 560 561 562 563 564
f 555 556 561 560
f 556 557 562 561
f 557 558 563 562
f 558 559 564 563
f 559 555 560 564
f 569 568 567 566 565
f 570 571 572 573 574
f 565 566 571 570
f 566 567 572 571
f 567 568 573 572
f 568 569 574 573
f 569 565 570 574
f 579 578 577 576 575
f 580 581 582 583 584
f 575 576 581 580
f 576 577 582 581
f 577 578 583 582
f 578 579 584 583
f 579 575 580 584
f 590 589 588 587 586 585
f 591 592 593 594 595 596
f 585 586 592 591
f 586 587 593 592
f 587 588 594 593
f 588 589 595 594
f 589 590 596 595
f 590 585 591 596
f 604 603 602 601 600 599 598 597
f 605 606 607 608 609 610 611 612
f 597 598 606 605
f 598 599 607 606
f 599 600 608 607
f 600 601 609 608
f 601 602 610 609
f 602 603 611 610
f 603 604 612 611
f 604 597 605 612
f 618 617 616 615 614 613
f 619 620 621 622 623 624
f 613 614 620 619
f 614 615 621 620
f 615 616 622 621
f 616 617 623 622
f 617 618 624 623
f 618 613 619 624
o Roof_Unit8_CLT
v 11.100000 7.120000 12.350000
v 11.100000 7.540000 12.350000
v 10.851900 7.540000 12.350000
v 10.851900 11.051900 12.350000
v 0.228100 11.051900 12.350000
v 0.228100 2.678100 12.350000
v 8.500000 2.678100 12.350000
v 8.500000 7.120000 12.350000
v 11.100000 7.120000 12.595000
v 11.100000 7.540000 12.595000
v 10.851900 7.540000 12.595000
v 10.851900 11.051900 12.595000
v 0.228100 11.051900 12.595000
v 0.228100 2.678100 12.595000
v 8.500000 2.678100 12.595000
v 8.500000 7.120000 12.595000
s 0
f 632 631 630 629 628 627 626 625
f 633 634 635 636 637 638 639 640
f 625 626 634 633
f 626 627 635 634
f 627 628 636 635
f 628 629 637 636
f 629 630 638 637
f 630 631 639 638
f 631 632 640 639
f 632 625 633 640
o Roof_Unit8_InsulationFlat
v 10.680000 7.540000 12.595000
v 10.680000 10.880000 12.595000
v 0.400000 10.880000 12.595000
v 0.400000 2.850000 12.595000
v 8.080000 2.850000 12.595000
v 8.080000 7.540000 12.595000
v 10.680000 7.540000 12.795000
v 10.680000 10.880000 12.795000
v 0.400000 10.880000 12.795000
v 0.400000 2.850000 12.795000
v 8.080000 2.850000 12.795000
v 8.080000 7.540000 12.795000
s 0
f 646 645 644 643 642 641
f 647 648 649 650 651 652
f 641 642 648 647
f 642 643 649 648
f 643 644 650 649
f 644 645 651 650
f 645 646 652 651
f 646 641 647 652
o Roof_Unit8_InsulationTaper
v 10.680000 10.880000 12.795000
v 10.680000 10.880000 12.795000
v 0.400000 10.880000 12.795000
v 0.400000 10.880000 12.795000
v 4.400000 5.865000 12.795000
v 10.680000 10.880000 12.945600
v 10.680000 10.880000 12.945600
v 0.400000 10.880000 12.945600
v 0.400000 10.880000 12.945600
v 4.400000 5.865000 12.820000
v 0.400000 10.880000 12.795000
v 0.400000 10.880000 12.795000
v 0.400000 2.850000 12.795000
v 0.400000 2.850000 12.795000
v 4.400000 5.865000 12.795000
v 0.400000 10.880000 12.945600
v 0.400000 10.880000 12.945600
v 0.400000 2.850000 12.945600
v 0.400000 2.850000 12.945600
v 4.400000 5.865000 12.820000
v 4.400000 5.865000 12.795000
v 0.400000 2.850000 12.795000
v 0.400000 2.850000 12.795000
v 8.080000 2.850000 12.795000
v 8.080000 2.850000 12.795000
v 4.400000 5.865000 12.820000
v 0.400000 2.850000 12.945600
v 0.400000 2.850000 12.945600
v 8.080000 2.850000 12.945600
v 8.080000 2.850000 12.945600
v 4.400000 5.865000 12.795000
v 8.080000 2.850000 12.795000
v 8.080000 2.850000 12.795000
v 8.080000 7.540000 12.795000
v 8.080000 7.540000 12.795000
v 8.080000 7.540000 12.795000
v 4.400000 5.865000 12.820000
v 8.080000 2.850000 12.945600
v 8.080000 2.850000 12.945600
v 8.080000 7.540000 12.893600
v 8.080000 7.540000 12.893600
v 8.080000 7.540000 12.893600
v 10.680000 10.880000 12.795000
v 10.680000 10.880000 12.795000
v 10.680000 10.880000 12.795000
v 4.400000 5.865000 12.795000
v 8.080000 7.540000 12.795000
v 8.080000 7.540000 12.795000
v 8.080000 7.540000 12.795000
v 8.080000 7.540000 12.795000
v 10.680000 10.880000 12.945600
v 10.680000 10.880000 12.945600
v 10.680000 10.880000 12.945600
v 4.400000 5.865000 12.820000
v 8.080000 7.540000 12.893600
v 8.080000 7.540000 12.893600
v 8.080000 7.540000 12.893600
v 8.080000 7.540000 12.893600
v 10.680000 7.540000 12.795000
v 10.680000 10.880000 12.795000
v 10.680000 10.880000 12.795000
v 8.080000 7.540000 12.795000
v 8.080000 7.540000 12.795000
v 8.080000 7.540000 12.795000
v 10.680000 7.540000 12.945600
v 10.680000 10.880000 12.945600
v 10.680000 10.880000 12.945600
v 8.080000 7.540000 12.893600
v 8.080000 7.540000 12.893600
v 8.080000 7.540000 12.893600
s 0
f 657 656 655 654 653
f 658 659 660 661 662
f 653 654 659 658
f 654 655 660 659
f 655 656 661 660
f 656 657 662 661
f 657 653 658 662
f 667 666 665 664 663
f 668 669 670 671 672
f 663 664 669 668
f 664 665 670 669
f 665 666 671 670
f 666 667 672 671
f 667 663 668 672
f 677 676 675 674 673
f 678 679 680 681 682
f 673 674 679 678
f 674 675 680 679
f 675 676 681 680
f 676 677 682 681
f 677 673 678 682
f 688 687 686 685 684 683
f 689 690 691 692 693 694
f 683 684 690 689
f 684 685 691 690
f 685 686 692 691
f 686 687 693 692
f 687 688 694 693
f 688 683 689 694
f 702 701 700 699 698 697 696 695
f 703 704 705 706 707 708 709 710
f 695 696 704 703
f 696 697 705 704
f 697 698 706 705
f 698 699 707 706
f 699 700 708 707
f 700 701 709 708
f 701 702 710 709
f 702 695 703 710
f 716 715 714 713 712 711
f 717 718 719 720 721 722
f 711 712 718 717
f 712 713 719 718
f 713 714 720 719
f 714 715 721 720
f 715 716 722 721
f 716 711 717 722
o Lobby-courtfacing-E
v 8.920000 0.000000 -0.250000
v 8.920000 2.850000 -0.250000
v 8.500000 2.850000 -0.250000
v 8.500000 0.000000 -0.250000
v 8.920000 0.000000 2.550000
v 8.920000 2.850000 2.550000
v 8.500000 2.850000 2.550000
v 8.500000 0.000000 2.550000
s 0
f 726 725 724 723
f 727 728 729 730
f 723 724 728 727
f 724 725 729 728
f 725 726 730 729
f 726 723 727 730
o Lobby-mitoyen-N
v 8.920000 0.000000 -0.250000
v 12.870000 0.000000 -0.250000
v 12.870000 0.360000 -0.250000
v 8.920000 0.360000 -0.250000
v 8.920000 0.000000 2.550000
v 12.870000 0.000000 2.550000
v 12.870000 0.360000 2.550000
v 8.920000 0.360000 2.550000
s 0
f 734 733 732 731
f 735 736 737 738
f 731 732 736 735
f 732 733 737 736
f 733 734 738 737
f 734 731 735 738
o Headhouse-E
v 8.500000 2.850000 12.595000
v 8.500000 7.120000 12.595000
v 8.080000 7.120000 12.595000
v 8.080000 2.850000 12.595000
v 8.500000 2.850000 14.025000
v 8.500000 7.120000 14.025000
v 8.080000 7.120000 14.025000
v 8.080000 2.850000 14.025000
s 0
f 742 741 740 739
f 743 744 745 746
f 739 740 744 743
f 740 741 745 744
f 741 742 746 745
f 742 739 743 746
o Headhouse-W
v 13.100000 7.120000 11.195000
v 13.100000 2.850000 11.195000
v 13.520000 2.850000 11.195000
v 13.520000 7.120000 11.195000
v 13.100000 7.120000 14.025000
v 13.100000 2.850000 14.025000
v 13.520000 2.850000 14.025000
v 13.520000 7.120000 14.025000
s 0
f 750 749 748 747
f 751 752 753 754
f 747 748 752 751
f 748 749 753 752
f 749 750 754 753
f 750 747 751 754
o Headhouse-S
v 8.080000 7.120000 14.025000
v 8.080000 7.540000 14.025000
v 8.080000 7.540000 12.595000
v 8.080000 7.120000 12.595000
v 11.100000 7.120000 12.595000
v 11.100000 7.540000 12.595000
v 11.100000 7.540000 10.950000
v 11.100000 7.291900 10.950000
v 11.100000 7.291900 11.195000
v 11.100000 7.120000 11.195000
v 13.520000 7.120000 11.195000
v 13.520000 7.291900 11.195000
v 13.520000 7.291900 10.950000
v 13.520000 7.540000 10.950000
v 13.520000 7.540000 14.025000
v 13.520000 7.120000 14.025000
s 0
f 755 756 757 758
f 759 760 761 762 763 764
f 765 766 767 768 769 770
f 759 764 765 770 755 758
f 767 766 763 762
f 757 756 769 768 761 760
f 761 768 767 762
f 763 766 765 764
f 757 760 759 758
f 755 770 769 756
o Headhouse-N
v 8.080000 2.430000 14.025000
v 8.080000 2.850000 14.025000
v 8.080000 2.850000 12.595000
v 8.080000 2.678100 12.595000
v 8.080000 2.678100 12.350000
v 8.080000 2.430000 12.350000
v 8.500000 2.430000 12.350000
v 8.500000 2.678100 12.350000
v 8.500000 2.678100 12.595000
v 8.500000 2.850000 12.595000
v 8.500000 2.850000 11.195000
v 8.500000 2.430000 11.195000
v 13.520000 2.430000 11.195000
v 13.520000 2.850000 11.195000
v 13.520000 2.850000 14.025000
v 13.520000 2.430000 14.025000
s 0
f 771 772 773 774 775 776
f 777 778 779 780 781 782
f 783 784 785 786
f 777 782 783 786 771 776
f 775 774 779 778
f 773 772 785 784 781 780
f 781 784 783 782
f 775 778 777 776
f 773 780 779 774
f 771 786 785 772
o Roof_Headhouse_CLT
v 8.328100 2.678100 14.025000
v 13.271900 2.678100 14.025000
v 13.271900 7.291900 14.025000
v 8.328100 7.291900 14.025000
v 8.328100 2.678100 14.270000
v 13.271900 2.678100 14.270000
v 13.271900 7.291900 14.270000
v 8.328100 7.291900 14.270000
s 0
f 790 789 788 787
f 791 792 793 794
f 787 788 792 791
f 788 789 793 792
f 789 790 794 793
f 790 787 791 794
o Roof_Headhouse_InsulationFlat
v 8.500000 2.850000 14.270000
v 13.100000 2.850000 14.270000
v 13.100000 7.120000 14.270000
v 8.500000 7.120000 14.270000
v 8.500000 2.850000 14.470000
v 13.100000 2.850000 14.470000
v 13.100000 7.120000 14.470000
v 8.500000 7.120000 14.470000
s 0
f 798 797 796 795
f 799 800 801 802
f 795 796 800 799
f 796 797 801 800
f 797 798 802 801
f 798 795 799 802
o Roof_Headhouse_InsulationTaper
v 8.500000 2.850000 14.470000
v 13.100000 2.850000 14.470000
v 13.100000 2.850000 14.470000
v 8.500000 4.985000 14.470000
v 8.500000 2.850000 14.587000
v 13.100000 2.850000 14.587000
v 13.100000 2.850000 14.587000
v 8.500000 4.985000 14.495000
v 13.100000 2.850000 14.470000
v 13.100000 2.850000 14.470000
v 13.100000 7.120000 14.470000
v 13.100000 7.120000 14.470000
v 8.500000 4.985000 14.470000
v 8.500000 4.985000 14.470000
v 13.100000 2.850000 14.587000
v 13.100000 2.850000 14.587000
v 13.100000 7.120000 14.587000
v 13.100000 7.120000 14.587000
v 8.500000 4.985000 14.495000
v 8.500000 4.985000 14.495000
v 13.100000 7.120000 14.470000
v 13.100000 7.120000 14.470000
v 8.500000 7.120000 14.470000
v 8.500000 4.985000 14.470000
v 13.100000 7.120000 14.587000
v 13.100000 7.120000 14.587000
v 8.500000 7.120000 14.587000
v 8.500000 4.985000 14.495000
s 0
f 806 805 804 803
f 807 808 809 810
f 803 804 808 807
f 804 805 809 808
f 805 806 810 809
f 806 803 807 810
f 816 815 814 813 812 811
f 817 818 819 820 821 822
f 811 812 818 817
f 812 813 819 818
f 813 814 820 819
f 814 815 821 820
f 815 816 822 821
f 816 811 817 822
f 826 825 824 823
f 827 828 829 830
f 823 824 828 827
f 824 825 829 828
f 825 826 830 829
f 826 823 827 830
o CapPlate-Deck9-S
v 13.520000 7.291900 12.806000
v 15.190000 7.291900 12.806000
v 15.190000 7.540000 12.806000
v 13.520000 7.540000 12.806000
v 13.520000 7.291900 12.825000
v 15.190000 7.291900 12.825000
v 15.190000 7.540000 12.833000
v 13.520000 7.540000 12.833000
s 0
f 834 833 832 831
f 835 836 837 838
f 831 832 836 835
f 832 833 837 836
f 833 834 838 837
f 834 831 835 838
o CapPlate-Deck9-S2
v 16.389999 7.540000 12.806000
v 16.389999 7.291900 12.806000
v 20.691900 7.291900 12.806000
v 20.900000 7.540000 12.806000
v 16.389999 7.540000 12.833000
v 16.389999 7.291900 12.825000
v 20.691900 7.291900 12.825000
v 20.900000 7.540000 12.833000
s 0
f 842 841 840 839
f 843 844 845 846
f 839 840 844 843
f 840 841 845 844
f 841 842 846 845
f 842 839 843 846
o CapPlate-Deck9-W
v 20.900000 7.540000 12.806000
v 20.691900 7.291900 12.806000
v 20.691900 0.188100 12.806000
v 20.900000 -0.160000 12.806000
v 20.900000 7.540000 12.833000
v 20.691900 7.291900 12.825000
v 20.691900 0.188100 12.825000
v 20.900000 -0.160000 12.833000
s 0
f 850 849 848 847
f 851 852 853 854
f 847 848 852 851
f 848 849 853 852
f 849 850 854 853
f 850 847 851 854
o CapPlate-Deck9-N
v 20.900000 -0.160000 12.806000
v 20.691900 0.188100 12.806000
v 8.748100 0.188100 12.806000
v 8.500000 -0.160000 12.806000
v 20.900000 -0.160000 12.833000
v 20.691900 0.188100 12.825000
v 8.748100 0.188100 12.825000
v 8.500000 -0.160000 12.833000
s 0
f 858 857 856 855
f 859 860 861 862
f 855 856 860 859
f 856 857 861 860
f 857 858 862 861
f 858 855 859 862
o CapPlate-Deck9-E
v 8.748100 0.188100 12.806000
v 8.748100 2.430000 12.806000
v 8.500000 2.430000 12.806000
v 8.500000 -0.160000 12.806000
v 8.748100 0.188100 12.825000
v 8.748100 2.430000 12.825000
v 8.500000 2.430000 12.833000
v 8.500000 -0.160000 12.833000
s 0
f 866 865 864 863
f 867 868 869 870
f 863 864 868 867
f 864 865 869 868
f 865 866 870 869
f 866 863 867 870
o Cornice-Deck9-S
v 15.090000 7.540000 11.464400
v 16.490000 7.540000 11.464400
v 16.490000 7.640000 11.464400
v 15.090000 7.640000 11.464400
v 15.090000 7.540000 11.534400
v 16.490000 7.540000 11.534400
v 16.490000 7.640000 11.534400
v 15.090000 7.640000 11.534400
s 0
f 874 873 872 871
f 875 876 877 878
f 871 872 876 875
f 872 873 877 876
f 873 874 878 877
f 874 871 875 878
o Cornice-Deck9-N
v 8.500000 -0.160000 12.736000
v 20.900000 -0.160000 12.736000
v 20.900000 0.000000 12.736000
v 8.500000 0.000000 12.736000
v 8.500000 -0.160000 12.806000
v 20.900000 -0.160000 12.806000
v 20.900000 0.000000 12.806000
v 8.500000 0.000000 12.806000
s 0
f 882 881 880 879
f 883 884 885 886
f 879 880 884 883
f 880 881 885 884
f 881 882 886 885
f 882 879 883 886
o Parapet-Deck9-S
v 13.520000 7.120000 11.534400
v 13.520000 7.291900 11.534400
v 13.520000 7.291900 12.806000
v 13.520000 7.540000 12.806000
v 13.520000 7.540000 10.950000
v 13.520000 7.291900 10.950000
v 13.520000 7.291900 11.195000
v 13.520000 7.120000 11.195000
v 16.389999 7.291900 12.806000
v 16.389999 7.540000 12.806000
v 16.389999 7.540000 11.534400
v 16.389999 7.291900 11.534400
v 15.190000 7.291900 11.534400
v 15.190000 7.540000 11.534400
v 15.190000 7.540000 12.806000
v 15.190000 7.291900 12.806000
v 20.520000 7.120000 11.195000
v 20.520000 7.291900 11.195000
v 20.520000 7.291900 10.950000
v 20.520000 7.540000 10.950000
v 20.520000 7.540000 12.806000
v 20.520000 7.291900 12.806000
v 20.520000 7.291900 11.534400
v 20.520000 7.120000 11.534400
s 0
f 887 888 889 890 891 892 893 894
f 895 896 897 898
f 899 900 901 902
f 903 904 905 906 907 908 909 910
f 903 910 887 894
f 905 904 893 892
f 899 902 889 888
f 909 908 895 898
f 891 890 901 900 897 896 907 906
f 891 906 905 892
f 893 904 903 894
f 887 910 909 898 897 900 899 888
f 889 902 901 890
f 895 908 907 896
o Parapet-Deck9-W
v 20.520000 0.000000 12.806000
v 20.520000 0.188100 12.806000
v 20.520000 0.188100 11.534400
v 20.520000 7.291900 11.534400
v 20.520000 7.291900 12.806000
v 20.520000 7.540000 12.806000
v 20.520000 7.540000 10.950000
v 20.520000 7.291900 10.950000
v 20.520000 7.291900 11.195000
v 20.520000 0.188100 11.195000
v 20.520000 0.188100 10.950000
v 20.520000 0.000000 10.950000
v 20.691900 0.188100 11.195000
v 20.691900 7.291900 11.195000
v 20.691900 7.291900 10.950000
v 20.691900 0.188100 10.950000
v 20.691900 0.188100 12.806000
v 20.691900 7.291900 12.806000
v 20.691900 7.291900 11.534400
v 20.691900 0.188100 11.534400
v 20.900000 0.000000 10.950000
v 20.900000 7.540000 10.950000
v 20.900000 7.540000 12.806000
v 20.900000 0.000000 12.806000
s 0
f 911 912 913 914 915 916 917 918 919 920 921 922
f 923 924 925 926
f 927 928 929 930
f 931 932 933 934
f 931 934 911 922
f 925 924 919 918
f 929 928 915 914
f 921 920 923 926
f 913 912 927 930
f 917 916 933 932
f 921 926 925 918 917 932 931 922
f 919 924 923 920
f 913 930 929 914
f 911 934 933 916 915 928 927 912
o Parapet-Deck9-N
v 8.920000 0.000000 12.806000
v 8.920000 0.188100 12.806000
v 8.920000 0.188100 11.534400
v 8.920000 0.360000 11.534400
v 8.920000 0.360000 11.195000
v 8.920000 0.188100 11.195000
v 8.920000 0.188100 10.950000
v 8.920000 0.000000 10.950000
v 20.520000 0.000000 10.950000
v 20.520000 0.188100 10.950000
v 20.520000 0.188100 11.195000
v 20.520000 0.360000 11.195000
v 20.520000 0.360000 11.534400
v 20.520000 0.188100 11.534400
v 20.520000 0.188100 12.806000
v 20.520000 0.000000 12.806000
s 0
f 935 936 937 938 939 940 941 942
f 943 944 945 946 947 948 949 950
f 943 950 935 942
f 941 940 945 944
f 937 936 949 948
f 939 938 947 946
f 941 944 943 942
f 939 946 945 940
f 937 948 947 938
f 935 950 949 936
o Parapet-Deck9-E
v 8.500000 0.000000 12.806000
v 8.500000 2.430000 12.806000
v 8.500000 2.430000 10.950000
v 8.500000 0.000000 10.950000
v 8.748100 0.188100 10.950000
v 8.748100 2.430000 10.950000
v 8.748100 2.430000 11.195000
v 8.748100 0.188100 11.195000
v 8.748100 0.188100 11.534400
v 8.748100 2.430000 11.534400
v 8.748100 2.430000 12.806000
v 8.748100 0.188100 12.806000
v 8.920000 0.000000 10.950000
v 8.920000 0.188100 10.950000
v 8.920000 0.188100 11.195000
v 8.920000 2.430000 11.195000
v 8.920000 2.430000 11.534400
v 8.920000 0.188100 11.534400
v 8.920000 0.188100 12.806000
v 8.920000 0.000000 12.806000
s 0
f 951 952 953 954
f 955 956 957 958
f 959 960 961 962
f 963 964 965 966 967 968 969 970
f 963 970 951 954
f 955 958 965 964
f 959 962 969 968
f 953 952 961 960 967 966 957 956
f 953 956 955 964 963 954
f 957 966 965 958
f 959 968 967 960
f 951 970 969 962 961 952
o CapPlate-Unit8-N
v 8.080000 2.430000 13.076600
v 8.080000 2.850000 13.076600
v 0.400000 2.850000 13.076600
v -0.170000 2.430000 13.076600
v 8.080000 2.430000 13.110600
v 8.080000 2.850000 13.095600
v 0.400000 2.850000 13.095600
v -0.170000 2.430000 13.110600
s 0
f 974 973 972 971
f 975 976 977 978
f 971 972 976 975
f 972 973 977 976
f 973 974 978 977
f 974 971 975 978
o CapPlate-Unit8-E
v -0.170000 2.430000 13.076600
v 0.400000 2.850000 13.076600
v 0.400000 10.880000 13.076600
v -0.170000 11.300000 13.076600
v -0.170000 2.430000 13.110600
v 0.400000 2.850000 13.095600
v 0.400000 10.880000 13.095600
v -0.170000 11.300000 13.110600
s 0
f 982 981 980 979
f 983 984 985 986
f 979 980 984 983
f 980 981 985 984
f 981 982 986 985
f 982 979 983 986
o CapPlate-Unit8-S
v 0.400000 10.880000 13.076600
v 10.680000 10.880000 13.076600
v 11.100000 11.300000 13.076600
v -0.170000 11.300000 13.076600
v 0.400000 10.880000 13.095600
v 10.680000 10.880000 13.095600
v 11.100000 11.300000 13.110600
v -0.170000 11.300000 13.110600
s 0
f 990 989 988 987
f 991 992 993 994
f 987 988 992 991
f 988 989 993 992
f 989 990 994 993
f 990 987 991 994
o CapPlate-Unit8-W
v 10.680000 10.880000 13.076600
v 10.680000 7.540000 13.076600
v 11.100000 7.540000 13.076600
v 11.100000 11.300000 13.076600
v 10.680000 10.880000 13.095600
v 10.680000 7.540000 13.095600
v 11.100000 7.540000 13.110600
v 11.100000 11.300000 13.110600
s 0
f 998 997 996 995
f 999 1000 1001 1002
f 995 996 1000 999
f 996 997 1001 1000
f 997 998 1002 1001
f 998 995 999 1002
o Cornice-Unit8-E
v -0.170000 2.430000 13.006600
v 0.000000 2.430000 13.006600
v 0.000000 11.300000 13.006600
v -0.170000 11.300000 13.006600
v -0.170000 2.430000 13.076600
v 0.000000 2.430000 13.076600
v 0.000000 11.300000 13.076600
v -0.170000 11.300000 13.076600
s 0
f 1006 1005 1004 1003
f 1007 1008 1009 1010
f 1003 1004 1008 1007
f 1004 1005 1009 1008
f 1005 1006 1010 1009
f 1006 1003 1007 1010
o Parapet-Unit8-N
v 0.400000 2.430000 13.076600
v 0.400000 2.850000 13.076600
v 0.400000 2.850000 12.595000
v 0.400000 2.678100 12.595000
v 0.400000 2.678100 12.350000
v 0.400000 2.430000 12.350000
v 8.080000 2.430000 12.350000
v 8.080000 2.678100 12.350000
v 8.080000 2.678100 12.595000
v 8.080000 2.850000 12.595000
v 8.080000 2.850000 13.076600
v 8.080000 2.430000 13.076600
s 0
f 1011 1012 1013 1014 1015 1016
f 1017 1018 1019 1020 1021 1022
f 1017 1022 1011 1016
f 1015 1014 1019 1018
f 1013 1012 1021 1020
f 1015 1018 1017 1016
f 1013 1020 1019 1014
f 1011 1022 1021 1012
o Parapet-Unit8-E
v 0.000000 2.430000 13.076600
v 0.000000 11.300000 13.076600
v 0.000000 11.300000 12.350000
v 0.000000 2.430000 12.350000
v 0.228100 2.678100 12.350000
v 0.228100 11.051900 12.350000
v 0.228100 11.051900 12.595000
v 0.228100 2.678100 12.595000
v 0.400000 2.430000 12.350000
v 0.400000 2.678100 12.350000
v 0.400000 2.678100 12.595000
v 0.400000 11.051900 12.595000
v 0.400000 11.051900 12.350000
v 0.400000 11.300000 12.350000
v 0.400000 11.300000 13.076600
v 0.400000 2.430000 13.076600
s 0
f 1023 1024 1025 1026
f 1027 1028 1029 1030
f 1031 1032 1033 1034 1035 1036 1037 1038
f 1031 1038 1023 1026
f 1035 1034 1029 1028
f 1027 1030 1033 1032
f 1025 1024 1037 1036
f 1025 1036 1035 1028 1027 1032 1031 1026
f 1029 1034 1033 1030
f 1023 1038 1037 1024
o Parapet-Unit8-S
v 0.400000 10.880000 13.076600
v 0.400000 11.300000 13.076600
v 0.400000 11.300000 12.350000
v 0.400000 11.051900 12.350000
v 0.400000 11.051900 12.595000
v 0.400000 10.880000 12.595000
v 10.851900 10.880000 12.595000
v 10.851900 11.051900 12.595000
v 10.851900 11.051900 12.350000
v 10.851900 10.880000 12.350000
v 11.100000 10.880000 12.350000
v 11.100000 11.300000 12.350000
v 11.100000 11.300000 13.076600
v 11.100000 10.880000 13.076600
s 0
f 1039 1040 1041 1042 1043 1044
f 1045 1046 1047 1048
f 1049 1050 1051 1052
f 1045 1048 1049 1052 1039 1044
f 1047 1046 1043 1042
f 1041 1040 1051 1050
f 1047 1042 1041 1050 1049 1048
f 1043 1046 1045 1044
f 1039 1052 1051 1040
o Parapet-Unit8-W
v 10.680000 7.540000 13.076600
v 10.680000 10.880000 13.076600
v 10.680000 10.880000 12.595000
v 10.680000 7.540000 12.595000
v 10.851900 7.540000 12.595000
v 10.851900 10.880000 12.595000
v 10.851900 10.880000 12.350000
v 10.851900 7.540000 12.350000
v 11.100000 7.540000 12.350000
v 11.100000 10.880000 12.350000
v 11.100000 10.880000 13.076600
v 11.100000 7.540000 13.076600
s 0
f 1053 1054 1055 1056
f 1057 1058 1059 1060
f 1061 1062 1063 1064
f 1057 1060 1061 1064 1053 1056
f 1055 1054 1063 1062 1059 1058
f 1059 1062 1061 1060
f 1055 1058 1057 1056
f 1053 1064 1063 1054
o CapPlate-Headhouse-N
v 8.080000 2.430000 14.718000
v 13.520000 2.430000 14.718000
v 13.100000 2.850000 14.718000
v 8.500000 2.850000 14.718000
v 8.080000 2.430000 14.752000
v 13.520000 2.430000 14.752000
v 13.100000 2.850000 14.737000
v 8.500000 2.850000 14.737000
s 0
f 1068 1067 1066 1065
f 1069 1070 1071 1072
f 1065 1066 1070 1069
f 1066 1067 1071 1070
f 1067 1068 1072 1071
f 1068 1065 1069 1072
o CapPlate-Headhouse-W
v 13.100000 7.120000 14.718000
v 13.100000 2.850000 14.718000
v 13.520000 2.430000 14.718000
v 13.520000 7.540000 14.718000
v 13.100000 7.120000 14.737000
v 13.100000 2.850000 14.737000
v 13.520000 2.430000 14.752000
v 13.520000 7.540000 14.752000
s 0
f 1076 1075 1074 1073
f 1077 1078 1079 1080
f 1073 1074 1078 1077
f 1074 1075 1079 1078
f 1075 1076 1080 1079
f 1076 1073 1077 1080
o CapPlate-Headhouse-S
v 8.500000 7.120000 14.718000
v 13.100000 7.120000 14.718000
v 13.520000 7.540000 14.718000
v 8.080000 7.540000 14.718000
v 8.500000 7.120000 14.737000
v 13.100000 7.120000 14.737000
v 13.520000 7.540000 14.752000
v 8.080000 7.540000 14.752000
s 0
f 1084 1083 1082 1081
f 1085 1086 1087 1088
f 1081 1082 1086 1085
f 1082 1083 1087 1086
f 1083 1084 1088 1087
f 1084 1081 1085 1088
o CapPlate-Headhouse-E
v 8.500000 2.850000 14.718000
v 8.500000 4.785000 14.718000
v 8.080000 4.785000 14.718000
v 8.080000 2.430000 14.718000
v 8.500000 2.850000 14.737000
v 8.500000 4.785000 14.737000
v 8.080000 4.785000 14.752000
v 8.080000 2.430000 14.752000
s 0
f 1092 1091 1090 1089
f 1093 1094 1095 1096
f 1089 1090 1094 1093
f 1090 1091 1095 1094
f 1091 1092 1096 1095
f 1092 1089 1093 1096
o CapPlate-Headhouse-E2
v 8.080000 5.185000 14.718000
v 8.500000 5.185000 14.718000
v 8.500000 7.120000 14.718000
v 8.080000 7.540000 14.718000
v 8.080000 5.185000 14.752000
v 8.500000 5.185000 14.737000
v 8.500000 7.120000 14.737000
v 8.080000 7.540000 14.752000
s 0
f 1100 1099 1098 1097
f 1101 1102 1103 1104
f 1097 1098 1102 1101
f 1098 1099 1103 1102
f 1099 1100 1104 1103
f 1100 1097 1101 1104
o Cornice-Headhouse-E
v 7.980000 4.685000 14.425000
v 8.080000 4.685000 14.425000
v 8.080000 5.285000 14.425000
v 7.980000 5.285000 14.425000
v 7.980000 4.685000 14.495000
v 8.080000 4.685000 14.495000
v 8.080000 5.285000 14.495000
v 7.980000 5.285000 14.495000
s 0
f 1108 1107 1106 1105
f 1109 1110 1111 1112
f 1105 1106 1110 1109
f 1106 1107 1111 1110
f 1107 1108 1112 1111
f 1108 1105 1109 1112
o Parapet-Headhouse-N
v 8.080000 2.430000 14.718000
v 8.080000 2.850000 14.718000
v 8.080000 2.850000 14.025000
v 8.080000 2.430000 14.025000
v 13.271900 2.678100 14.270000
v 13.271900 2.850000 14.270000
v 13.271900 2.850000 14.025000
v 13.271900 2.678100 14.025000
v 8.328100 2.678100 14.025000
v 8.328100 2.850000 14.025000
v 8.328100 2.850000 14.270000
v 8.328100 2.678100 14.270000
v 13.520000 2.430000 14.025000
v 13.520000 2.850000 14.025000
v 13.520000 2.850000 14.718000
v 13.520000 2.430000 14.718000
s 0
f 1113 1114 1115 1116
f 1117 1118 1119 1120
f 1121 1122 1123 1124
f 1125 1126 1127 1128
f 1125 1128 1113 1116
f 1121 1124 1117 1120
f 1115 1114 1127 1126 1119 1118 1123 1122
f 1115 1122 1121 1120 1119 1126 1125 1116
f 1123 1118 1117 1124
f 1113 1128 1127 1114
o Parapet-Headhouse-W
v 13.100000 2.850000 14.718000
v 13.100000 7.120000 14.718000
v 13.100000 7.120000 14.270000
v 13.100000 2.850000 14.270000
v 13.271900 2.850000 14.270000
v 13.271900 7.120000 14.270000
v 13.271900 7.120000 14.025000
v 13.271900 2.850000 14.025000
v 13.520000 2.850000 14.025000
v 13.520000 7.120000 14.025000
v 13.520000 7.120000 14.718000
v 13.520000 2.850000 14.718000
s 0
f 1129 1130 1131 1132
f 1133 1134 1135 1136
f 1137 1138 1139 1140
f 1133 1136 1137 1140 1129 1132
f 1131 1130 1139 1138 1135 1134
f 1135 1138 1137 1136
f 1131 1134 1133 1132
f 1129 1140 1139 1130
o Parapet-Headhouse-S
v 8.080000 7.120000 14.718000
v 8.080000 7.540000 14.718000
v 8.080000 7.540000 14.025000
v 8.080000 7.120000 14.025000
v 13.271900 7.120000 14.270000
v 13.271900 7.291900 14.270000
v 13.271900 7.291900 14.025000
v 13.271900 7.120000 14.025000
v 8.328100 7.120000 14.025000
v 8.328100 7.291900 14.025000
v 8.328100 7.291900 14.270000
v 8.328100 7.120000 14.270000
v 13.520000 7.120000 14.025000
v 13.520000 7.540000 14.025000
v 13.520000 7.540000 14.718000
v 13.520000 7.120000 14.718000
s 0
f 1141 1142 1143 1144
f 1145 1146 1147 1148
f 1149 1150 1151 1152
f 1153 1154 1155 1156
f 1149 1152 1145 1148 1153 1156 1141 1144
f 1147 1146 1151 1150
f 1143 1142 1155 1154
f 1143 1154 1153 1148 1147 1150 1149 1144
f 1151 1146 1145 1152
f 1141 1156 1155 1142
o Parapet-Headhouse-E
v 8.080000 2.850000 14.718000
v 8.080000 4.785000 14.718000
v 8.080000 4.785000 14.495000
v 8.080000 5.185000 14.495000
v 8.080000 5.185000 14.718000
v 8.080000 7.120000 14.718000
v 8.080000 7.120000 14.025000
v 8.080000 2.850000 14.025000
v 8.328100 2.850000 14.025000
v 8.328100 7.120000 14.025000
v 8.328100 7.120000 14.270000
v 8.328100 2.850000 14.270000
v 8.500000 2.850000 14.270000
v 8.500000 7.120000 14.270000
v 8.500000 7.120000 14.718000
v 8.500000 5.185000 14.718000
v 8.500000 5.185000 14.495000
v 8.500000 4.785000 14.495000
v 8.500000 4.785000 14.718000
v 8.500000 2.850000 14.718000
s 0
f 1157 1158 1159 1160 1161 1162 1163 1164
f 1165 1166 1167 1168
f 1169 1170 1171 1172 1173 1174 1175 1176
f 1165 1168 1169 1176 1157 1164
f 1173 1172 1161 1160
f 1159 1158 1175 1174
f 1163 1162 1171 1170 1167 1166
f 1163 1166 1165 1164
f 1167 1170 1169 1168
f 1159 1174 1173 1160
f 1157 1176 1175 1158
f 1161 1172 1171 1162
